<?xml version="1.0" standalone="no"?>
<!DOCTYPE svg PUBLIC "-//W3C//DTD SVG 1.1//EN" "http://www.w3.org/Graphics/SVG/1.1/DTD/svg11.dtd" >
<svg>
<metadata>
Created by FontForge 20090914 at Fri Jun 16 23:32:52 2017
 By www-data
Copyright &#194;&#169; 2011 ParaType Inc., ParaType Ltd. All rights reserved.
</metadata>
<defs>
<font id="Circe-Thin" horiz-adv-x="641" >
  <font-face 
    font-family="Circe Thin"
    font-weight="250"
    font-stretch="normal"
    units-per-em="1000"
    panose-1="2 11 2 2 2 2 3 2 2 3"
    ascent="773"
    descent="-227"
    x-height="450"
    cap-height="700"
    bbox="-480 -330 1698 990.006"
    underline-thickness="50"
    underline-position="-50"
    unicode-range="U+0020-U+FB02"
  />
<missing-glyph horiz-adv-x="250" 
 />
    <glyph glyph-name="uniF350.var.accented" unicode="&#xf350;`" horiz-adv-x="549" 
d="M24 0l249 531h4l248 -531h-11l-97 206h-286l-96 -206h-11zM274 513l-139 -298h278zM367 740l-109 -141l-8 5l110 142z" />
    <glyph glyph-name="uniF355.var.accented" unicode="&#xf355;`" horiz-adv-x="469" 
d="M96 0v525h301v-10h-291v-242h267v-10h-267v-253h299v-10h-309zM347 740l-109 -141l-8 5l110 142z" />
    <glyph glyph-name="uniF358.var.accented" unicode="&#xf358;`" 
d="M106 0h-10v525h10v-510l429 510h10v-525h-10v510zM407 740l-109 -141l-8 5l110 142z" />
    <glyph glyph-name="uniF35E.var.accented" unicode="&#xf35e;`" horiz-adv-x="644" 
d="M48 263c0 76 26.333 139.667 79 191s117.667 77 195 77s142.333 -25.667 195 -77s79 -115 79 -191c0 -76.667 -26.333 -140.667 -79 -192s-117.667 -77 -195 -77s-142.333 25.667 -195 77s-79 115.333 -79 192zM58 263c0 -74 25.335 -135.667 76.002 -185
s113.334 -74 188.001 -74c75.333 0 138.166 24.667 188.499 74s75.5 111 75.5 185c0 73.333 -25.333 134.666 -76 183.999s-113.334 74 -188.001 74s-137.334 -24.667 -188.001 -74s-76 -110.666 -76 -183.999zM417.002 740l-109 -141l-8 5l110 142z" />
    <glyph glyph-name="uniF363.var.accented" unicode="&#xf363;`" horiz-adv-x="506" 
d="M490 525l-197.998 -409c-20 -41.333 -38.667 -71 -56 -89s-37 -27 -59 -27c-22.667 0 -40.334 4.66699 -53.001 14l4 9c15.333 -9.33301 31.333 -14 48 -14c33.333 0 64.666 28 93.999 84l12 23l-266 409h11l260 -399l192 399h11zM347.002 740l-109 -141l-8 5l110 142z
" />
    <glyph glyph-name="uniF36B.var.accented" unicode="&#xf36b;`" horiz-adv-x="646" 
d="M540 0v525h10v-525h-10zM207 295c-32 0 -65.666 -1.33398 -100.999 -4.00098v-281c8.66699 0 23.5 -0.333008 44.5 -1s38.5 -1 52.5 -1c65.333 0 115.333 12.833 150 38.5s52 62.834 52 111.501c0 43.333 -16.833 77 -50.5 101s-82.834 36 -147.501 36zM106.001 524.999
v-224c35.333 2.66699 68.333 4 99 4c70 0 122.5 -12.833 157.5 -38.5s52.5 -62.167 52.5 -109.5c0 -52 -19 -91.5 -57 -118.5s-90 -40.5 -156 -40.5c-14 0 -32.5 0.333008 -55.5 1s-39.833 1 -50.5 1v525h10zM397.001 739.999l-109 -141l-8 5l110 142z" />
    <glyph glyph-name="uniF36D.var.accented" unicode="&#xf36d;`" horiz-adv-x="548" 
d="M165 263l0.000976562 10h325c-2 76 -27.333 136.333 -76 181s-113.334 67 -194.001 67c-65.333 0 -119 -15.333 -161 -46l-6 7c41.333 32.667 97 49 167 49c86 0 154.167 -23.833 204.5 -71.5s75.5 -112.5 75.5 -194.5c0 -77.333 -25.333 -141.833 -76 -193.5
s-117 -77.5 -199 -77.5c-69.333 0 -131 18.333 -185 55l6 7c53.333 -34.667 112.666 -52 177.999 -52c79.333 0 143.333 24.833 192 74.5s73.334 111.167 74.001 184.5h-325zM337.001 740l-109 -141l-8 5l110 142z" />
    <glyph glyph-name="uniF36E.var.accented" unicode="&#xf36e;`" horiz-adv-x="858" 
d="M96 0v525h10v-252h173c2 74 27.833 135.5 77.5 184.5s112.167 73.5 187.5 73.5c77.333 0 141 -25.5 191 -76.5s75 -114.833 75 -191.5s-25 -140.667 -75 -192s-113.667 -77 -191 -77c-76.667 0 -140 25.667 -190 77s-75 115.333 -75 192h-173v-263h-10zM289 263
c0 -74.667 24 -136.5 72 -185.5s109 -73.5 183 -73.5c74.667 0 136 24.5 184 73.5s72 110.833 72 185.5c0 74 -24 135.5 -72 184.5s-109.333 73.5 -184 73.5c-74 0 -135 -24.5 -183 -73.5s-72 -110.5 -72 -184.5zM448 740l-109 -141l-8 5l110 142z" />
    <glyph glyph-name="uniF36F.var.accented" unicode="&#xf36f;`" horiz-adv-x="484" 
d="M378 0l0.000976562 220h-152l-181 -220h-13l183 221c-36.667 6 -68.834 22.833 -96.501 50.5s-41.5 59.834 -41.5 96.501c0 47.333 17.167 85.666 51.5 114.999s82.833 44 145.5 44c13.333 0 33 -0.333008 59 -1s44.333 -1 55 -1v-525h-10zM222.001 230
l156.001 -0.000976562v285c-8.66699 0 -24.834 0.333008 -48.501 1s-42.5 1 -56.5 1c-61.333 0 -107.666 -14.167 -138.999 -42.5s-47 -64.166 -47 -107.499c0 -34 13.667 -64 41 -90s58.666 -41.667 93.999 -47zM367.002 739.999l-109 -141l-8 5l110 142z" />
    <glyph glyph-name="uniF371.var.accented" unicode="&#xf371;`" horiz-adv-x="469" 
d="M96 0v525h301v-10h-291v-242h267v-10h-267v-253h299v-10h-309zM145 671c0 3.33301 1.33105 6.16602 3.99805 8.49902s5.66699 3.5 9 3.5c2.66699 0 5.33398 -1.16699 8.00098 -3.5s4 -5.16602 4 -8.49902s-1.16699 -6.33301 -3.5 -9s-5.16602 -4 -8.49902 -4
c-8.66699 0 -13 4.33301 -13 13zM318.998 671c0 3.33301 1.33105 6.16602 3.99805 8.49902s5.66699 3.5 9 3.5c2.66699 0 5.33398 -1.16699 8.00098 -3.5s4 -5.16602 4 -8.49902s-1.16699 -6.33301 -3.5 -9s-5.16602 -4 -8.49902 -4c-8.66699 0 -13 4.33301 -13 13z
M306.996 740l-109 -141l-8 5l110 142z" />
    <glyph glyph-name="afii10017.var.accented" unicode="&#x410;`" horiz-adv-x="685" 
d="M30 0l311 708h3l311 -708h-11l-122 277h-360l-121 -277h-11zM342 688l-176 -401h352zM479 832l-154 -90l-5 7l155 91z" />
    <glyph glyph-name="afii10022.var.accented" unicode="&#x415;`" horiz-adv-x="575" 
d="M120 0v700h375v-10h-365v-328h335v-10h-335v-342h375v-10h-385zM409 832l-154 -90l-5 7l155 91z" />
    <glyph glyph-name="afii10026.var.accented" unicode="&#x418;`" horiz-adv-x="800" 
d="M130 0h-10v700h10v-685l540 685h10v-700h-10v685zM499 832l-154 -90l-5 7l155 91z" />
    <glyph glyph-name="afii10032.var.accented" unicode="&#x41e;`" horiz-adv-x="804" 
d="M60 350c0 101.333 32.833 186.333 98.5 255s146.834 103 243.501 103s177.834 -34.333 243.501 -103s98.5 -153.667 98.5 -255s-32.833 -186.333 -98.5 -255s-146.834 -103 -243.501 -103s-177.834 34.333 -243.501 103s-98.5 153.667 -98.5 255zM70 350
c0 -98.667 31.833 -181.334 95.5 -248.001s142.5 -100 236.5 -100s172.833 33.333 236.5 100s95.5 149.334 95.5 248.001s-31.833 181.334 -95.5 248.001s-142.5 100 -236.5 100s-172.833 -33.333 -236.5 -100s-95.5 -149.334 -95.5 -248.001zM509 832l-154 -90l-5 7l155 91
z" />
    <glyph glyph-name="afii10037.var.accented" unicode="&#x423;`" horiz-adv-x="631" 
d="M611 700l-248.001 -546c-24.667 -55.333 -47.667 -94.833 -69 -118.5s-46 -35.5 -74 -35.5c-27.333 -0 -49 6.33301 -65 19l4 9c18.667 -12.667 38.667 -19 60 -19c42.667 0 82.334 38 119.001 114l15 31l-333 546h11l327 -536l242 536h11zM448.999 832l-154 -90l-5 7
l155 91z" />
    <glyph glyph-name="afii10045.var.accented" unicode="&#x42b;`" horiz-adv-x="805" 
d="M675 0v700h10v-700h-10zM257 395c-44 0 -86.334 -2 -127.001 -6v-379c10.667 0 29.167 -0.333008 55.5 -1s48.5 -1 66.5 -1c82.667 0 145.834 17.167 189.501 51.5s65.5 84.5 65.5 150.5c0 58.667 -21.167 104.167 -63.5 136.5s-104.5 48.5 -186.5 48.5zM129.999 700
v-301c50.667 4 92.334 6 125.001 6c87.333 0 152.833 -17.167 196.5 -51.5s65.5 -82.5 65.5 -144.5c0 -70 -23.5 -122.667 -70.5 -158s-112.167 -53 -195.5 -53c-17.333 0 -40.333 0.333008 -69 1s-49.334 1 -62.001 1v700h10zM498.999 832l-154 -90l-5 7l155 91z" />
    <glyph glyph-name="afii10047.var.accented" unicode="&#x42d;`" horiz-adv-x="684" 
d="M206 352l0.000976562 10h408c-2 102.667 -33.5 184.334 -94.5 245.001s-142.5 91 -244.5 91c-82 0 -149.333 -20.667 -202 -62l-6 7c50 43.333 119.333 65 208 65c107.333 0 192.333 -31.833 255 -95.5s94 -149.834 94 -258.501c0 -102.667 -31.667 -188.667 -95 -258
s-146 -104 -248 -104c-86 0 -163 24.333 -231 73l7 7c67.333 -46.667 141.666 -70 222.999 -70c100 0 180.5 33.5 241.5 100.5s91.833 150.167 92.5 249.5h-408zM409.001 832l-154 -90l-5 7l155 91z" />
    <glyph glyph-name="afii10048.var.accented" unicode="&#x42e;`" horiz-adv-x="1072" 
d="M120 0v700h10v-338h218c3.33301 99.333 36 181.833 98 247.5s140 98.5 234 98.5c96 0 175.333 -34.167 238 -102.5s94 -153.5 94 -255.5s-31.333 -187.167 -94 -255.5s-142 -102.5 -238 -102.5s-175.333 34.167 -238 102.5s-94 153.5 -94 255.5v2h-218v-352h-10zM358 350
c0 -99.333 30.333 -182.166 91 -248.499s137.667 -99.5 231 -99.5s170.333 33.167 231 99.5s91 149.166 91 248.499s-30.333 182.166 -91 248.499s-137.667 99.5 -231 99.5s-170.333 -33.167 -231 -99.5s-91 -149.166 -91 -248.499zM659 832l-154 -90l-5 7l155 91z" />
    <glyph glyph-name="afii10049.var.accented" unicode="&#x42f;`" horiz-adv-x="603" 
d="M473 0l-0.000976562 294.999h-192l-227 -295h-14l230 296c-46 8 -86.5 30.333 -121.5 67s-52.5 79.334 -52.5 128.001c0 62.667 21.333 113.5 64 152.5s103.334 58.5 182.001 58.5c17.333 0 42 -0.333008 74 -1s54.333 -1 67 -1v-700h-10zM275.999 304.999h197.001v385
c-10.667 0 -30.834 0.333008 -60.501 1s-53.5 1 -71.5 1c-78 0 -136.667 -19 -176 -57s-59 -86.333 -59 -145c0 -46 17.167 -86.667 51.5 -122s73.833 -56.333 118.5 -63zM479 831.999l-154 -90l-5 7l155 91z" />
    <glyph glyph-name="afii10023.var.accented" unicode="&#x401;`" horiz-adv-x="575" 
d="M178 790c0 3.33301 1.33301 6.16797 4 8.50098s5.66699 3.5 9 3.5s6.16602 -1.33301 8.49902 -4s3.5 -5.33398 3.5 -8.00098c0 -3.33301 -1.16699 -6.33301 -3.5 -9s-5.16602 -4 -8.49902 -4c-8.66699 0 -13 4.33301 -13 13zM412 790.002
c0 3.33301 1.33301 6.16797 4 8.50098s5.66699 3.5 9 3.5s6.16602 -1.33301 8.49902 -4s3.5 -5.33398 3.5 -8.00098c0 -3.33301 -1.16699 -6.33301 -3.5 -9s-5.16602 -4 -8.49902 -4c-8.66699 0 -13 4.33301 -13 13zM409 832.004l-154 -90l-5 7l155 91zM120 0.00390625v700
h375v-10h-365v-328h335v-10h-335v-342h375v-10h-385z" />
    <glyph glyph-name="afii10065.var.accented" unicode="&#x430;`" horiz-adv-x="456" 
d="M89 409l-4.99805 8c44 27.333 88.667 41 134 41c57.333 0 98 -14.667 122 -44s36 -73.333 36 -132v-282h-10v85c-42.667 -59.333 -101.334 -89 -176.001 -89c-42.667 0 -76.667 11.5 -102 34.5s-38 53.167 -38 90.5c0 43.333 15.833 76.666 47.5 99.999
s72.834 35 123.501 35c59.333 0 107.666 -13.333 144.999 -40c0 24.667 -0.166992 43.834 -0.5 57.501s-1.5 30 -3.5 49s-5 33.667 -9 44s-9.5 21.5 -16.5 33.5s-15.833 21 -26.5 27s-23.834 11 -39.501 15s-33.834 6 -54.501 6c-41.333 0 -83.666 -13 -126.999 -39z
M189.002 6c44.667 0 80.335 8.83301 107.002 26.5s50 40.5 70 68.5v102c-40.667 28.667 -89.667 43 -147 43c-42.667 0 -79.834 -10.5 -111.501 -31.5s-47.5 -51.833 -47.5 -92.5c0 -36 12.167 -64.333 36.5 -85s55.166 -31 92.499 -31zM327.003 700l-109 -141l-8 5l110 142
z" />
    <glyph glyph-name="afii10070.var.accented" unicode="&#x435;`" horiz-adv-x="529" 
d="M446 69l6 -6c-18.667 -22.667 -42.667 -40.167 -72 -52.5s-59.666 -18.5 -90.999 -18.5c-68.667 0 -124.834 21.333 -168.501 64s-65.5 99 -65.5 169c0 68.667 18.833 124.667 56.5 168s92.167 65 163.5 65c58.667 0 106.5 -18.333 143.5 -55s55.5 -85 55.5 -145
c0 -2.66699 -0.166992 -6.5 -0.5 -11.5s-0.5 -8.83301 -0.5 -11.5h-408c0 -71.333 20.167 -128 60.5 -170s94.833 -63 163.5 -63c31.333 0 61 6.16699 89 18.5s50.667 28.5 68 48.5zM271 448c-62 0 -111.001 -18.833 -147.001 -56.5s-55.667 -86.5 -59 -146.5h399
c0.666992 62 -16.666 111.333 -51.999 148s-82.333 55 -141 55zM361.999 700l-109 -141l-8 5l110 142z" />
    <glyph glyph-name="afii10074.var.accented" unicode="&#x438;`" horiz-adv-x="560" 
d="M100 0h-10v450h10v-435l360 435h10v-450h-10v435zM367 700l-109 -141l-8 5l110 142z" />
    <glyph glyph-name="afii10080.var.accented" unicode="&#x43e;`" horiz-adv-x="570" 
d="M55 225c0 67.333 21.667 123 65 167s98.333 66 165 66s121.667 -22 165 -66s65 -99.667 65 -167s-21.667 -123 -65 -167s-98.333 -66 -165 -66s-121.667 22 -165 66s-65 99.667 -65 167zM65 225c0 -65.333 20.5 -118.833 61.5 -160.5s93.833 -62.5 158.5 -62.5
s117.5 20.833 158.5 62.5s61.5 95.167 61.5 160.5s-20.5 118.833 -61.5 160.5s-93.833 62.5 -158.5 62.5s-117.5 -20.833 -158.5 -62.5s-61.5 -95.167 -61.5 -160.5zM372 700l-109 -141l-8 5l110 142z" />
    <glyph glyph-name="afii10085.var.accented" unicode="&#x443;`" horiz-adv-x="466" 
d="M446 450l-185 -450c-32 -77.333 -60 -130 -84 -158s-51.333 -42 -82 -42c-19.333 0 -40.666 5 -63.999 15l4 9c23.333 -10 42.666 -15 57.999 -15c28 0 53.5 12.833 76.5 38.5s46.833 68.5 71.5 128.5l10 24l-231 450h11l187 -366l38 -74l31 76l148 364h11zM347 700
l-109 -141l-8 5l110 142z" />
    <glyph glyph-name="afii10093.var.accented" unicode="&#x44b;`" horiz-adv-x="590" 
d="M90 0v450h10v-175h84c64.667 0 110.5 -12 137.5 -36s40.5 -58 40.5 -102c0 -91.333 -60.333 -137 -181 -137h-91zM184 265h-84v-255h83c60.667 0 104 11 130 33s39 53.667 39 95c0 84.667 -56 127 -168 127zM490 0v450h10v-450h-10zM377 700l-109 -141l-8 5l110 142z" />
    <glyph glyph-name="afii10095.var.accented" unicode="&#x44d;`" horiz-adv-x="492" 
d="M166 225l0.000976562 9.99902h261c-2.66699 64.667 -24.667 116.334 -66 155.001s-94 58 -158 58c-31.333 0 -61 -6.16699 -89 -18.5s-50.667 -28.5 -68 -48.5l-6 6c18.667 22.667 42.667 40.167 72 52.5s59.666 18.5 90.999 18.5c68.667 0 124.834 -21.333 168.501 -64
s65.5 -99 65.5 -169c0 -65.333 -21 -120.5 -63 -165.5s-93.667 -67.5 -155 -67.5c-74.667 0 -131.334 17.667 -170.001 53l6 9c39.333 -34.667 93.333 -52 162 -52c58 0 107.5 21.5 148.5 64.5s61.5 95.833 61.5 158.5h-261zM310.001 699.999l-109 -141l-8 5l110 142z" />
    <glyph glyph-name="afii10096.var.accented" unicode="&#x44e;`" horiz-adv-x="735" 
d="M90 0v450h10v-215h140c2 65.333 23.5 118.833 64.5 160.5s92.833 62.5 155.5 62.5c64 0 116.667 -21.833 158 -65.5s62 -99.5 62 -167.5s-20.667 -123.833 -62 -167.5s-94 -65.5 -158 -65.5s-116.667 21.833 -158 65.5s-62 99.5 -62 167.5h-140v-225h-10zM250 225
c0 -65.333 19.5 -118.833 58.5 -160.5s89.5 -62.5 151.5 -62.5s112.5 20.833 151.5 62.5s58.5 95.167 58.5 160.5s-19.5 118.833 -58.5 160.5s-89.5 62.5 -151.5 62.5s-112.5 -20.833 -151.5 -62.5s-58.5 -95.167 -58.5 -160.5zM457 700l-109 -141l-8 5l110 142z" />
    <glyph glyph-name="afii10097.var.accented" unicode="&#x44f;`" horiz-adv-x="471" 
d="M256 450h124.999v-450h-10v195h-149l-158 -195h-14l159 195c-33.333 3.33301 -62.333 16.333 -87 39s-37 51 -37 85c0 39.333 13.333 71 40 95s70.334 36 131.001 36zM94.999 320c0 -33.333 13.001 -60.833 39.001 -82.5s52.333 -32.5 79 -32.5h158v235h-117
c-54.667 0 -94.834 -11 -120.501 -33s-38.5 -51 -38.5 -87zM377 700l-109 -141l-8 5l110 142z" />
    <glyph glyph-name="afii10071.var.accented" unicode="&#x451;`" horiz-adv-x="529" 
d="M146 631c0 3.33301 1.33301 6.16602 4 8.49902s5.66699 3.5 9 3.5s6.16602 -1.16699 8.49902 -3.5s3.5 -5.16602 3.5 -8.49902s-1.16699 -6.33301 -3.5 -9s-5.16602 -4 -8.49902 -4c-8.66699 0 -13 4.33301 -13 13zM360 631c0 3.33301 1.33301 6.16602 4 8.49902
s5.66699 3.5 9 3.5s6.16602 -1.16699 8.49902 -3.5s3.5 -5.16602 3.5 -8.49902s-1.16699 -6.33301 -3.5 -9s-5.16602 -4 -8.49902 -4c-8.66699 0 -13 4.33301 -13 13zM332 700l-109 -141l-8 5l110 142zM446 69l6 -6c-18.667 -22.667 -42.667 -40.167 -72 -52.5
s-59.666 -18.5 -90.999 -18.5c-68.667 0 -124.834 21.333 -168.501 64s-65.5 99 -65.5 169c0 68.667 18.833 124.667 56.5 168s92.167 65 163.5 65c58.667 0 106.5 -18.333 143.5 -55s55.5 -85 55.5 -145c0 -2.66699 -0.166992 -6.5 -0.5 -11.5s-0.5 -8.83301 -0.5 -11.5
h-408c0 -71.333 20.167 -128 60.5 -170s94.833 -63 163.5 -63c31.333 0 61 6.16699 89 18.5s50.667 28.5 68 48.5zM271 448c-62 0 -111.001 -18.833 -147.001 -56.5s-55.667 -86.5 -59 -146.5h399c0.666992 62 -16.666 111.333 -51.999 148s-82.333 55 -141 55z" />
    <glyph glyph-name="fi" unicode="fi" horiz-adv-x="481" 
d="M369 0v440h-249v-440h-10v523c0 61.333 14 107.5 42 138.5s67.667 46.5 119 46.5c43.333 0 80 -11.667 110 -35l-6 -9c-31.333 22.667 -66 34 -104 34c-100.667 0 -151 -61.333 -151 -184v-64h259v-450h-10z" />
    <glyph glyph-name="fl" unicode="fl" horiz-adv-x="544" 
d="M363 111l-0.000976562 553.999c-30 22 -64 33 -102 33c-47.333 0 -82.666 -14.667 -105.999 -44s-35 -76 -35 -140v-64h145v-10h-145v-440h-10v523c0 123.333 50.333 185 151 185c43.333 0 80 -11.667 110 -35h2v-547c0 -41.333 6 -71.5 18 -90.5s33 -28.5 63 -28.5
c28 0 52.667 8 74 24l6 -9c-23.333 -16.667 -50 -25 -80 -25c-32 0 -55.167 9.33301 -69.5 28s-21.5 47.334 -21.5 86.001z" />
    <glyph glyph-name=".notdef" horiz-adv-x="250" 
 />
    <glyph glyph-name="space" unicode=" " horiz-adv-x="250" 
 />
    <glyph glyph-name="exclam" unicode="!" horiz-adv-x="310" 
d="M150 160v540h10v-540h-10zM142 13c0 3.33301 1.33301 6.16602 4 8.49902s5.66699 3.5 9 3.5s6.16602 -1.16699 8.49902 -3.5s3.5 -5.16602 3.5 -8.49902s-1.16699 -6.33301 -3.5 -9s-5.16602 -4 -8.49902 -4c-8.66699 -0 -13 4.33301 -13 13z" />
    <glyph glyph-name="quotedbl" unicode="&#x22;" horiz-adv-x="380" 
d="M250 515v185h10v-185h-10zM120 515v185h10v-185h-10z" />
    <glyph glyph-name="numbersign" unicode="#" horiz-adv-x="664" 
d="M325 -4l85 229h-249l-86 -233l-10 4l85 229h-110v10h113l86 230h-199v10h203l87 233l9 -3l-85 -230h249l87 233l9 -3l-85 -230h110v-10h-114l-85 -230h199v-10h-203l-86 -233zM250 465l-85 -230h248l86 230h-249z" />
    <glyph glyph-name="dollar" unicode="$" horiz-adv-x="584" 
d="M493 167c0 43.333 -13.5029 78.667 -40.5029 106s-59.667 48 -98 62l-115 41.5c-38.333 13.667 -71 34.167 -98 61.5s-40.5 62.666 -40.5 105.999c0 48 17 87.167 51 117.5s81.333 45.833 142 46.5v82h10v-82c34.667 -0.666992 67.834 -7.33398 99.501 -20.001
s56.5 -29 74.5 -49l-7 -7c-42 44 -101 66 -177 66c-55.333 0 -99.666 -14 -132.999 -42s-50 -65 -50 -111c0 -31.333 7.16699 -58.166 21.5 -80.499s33 -39.833 56 -52.5s48.5 -24 76.5 -34l84 -31c28 -10.667 53.5 -22.834 76.5 -36.501s41.667 -32.667 56 -57
s21.5 -53.166 21.5 -86.499c0 -50 -18.833 -90.667 -56.5 -122s-85.167 -48.666 -142.5 -51.999v-93h-10v92h-7c-40 0 -79.833 9 -119.5 27s-68.167 41 -85.5 69l8 7c20.667 -28 49.334 -50.5 86.001 -67.5s73 -25.5 109 -25.5c56.667 0 105.5 14.5 146.5 43.5
s61.5 69.5 61.5 121.5z" />
    <glyph glyph-name="percent" unicode="%" horiz-adv-x="809" 
d="M139 -1l531 709l8 -5l-531 -711zM60 548c0 44 14.833 80.333 44.5 109s66.5 43 110.5 43s80.833 -14.333 110.5 -43s44.5 -65 44.5 -109s-14.833 -80.333 -44.5 -109s-66.5 -43 -110.5 -43s-80.833 14.333 -110.5 43s-44.5 65 -44.5 109zM70 548
c0 -40.667 14.667 -74.5 44 -101.5s63 -40.5 101 -40.5c39.333 0 73.333 13.333 102 40s43 60.667 43 102s-14.5 75.333 -43.5 102s-62.833 40 -101.5 40s-72.5 -13.333 -101.5 -40s-43.5 -60.667 -43.5 -102zM439 152c0 44 14.833 80.333 44.5 109s66.5 43 110.5 43
s80.833 -14.333 110.5 -43s44.5 -65 44.5 -109s-14.833 -80.333 -44.5 -109s-66.5 -43 -110.5 -43s-80.833 14.333 -110.5 43s-44.5 65 -44.5 109zM449 152c0 -40.667 14.667 -74.5 44 -101.5s63 -40.5 101 -40.5c39.333 0 73.333 13.333 102 40s43 60.667 43 102
s-14.5 75.333 -43.5 102s-62.833 40 -101.5 40s-72.5 -13.333 -101.5 -40s-43.5 -60.667 -43.5 -102z" />
    <glyph glyph-name="ampersand" unicode="&#x26;" horiz-adv-x="726" 
d="M633 0l-102 129.002c-59.333 -91.333 -137.333 -137 -234 -137c-58 0 -107 18.667 -147 56s-60 84.666 -60 141.999c0 91.333 62.333 177.666 187 258.999c-33.333 3.33301 -61 17.166 -83 41.499s-33 53.5 -33 87.5c0 36 12.667 66.667 38 92s56 38 92 38
s66.667 -12.667 92 -38s38 -56 38 -92s-12.667 -66.667 -38 -92s-56 -38 -92 -38l239 -302c52 86.667 78 188 78 304h10c0 -121.333 -27 -225.666 -81 -312.999l109 -137h-13zM296 2.00195c94.667 0 170.667 45.001 228 135.001l-242 305
c-121.333 -82.667 -182 -166.334 -182 -251.001c0 -56 19.5 -101.5 58.5 -136.5s84.833 -52.5 137.5 -52.5zM171 578.003c0 -33.333 11.833 -61.666 35.5 -84.999s51.834 -35 84.501 -35s60.834 11.667 84.501 35s35.5 51.666 35.5 84.999s-11.833 61.666 -35.5 84.999
s-51.834 35 -84.501 35s-60.834 -11.667 -84.501 -35s-35.5 -51.666 -35.5 -84.999z" />
    <glyph glyph-name="quotesingle" unicode="'" horiz-adv-x="250" 
d="M120 515v185h10v-185h-10z" />
    <glyph glyph-name="parenleft" unicode="(" horiz-adv-x="250" 
d="M250 -200l-8 -6c-134.667 116 -202 259.667 -202 431c0 165.333 67.667 309 203 431l7 -6c-133.333 -122 -200 -263.667 -200 -425c0 -169.333 66.667 -311 200 -425z" />
    <glyph glyph-name="parenright" unicode=")" horiz-adv-x="250" 
d="M8 -206l-8 6c133.333 114 200 255.667 200 425c0 161.333 -66.667 303 -200 425l7 6c135.333 -122 203 -265.667 203 -431c0 -171.333 -67.333 -315 -202 -431z" />
    <glyph glyph-name="asterisk" unicode="*" horiz-adv-x="432" 
d="M206 695c0 8.66699 4.33301 13 13 13s13 -4.33301 13 -13c0 -8 -4.33301 -12 -13 -12s-13 4 -13 12zM205 462c0 8.66699 4.33301 13 13 13c8 0 12 -4.33301 12 -13c0 -8 -4 -12 -12 -12c-8.66699 0 -13 4 -13 12zM305 637c0 8.66699 4 13 12 13
c8.66699 0 13 -4.33301 13 -13s-4.33301 -13 -13 -13c-8 0 -12 4.33301 -12 13zM305 528c0 8.66699 4 13 12 13c8.66699 0 13 -4.33301 13 -13c0 -8 -4.33301 -12 -13 -12c-8 0 -12 4 -12 12zM102 528c0 8.66699 4.33301 13 13 13c8 0 12 -4.33301 12 -13
c0 -8 -4 -12 -12 -12c-8.66699 0 -13 4 -13 12zM102 637c0 8.66699 4.33301 13 13 13c8 0 12 -4.33301 12 -13s-4 -13 -12 -13c-8.66699 0 -13 4.33301 -13 13z" />
    <glyph glyph-name="plus" unicode="+" horiz-adv-x="584" 
d="M75 355v10h211v211h10v-211h213v-10h-213v-213h-10v213h-211z" />
    <glyph glyph-name="comma" unicode="," horiz-adv-x="166" 
d="M69 12c0 8.66699 5.33398 12.999 16.001 12.999c10 0 19.333 -6.16699 28 -18.5s13 -28.833 13 -49.5c0 -26.667 -7.83301 -49.5 -23.5 -68.5s-33.834 -31.167 -54.501 -36.5l-3 8c17.333 4.66699 33.5 15.667 48.5 33s22.5 38 22.5 62
c0 28.667 -7.66699 47.334 -23 56.001c-1.33301 -7.33301 -5.33301 -11 -12 -11c-8 0 -12 4 -12 12z" />
    <glyph glyph-name="hyphen" unicode="-" horiz-adv-x="414" 
d="M100 265v10h214v-10h-214z" />
    <glyph glyph-name="period" unicode="." horiz-adv-x="145" 
d="M60 13c0 3.33301 1.33301 6.16602 4 8.49902s5.66699 3.5 9 3.5s6.16602 -1.16699 8.49902 -3.5s3.5 -5.16602 3.5 -8.49902s-1.16699 -6.33301 -3.5 -9s-5.16602 -4 -8.49902 -4c-8.66699 -0 -13 4.33301 -13 13z" />
    <glyph glyph-name="slash" unicode="/" horiz-adv-x="289" 
d="M-30 -204l340 912l9 -3l-339 -913z" />
    <glyph glyph-name="zero" unicode="0" horiz-adv-x="584" 
d="M80 350c0 108.667 17.167 195.501 51.5 260.501s87.833 97.5 160.5 97.5s126.167 -32.5 160.5 -97.5s51.5 -151.833 51.5 -260.5c0 -70.667 -6.66699 -131.834 -20 -183.501s-36 -93.667 -68 -126s-72.667 -48.5 -122 -48.5c-72.667 0 -126.5 32.5 -161.5 97.5
s-52.5 151.833 -52.5 260.5zM90 350.001c0 -106 16.5 -190.501 49.5 -253.501s84.5 -94.5 154.5 -94.5s120.833 31.333 152.5 94s47.5 147.334 47.5 254.001s-16.167 191.334 -48.5 254.001s-83.5 94 -153.5 94s-121.167 -31.333 -153.5 -94s-48.5 -147.334 -48.5 -254.001z
" />
    <glyph glyph-name="one" unicode="1" horiz-adv-x="361" 
d="M60 587l146 121h5v-708h-10v691l-134 -111z" />
    <glyph glyph-name="two" unicode="2" horiz-adv-x="532" 
d="M60 0v10.001l82.5 82.5c23 23.667 53.333 57.334 91 101.001s68.5 83.167 92.5 118.5s45.333 74.166 64 116.499s28 80.166 28 113.499c0 41.333 -14.333 77.666 -43 108.999s-69 47 -121 47c-40 0 -77.167 -12.333 -111.5 -37s-54.833 -62 -61.5 -112h-10
c5.33301 50.667 26.333 89.834 63 117.501s75.667 41.5 117 41.5c58 0 102 -16.667 132 -50s45 -71.333 45 -114c0 -128 -118 -306 -354 -534h388v-10h-402z" />
    <glyph glyph-name="three" unicode="3" horiz-adv-x="535" 
d="M253 -8c-42.667 0 -81.334 9.83301 -116.001 29.5s-60.334 51.167 -77.001 94.5l9 4c16.667 -41.333 42.167 -71.333 76.5 -90s71.5 -28 111.5 -28c56 0 101.333 17.333 136 52s52 79 52 133c0 48 -16.167 87.667 -48.5 119s-71.5 47 -117.5 47h-67v10h60
c36.667 0 70.167 17 100.5 51s45.5 74.667 45.5 122c0 52.667 -15 92.834 -45 120.501s-69.667 41.5 -119 41.5c-84 0 -139.333 -37 -166 -111l-9 2c10.667 36.667 31.834 65.667 63.501 87s68.5 32 110.5 32c55.333 0 98.333 -15.333 129 -46s46 -73.667 46 -129
c0 -35.333 -10.167 -69.333 -30.5 -102s-48.166 -55.667 -83.499 -69v-3c42 -5.33301 76 -24.833 102 -58.5s39 -71.5 39 -113.5c0 -58.667 -19 -105.834 -57 -141.501s-86.333 -53.5 -145 -53.5z" />
    <glyph glyph-name="four" unicode="4" horiz-adv-x="520" 
d="M358 0v200h-328v2l330 498h12l-325 -490h311v240h10v-240h112v-10h-112v-200h-10z" />
    <glyph glyph-name="five" unicode="5" horiz-adv-x="521" 
d="M135 388l40.001 312h286v-10h-278l-37 -288c29.333 9.33301 58.666 14 87.999 14c66 0 119.5 -19 160.5 -57s61.5 -87.667 61.5 -149c0 -64.667 -19.833 -117.167 -59.5 -157.5s-86.5 -60.5 -140.5 -60.5c-90.667 0 -156 39.333 -196 118l9 4
c19.333 -37.333 46.166 -65.333 80.499 -84s69.833 -28 106.5 -28c53.333 0 98.333 19.833 135 59.5s55 89.167 55 148.5c0 56 -19.667 102.667 -59 140s-90 56 -152 56c-33.333 0 -66.666 -6 -99.999 -18z" />
    <glyph glyph-name="six" unicode="6" horiz-adv-x="544" 
d="M60 248c0 62 9.83398 120.501 29.501 175.501s45.5 101.667 77.5 140s67.5 70 106.5 95s78.5 41.5 118.5 49.5l5 -8c-37.333 -8 -73.833 -22.667 -109.5 -44s-69 -49 -100 -83s-57 -76.5 -78 -127.5s-34.167 -106.5 -39.5 -166.5c14 41.333 39.167 76.166 75.5 104.499
s80.166 42.5 131.499 42.5c64 0 114.5 -20 151.5 -60s55.5 -92.333 55.5 -157c0 -59.333 -19.667 -110.333 -59 -153s-85 -64 -137 -64c-74 0 -130.5 24.5 -169.5 73.5s-58.5 109.833 -58.5 182.5zM70.001 249.001c0 -67.333 18.6699 -125.333 56.0029 -174
s90.666 -73 159.999 -73c50.667 0 94.667 20.167 132 60.5s56 88.833 56 145.5c0 60 -17.333 109.667 -52 149s-83.334 59 -146.001 59c-55.333 0 -101.333 -17.333 -138 -52s-59.334 -73 -68.001 -115z" />
    <glyph glyph-name="seven" unicode="7" horiz-adv-x="460" 
d="M40 690v10h380v-2l-279 -698h-12l276 690h-365z" />
    <glyph glyph-name="eight" unicode="8" horiz-adv-x="585" 
d="M273 365h39.001c38 0 73.5 16 106.5 48s49.5 71 49.5 117c0 51.333 -17.833 92.166 -53.5 122.499s-76.834 45.5 -123.501 45.5c-46 0 -86.5 -15.167 -121.5 -45.5s-52.5 -71.166 -52.5 -122.499c0 -46 16.5 -85 49.5 -117s68.5 -48 106.5 -48zM310.001 355
l-32 -0.000976562c-51.333 0 -95.5 -17 -132.5 -51s-55.5 -75 -55.5 -123c0 -51.333 20.167 -94 60.5 -128s87.5 -51 141.5 -51c54.667 0 102.167 16.333 142.5 49s60.5 76 60.5 130c0 52.667 -18 94.834 -54 126.501s-79.667 47.5 -131 47.5zM293.001 -8.00098
c-56.667 0 -106.333 17.332 -149 51.999s-64 80.334 -64 137.001c0 41.333 14.167 79 42.5 113s66.5 55.333 114.5 64v3c-36.667 8.66699 -67.5 29.667 -92.5 63s-37.5 67.666 -37.5 102.999c0 54 17.833 97.667 53.5 131s79.5 50 131.5 50s96 -16.833 132 -50.5
s54 -77.167 54 -130.5c0 -35.333 -11.667 -68.666 -35 -99.999s-55 -53 -95 -65v-3c46 -4.66699 83.667 -23.667 113 -57s44 -73.666 44 -120.999c0 -56.667 -21.167 -102.334 -63.5 -137.001s-91.833 -52 -148.5 -52z" />
    <glyph glyph-name="nine" unicode="9" horiz-adv-x="544" 
d="M484 452c0 -126 -31 -230.499 -93 -313.499s-141.667 -131.833 -239 -146.5l-5 8c92 15.333 168 60.166 228 134.499s93 169.833 99 286.5c-13.333 -40.667 -38.166 -73.667 -74.499 -99s-80.5 -38 -132.5 -38c-62.667 0 -112.834 20.667 -150.501 62
s-56.5 91.333 -56.5 150s21 108.667 63 150s89.667 62 143 62c73.333 0 128 -24.167 164 -72.5s54 -109.5 54 -183.5zM474 451.001c0 68.667 -17.168 126.999 -51.501 174.999s-85.833 72 -154.5 72c-51.333 0 -97.166 -19.667 -137.499 -59s-60.5 -86.666 -60.5 -141.999
s17.5 -103 52.5 -143s83.5 -60 145.5 -60c56 0 102.167 15.833 138.5 47.5s58.833 68.167 67.5 109.5z" />
    <glyph glyph-name="colon" unicode=":" horiz-adv-x="325" 
d="M150 446c0 3.33301 1.33301 6.16797 4 8.50098s5.66699 3.5 9 3.5s6.16602 -1.33301 8.49902 -4s3.5 -5.33398 3.5 -8.00098c0 -3.33301 -1.16699 -6.33301 -3.5 -9s-5.16602 -4 -8.49902 -4c-8.66699 0 -13 4.33301 -13 13zM150 13.002
c0 3.33301 1.33301 6.16602 4 8.49902s5.66699 3.5 9 3.5s6.16602 -1.16699 8.49902 -3.5s3.5 -5.16602 3.5 -8.49902s-1.16699 -6.33301 -3.5 -9s-5.16602 -4 -8.49902 -4c-8.66699 0 -13 4.33301 -13 13z" />
    <glyph glyph-name="semicolon" unicode=";" horiz-adv-x="326" 
d="M150 446c0 3.33301 1.33301 6.16797 4 8.50098s5.66699 3.5 9 3.5s6.16602 -1.33301 8.49902 -4s3.5 -5.33398 3.5 -8.00098c0 -3.33301 -1.16699 -6.33301 -3.5 -9s-5.16602 -4 -8.49902 -4c-8.66699 0 -13 4.33301 -13 13zM149 12.002
c0 8.66699 5.33398 12.999 16.001 12.999c10 0 19.333 -6.16699 28 -18.5s13 -28.833 13 -49.5c0 -26.667 -7.83301 -49.5 -23.5 -68.5s-33.834 -31.167 -54.501 -36.5l-3 8c17.333 4.66699 33.5 15.667 48.5 33s22.5 38 22.5 62c0 28.667 -7.66699 47.334 -23 56.001
c-1.33301 -7.33301 -5.33301 -11 -12 -11c-8 0 -12 4 -12 12z" />
    <glyph glyph-name="less" unicode="&#x3c;" horiz-adv-x="584" 
d="M464 104l-389 256v4l389 254v-12l-374 -244l374 -246v-12z" />
    <glyph glyph-name="equal" unicode="=" horiz-adv-x="584" 
d="M75 435v10h434v-10h-434zM75 275v10h434v-10h-434z" />
    <glyph glyph-name="greater" unicode="&#x3e;" horiz-adv-x="584" 
d="M509 360l-389 -256v12l374 246l-374 244v12l389 -254v-4z" />
    <glyph glyph-name="question" unicode="?" horiz-adv-x="451" 
d="M401 540c0 46 -16.667 83.833 -50 113.5s-76 44.5 -128 44.5c-34 0 -66.333 -8.16699 -97 -24.5s-56.667 -39.166 -78 -68.499l-8 4c18 29.333 43.833 53.166 77.5 71.499s69.5 27.5 107.5 27.5c58 0 103.5 -16 136.5 -48s49.5 -71.667 49.5 -119
c0 -28.667 -5.33301 -54.5 -16 -77.5s-24 -41.167 -40 -54.5s-33.333 -27 -52 -41l-52 -38.5c-16 -11.667 -29.333 -27 -40 -46s-16 -40.5 -16 -64.5c0 -11.333 1.66699 -26 5 -44l-9 -3c-4 18 -6 34 -6 48c0 24 5.33301 45.833 16 65.5s24 35.5 40 47.5l52 39.5l52 41.5
c16 13.333 29.333 30.833 40 52.5s16 46.167 16 73.5zM178 13c0 3.33301 1.33301 6.16602 4 8.49902s5.66699 3.5 9 3.5s6.16602 -1.16699 8.49902 -3.5s3.5 -5.16602 3.5 -8.49902s-1.16699 -6.33301 -3.5 -9s-5.16602 -4 -8.49902 -4c-8.66699 -0 -13 4.33301 -13 13z" />
    <glyph glyph-name="at" unicode="@" horiz-adv-x="1026" 
d="M689 0l0.00195312 74.999c-18.667 -23.333 -43.834 -43 -75.501 -59s-63.834 -24 -96.501 -24c-68 0 -122.5 21.167 -163.5 63.5s-61.5 98.833 -61.5 169.5c0 65.333 23.333 120.5 70 165.5s104.334 67.5 173.001 67.5c62 0 116.667 -15.333 164 -46v-402h22
c66 0 118.333 25.333 157 76s58 110 58 178c0 112 -39.333 204 -118 276s-177 108 -295 108c-124.667 0 -228 -41 -310 -123s-123 -182 -123 -300s41 -218 123 -300s185.333 -123 310 -123c38 0 74 4 108 12l5 -9c-38.667 -8.66699 -76.334 -13 -113.001 -13
c-128 0 -233.833 41.833 -317.5 125.5s-125.5 186.167 -125.5 307.5s41.833 223.833 125.5 307.5s189.5 125.5 317.5 125.5c122 0 223 -36.833 303 -110.5s120 -167.5 120 -281.5c0 -45.333 -7.83301 -87.666 -23.5 -126.999s-41 -72.333 -76 -99s-76.833 -40 -125.5 -40
h-32zM517.002 1.99902c34 0 67.667 9.33203 101 27.999s57 38.334 71 59.001v317c-45.333 28 -97 42 -155 42c-63.333 0 -117.833 -21.5 -163.5 -64.5s-68.5 -95.833 -68.5 -158.5c0 -68 19.5 -122.167 58.5 -162.5s91.167 -60.5 156.5 -60.5z" />
    <glyph glyph-name="A" unicode="A" horiz-adv-x="685" 
d="M30 0l311 708h3l311 -708h-11l-122 277h-360l-121 -277h-11zM342 688l-176 -401h352z" />
    <glyph glyph-name="B" unicode="B" horiz-adv-x="617" 
d="M120 0v700.002c12 0 38.833 0.333008 80.5 1s72.167 1 91.5 1c143.333 0 215 -57.333 215 -172c0 -48 -15.5 -86.667 -46.5 -116s-68.833 -46.333 -113.5 -51v-2c61.333 -4.66699 108.333 -21.834 141 -51.501s49 -69.834 49 -120.501c0 -65.333 -22 -113.5 -66 -144.5
s-102.667 -46.5 -176 -46.5c-20 0 -51 0.333008 -93 1s-69.333 1 -82 1zM294 355.002h-164.001v-345c10.667 0 35.834 -0.333008 75.501 -1s68.5 -1 86.5 -1c74.667 0 132.5 15.167 173.5 45.5s61.5 75.833 61.5 136.5c0 52 -20.167 92.5 -60.5 121.5
s-97.833 43.5 -172.5 43.5zM289.999 692.002c-62.667 0 -116.001 -0.666992 -160.001 -2v-325h172c54.667 0 100.834 15.333 138.501 46s56.5 70.667 56.5 120c0 53.333 -16.5 93.5 -49.5 120.5s-85.5 40.5 -157.5 40.5z" />
    <glyph glyph-name="C" unicode="C" horiz-adv-x="657" 
d="M611 75l6.00195 -7.99902c-24.667 -23.333 -56.334 -41.666 -95.001 -54.999s-78 -20 -118 -20c-102.667 0 -185.667 32.667 -249 98s-95 152 -95 260c0 102 31 187.167 93 255.5s142 102.5 240 102.5c87.333 0 157.666 -21 210.999 -63l-7 -7
c-49.333 40 -117 60 -203 60c-96 0 -174 -33.333 -234 -100s-90 -149.334 -90 -248.001c0 -104.667 30.833 -188.834 92.5 -252.501s142.167 -95.5 241.5 -95.5c81.333 0 150.333 24.333 207 73z" />
    <glyph glyph-name="D" unicode="D" horiz-adv-x="734" 
d="M120 0l-0.00195312 700h10c17.333 0 40.833 0.5 70.5 1.5s56.5 1.5 80.5 1.5c67.333 0 126.833 -9.16699 178.5 -27.5s92.834 -43.666 123.501 -75.999s53.5 -68.333 68.5 -108s22.5 -82.834 22.5 -129.501c0 -106 -34.667 -193.167 -104 -261.5
s-168.333 -102.5 -297 -102.5c-19.333 0 -44.666 0.333008 -75.999 1s-55.333 1 -72 1h-5zM278.998 693c-23.333 0 -49.999 -0.5 -79.999 -1.5s-53 -1.5 -69 -1.5v-680l144 -2c125.333 0 221.666 33.5 288.999 100.5s101 151.5 101 253.5c0 96 -31.667 175.167 -95 237.5
s-160 93.5 -290 93.5z" />
    <glyph glyph-name="E" unicode="E" horiz-adv-x="575" 
d="M120 0v700h375v-10h-365v-328h335v-10h-335v-342h375v-10h-385z" />
    <glyph glyph-name="F" unicode="F" horiz-adv-x="545" 
d="M120 0v700h385v-10h-375v-348h345v-10h-345v-332h-10z" />
    <glyph glyph-name="G" unicode="G" horiz-adv-x="727" 
d="M418 303l0.00195312 10.002h239v-226c-29.333 -29.333 -68.833 -52.5 -118.5 -69.5s-97.5 -25.5 -143.5 -25.5c-98.667 0 -179.167 32.667 -241.5 98s-93.5 152 -93.5 260c0 102 31 187.167 93 255.5s142 102.5 240 102.5c87.333 0 157.666 -21 210.999 -63l-7 -7
c-49.333 40 -117 60 -203 60c-96 0 -174 -33.333 -234 -100s-90 -149.334 -90 -248.001c0 -104.667 30.167 -188.834 90.5 -252.501s139.166 -95.5 236.499 -95.5c46 0 92.167 8 138.5 24s83.5 37.667 111.5 65v212h-229z" />
    <glyph glyph-name="H" unicode="H" horiz-adv-x="775" 
d="M645 0v352h-515v-352h-10v700h10v-338h515v338h10v-700h-10z" />
    <glyph glyph-name="I" unicode="I" horiz-adv-x="310" 
d="M150 0v700h10v-700h-10z" />
    <glyph glyph-name="J" unicode="J" horiz-adv-x="341" 
d="M221 700l0.000976562 -552.999c0 -50.667 -8.66699 -89.167 -26 -115.5s-49 -39.5 -95 -39.5c-30 0 -56.667 8.33301 -80 25l6 9c21.333 -16 46 -24 74 -24c43.333 0 72.666 12.667 87.999 38s23 60.666 23 105.999v554h10z" />
    <glyph glyph-name="K" unicode="K" horiz-adv-x="614" 
d="M563 700l-361 -335l372 -365h-15l-372 365l362 335h14zM120 0v700h10v-700h-10z" />
    <glyph glyph-name="L" unicode="L" horiz-adv-x="555" 
d="M120 0v700h10v-690h405v-10h-415z" />
    <glyph glyph-name="M" unicode="M" horiz-adv-x="872" 
d="M120 0v700h11l310 -422l300 422h11v-700h-10v686l-300 -423h-3l-309 420v-683h-10z" />
    <glyph glyph-name="N" unicode="N" horiz-adv-x="800" 
d="M680 0h-8l-542 680v-680h-10v700h8l542 -682v682h10v-700z" />
    <glyph glyph-name="O" unicode="O" horiz-adv-x="804" 
d="M60 350c0 101.333 32.833 186.333 98.5 255s146.834 103 243.501 103s177.834 -34.333 243.501 -103s98.5 -153.667 98.5 -255s-32.833 -186.333 -98.5 -255s-146.834 -103 -243.501 -103s-177.834 34.333 -243.501 103s-98.5 153.667 -98.5 255zM70 350
c0 -98.667 31.833 -181.334 95.5 -248.001s142.5 -100 236.5 -100s172.833 33.333 236.5 100s95.5 149.334 95.5 248.001s-31.833 181.334 -95.5 248.001s-142.5 100 -236.5 100s-172.833 -33.333 -236.5 -100s-95.5 -149.334 -95.5 -248.001z" />
    <glyph glyph-name="P" unicode="P" horiz-adv-x="567" 
d="M130 0h-10.001v700c13.333 0 39.333 0.333008 78 1s63.334 1 74.001 1c44.667 0 83 -5.83301 115 -17.5s56.333 -27.5 73 -47.5s28.667 -41.167 36 -63.5s11 -46.833 11 -73.5c0 -57.333 -20 -105.833 -60 -145.5s-101.667 -59.5 -185 -59.5
c-36.667 0 -80.667 1.66699 -132 5v-300zM272.999 692c-51.333 0 -99 -0.666992 -143 -2v-380c51.333 -3.33301 95 -5 131 -5c78 0 136.833 18.333 176.5 55s59.5 83.667 59.5 141c0 56.667 -18 102.667 -54 138s-92.667 53 -170 53z" />
    <glyph glyph-name="Q" unicode="Q" horiz-adv-x="804" 
d="M60 350c0 101.333 32.832 186.333 98.499 255s146.834 103 243.501 103s177.834 -34.333 243.501 -103s98.5 -153.667 98.5 -255c0 -56.667 -11 -109 -33 -157s-52.333 -88.667 -91 -122l60 -71h-15l-53 64c-62 -48 -132 -72 -210 -72
c-96.667 0 -177.834 34.333 -243.501 103s-98.5 153.667 -98.5 255zM69.999 350c0 -98.667 31.833 -181.333 95.5 -248s142.5 -100 236.5 -100c78 0 146 23.333 204 70l-62 76l7 7l63 -76c38 32 67.5 71.333 88.5 118s31.5 97.667 31.5 153
c0 98.667 -31.833 181.334 -95.5 248.001s-142.5 100 -236.5 100s-172.833 -33.333 -236.5 -100s-95.5 -149.334 -95.5 -248.001z" />
    <glyph glyph-name="R" unicode="R" horiz-adv-x="613" 
d="M130 0h-9.99902v700c14.667 0 40 0.333008 76 1s56.667 1 62 1c159.333 0 239 -64 239 -192c0 -45.333 -16.833 -86.333 -50.5 -123s-78.834 -60 -135.501 -70l262 -317h-14l-260 315h-169v-315zM257.001 692c-40.667 0 -83 -0.666992 -127 -2v-365h148
c52.667 0 100.667 18 144 54s65 80 65 132c0 120.667 -76.667 181 -230 181z" />
    <glyph glyph-name="S" unicode="S" horiz-adv-x="541" 
d="M471 167c0 43.333 -13.5049 78.668 -40.5049 106.001s-59.667 48 -98 62l-115 41.5c-38.333 13.667 -71 34.167 -98 61.5s-40.5 62.666 -40.5 105.999c0 48.667 17.333 88.167 52 118.5s82.667 45.5 144 45.5c36.667 0 71.334 -6.33301 104.001 -19
s58.334 -29.334 77.001 -50.001l-7 -7c-42 44 -101 66 -177 66c-55.333 0 -99.666 -14 -132.999 -42s-50 -65 -50 -111c0 -31.333 7.16699 -58.166 21.5 -80.499s33 -39.833 56 -52.5s48.5 -24 76.5 -34l84 -31c28 -10.667 53.5 -22.834 76.5 -36.501s41.667 -32.667 56 -57
s21.5 -53.166 21.5 -86.499c0 -52.667 -20.667 -95 -62 -127s-92.666 -48 -153.999 -48c-40 0 -79.833 9 -119.5 27s-68.167 41 -85.5 69l8 7c20.667 -28 49.334 -50.5 86.001 -67.5s73 -25.5 109 -25.5c56.667 0 105.5 14.5 146.5 43.5s61.5 69.5 61.5 121.5z" />
    <glyph glyph-name="T" unicode="T" horiz-adv-x="590" 
d="M10 690v10h570v-10h-280v-690h-10v690h-280z" />
    <glyph glyph-name="U" unicode="U" horiz-adv-x="751" 
d="M641 700v-404.999c0 -100.667 -24.167 -176 -72.5 -226s-109.5 -75 -183.5 -75c-81.333 0 -147.5 26.667 -198.5 80s-76.5 129.333 -76.5 228v398h10v-399c0 -94.667 24.667 -167.834 74 -219.501s113 -77.5 191 -77.5c72 0 131 24.5 177 73.5s69 122.5 69 220.5v402h10z
" />
    <glyph glyph-name="V" unicode="V" horiz-adv-x="656" 
d="M636 700l-303 -708h-3l-310 708h11l301 -690l293 690h11z" />
    <glyph glyph-name="W" unicode="W" horiz-adv-x="940" 
d="M920 700l-207 -700h-3l-238 676l-232 -676h-3l-217 700h11l208 -671l231 671h4l237 -672l198 672h11z" />
    <glyph glyph-name="X" unicode="X" horiz-adv-x="654" 
d="M605 700l-271 -344l280 -356h-13l-274 348l-274 -348h-13l281 356l-270 344h13l263 -335l265 335h13z" />
    <glyph glyph-name="Y" unicode="Y" horiz-adv-x="554" 
d="M534 700l-253 -385v-315h-10v315l-251 385h13l243 -375l245 375h13z" />
    <glyph glyph-name="Z" unicode="Z" horiz-adv-x="620" 
d="M60 690v10h510v-2l-512 -688h522v-10h-540v2l511 688h-491z" />
    <glyph glyph-name="bracketleft" unicode="[" horiz-adv-x="260" 
d="M60 -200v850h200v-10h-190v-830h190v-10h-200z" />
    <glyph glyph-name="backslash" unicode="\" horiz-adv-x="289" 
d="M-21 708l340 -912l-10 -4l-339 913z" />
    <glyph glyph-name="bracketright" unicode="]" horiz-adv-x="260" 
d="M200 650v-850h-200v10h190v830h-190v10h200z" />
    <glyph glyph-name="asciicircum" unicode="^" horiz-adv-x="462" 
d="M60 450l170 258h4l168 -258h-12l-158 243l-160 -243h-12z" />
    <glyph glyph-name="underscore" unicode="_" horiz-adv-x="250" 
d="M0 -200v10h250v-10h-250z" />
    <glyph glyph-name="grave" unicode="`" horiz-adv-x="237" 
d="M169 559l-109 141l7 6l110 -142z" />
    <glyph glyph-name="a" unicode="a" horiz-adv-x="456" 
d="M89 409l-4.99805 8c44 27.333 88.667 41 134 41c57.333 0 98 -14.667 122 -44s36 -73.333 36 -132v-282h-10v85c-42.667 -59.333 -101.334 -89 -176.001 -89c-42.667 0 -76.667 11.5 -102 34.5s-38 53.167 -38 90.5c0 43.333 15.833 76.666 47.5 99.999
s72.834 35 123.501 35c59.333 0 107.666 -13.333 144.999 -40c0 24.667 -0.166992 43.834 -0.5 57.501s-1.5 30 -3.5 49s-5 33.667 -9 44s-9.5 21.5 -16.5 33.5s-15.833 21 -26.5 27s-23.834 11 -39.501 15s-33.834 6 -54.501 6c-41.333 0 -83.666 -13 -126.999 -39z
M189.002 6c44.667 0 80.335 8.83301 107.002 26.5s50 40.5 70 68.5v102c-40.667 28.667 -89.667 43 -147 43c-42.667 0 -79.834 -10.5 -111.501 -31.5s-47.5 -51.833 -47.5 -92.5c0 -36 12.167 -64.333 36.5 -85s55.166 -31 92.499 -31z" />
    <glyph glyph-name="b" unicode="b" horiz-adv-x="551" 
d="M90 48l-0.00195312 652.001h10v-324c19.333 23.333 46 42.833 80 58.5s67.667 23.5 101 23.5c66.667 0 119.167 -20.833 157.5 -62.5s57.5 -96.167 57.5 -163.5c0 -72.667 -22.167 -130.834 -66.5 -174.501s-101.166 -65.5 -170.499 -65.5s-125.666 18.667 -168.999 56z
M280.998 448.001c-36.667 0 -72.168 -9.00098 -106.501 -27.001s-59.166 -37.667 -74.499 -59v-310c46.667 -33.333 100 -50 160 -50c64.667 0 118.5 20.667 161.5 62s64.5 96.333 64.5 165c0 66.667 -18.167 119.834 -54.5 159.501s-86.5 59.5 -150.5 59.5z" />
    <glyph glyph-name="c" unicode="c" horiz-adv-x="492" 
d="M446 69l5.99902 -6c-18.667 -22.667 -42.667 -40.167 -72 -52.5s-59.666 -18.5 -90.999 -18.5c-68.667 0 -124.834 21.333 -168.501 64s-65.5 99 -65.5 169c0 65.333 21 120.5 63 165.5s93.667 67.5 155 67.5c74.667 0 131.334 -17.667 170.001 -53l-6 -9
c-39.333 34.667 -93.333 52 -162 52c-58 0 -107.5 -21.5 -148.5 -64.5s-61.5 -95.833 -61.5 -158.5c0 -67.333 20.833 -121.333 62.5 -162s95.5 -61 161.5 -61c31.333 0 61 6.16699 89 18.5s50.667 28.5 68 48.5z" />
    <glyph glyph-name="d" unicode="d" horiz-adv-x="552" 
d="M452 0l0.00292969 75.999c-18.667 -23.333 -43.834 -43.166 -75.501 -59.499s-63.834 -24.5 -96.501 -24.5c-68 0 -122.5 21.167 -163.5 63.5s-61.5 98.833 -61.5 169.5c0 68 23.167 123.833 69.5 167.5s104.166 65.5 173.499 65.5c60 0 111.333 -16 154 -48v290h10v-700
h-10zM280.003 1.99902c34 0 67.5 9.5 100.5 28.5s56.833 39.167 71.5 60.5v307c-47.333 33.333 -99 50 -155 50c-66 0 -121.167 -21 -165.5 -63s-66.5 -95.333 -66.5 -160c0 -68 19.5 -122.167 58.5 -162.5s91.167 -60.5 156.5 -60.5z" />
    <glyph glyph-name="e" unicode="e" horiz-adv-x="529" 
d="M446 69l6 -6c-18.667 -22.667 -42.667 -40.167 -72 -52.5s-59.666 -18.5 -90.999 -18.5c-68.667 0 -124.834 21.333 -168.501 64s-65.5 99 -65.5 169c0 68.667 18.833 124.667 56.5 168s92.167 65 163.5 65c58.667 0 106.5 -18.333 143.5 -55s55.5 -85 55.5 -145
c0 -2.66699 -0.166992 -6.5 -0.5 -11.5s-0.5 -8.83301 -0.5 -11.5h-408c0 -71.333 20.167 -128 60.5 -170s94.833 -63 163.5 -63c31.333 0 61 6.16699 89 18.5s50.667 28.5 68 48.5zM271 448c-62 0 -111.001 -18.833 -147.001 -56.5s-55.667 -86.5 -59 -146.5h399
c0.666992 62 -16.666 111.333 -51.999 148s-82.333 55 -141 55z" />
    <glyph glyph-name="f" unicode="f" horiz-adv-x="341" 
d="M110 0l-0.000976562 523c0 123.333 50.333 185 151 185c43.333 0 80 -11.667 110 -35l-6 -9c-31.333 22.667 -66 34 -104 34c-47.333 0 -82.666 -14.667 -105.999 -44s-35 -76 -35 -140v-64h205v-10h-205v-440h-10z" />
    <glyph glyph-name="g" unicode="g" horiz-adv-x="484" 
d="M20 -71c0 34.667 12.3311 63.167 36.998 85.5s59.334 37.5 104.001 45.5c-12 12 -18 28.333 -18 49c0 19.333 6.66699 36.333 20 51c-29.333 12 -52.333 30.667 -69 56s-25 54 -25 86c0 45.333 15.667 82.666 47 111.999s72 44 122 44c44 0 81.667 -12.333 113 -37
l123 37v-10l-115 -34c32 -30 48 -67.333 48 -112c0 -45.333 -15.667 -82.666 -47 -111.999s-72 -44 -122 -44c-24.667 0 -46.667 3.33301 -66 10c-12.667 -12 -19 -27.667 -19 -47s7 -35 21 -47c22 3.33301 43.667 5 65 5c66.667 0 119.834 -12 159.501 -36
s59.5 -58 59.5 -102c0 -43.333 -19.833 -77 -59.5 -101s-92.834 -36 -159.501 -36c-67.333 0 -120.666 11.833 -159.999 35.5s-59 57.5 -59 101.5zM29.998 -71c0 -40 19.167 -71.167 57.5 -93.5s88.833 -33.5 151.5 -33.5s113.167 11.167 151.5 33.5s57.5 53.5 57.5 93.5
s-19.333 71.333 -58 94s-89 34 -151 34s-112.333 -11.333 -151 -34s-58 -54 -58 -94zM78.998 302c0 -42 15 -76.833 45 -104.5s68 -41.5 114 -41.5s84 13.833 114 41.5s45 62.5 45 104.5s-15 76.833 -45 104.5s-68 41.5 -114 41.5s-84 -13.833 -114 -41.5
s-45 -62.5 -45 -104.5z" />
    <glyph glyph-name="h" unicode="h" horiz-adv-x="554" 
d="M90 0v700h10v-324c19.333 23.333 46.333 42.833 81 58.5s68.667 23.5 102 23.5c65.333 0 113.5 -16.667 144.5 -50s46.5 -85.333 46.5 -156v-252h-10v249c0 68 -14.667 118.167 -44 150.5s-75 48.5 -137 48.5c-36.667 0 -72.5 -9 -107.5 -27s-60.167 -37.667 -75.5 -59
v-362h-10z" />
    <glyph glyph-name="i" unicode="i" horiz-adv-x="250" 
d="M120 0v450h10v-450h-10zM113 633c0 3.33301 1.33105 6.16602 3.99805 8.49902s5.66699 3.5 9 3.5c2.66699 0 5.33398 -1.16699 8.00098 -3.5s4 -5.16602 4 -8.49902s-1.16699 -6.33301 -3.5 -9s-5.16602 -4 -8.49902 -4c-8.66699 0 -13 4.33301 -13 13z" />
    <glyph glyph-name="j" unicode="j" horiz-adv-x="251" 
d="M131 450v-483c0 -116.667 -47 -175 -141 -175c-30 0 -56.667 8.33301 -80 25l6 9c21.333 -16 46 -24 74 -24c87.333 0 131 54.667 131 164v484h10zM112 633c0 3.33301 1.33301 6.16602 4 8.49902s5.66699 3.5 9 3.5s6.16602 -1.16699 8.49902 -3.5
s3.5 -5.16602 3.5 -8.49902s-1.16699 -6.33301 -3.5 -9s-5.16602 -4 -8.49902 -4c-8.66699 0 -13 4.33301 -13 13z" />
    <glyph glyph-name="k" unicode="k" horiz-adv-x="445" 
d="M399 450l-237 -215l255 -235h-17l-253 235l236 215h16zM90 0v700h10v-700h-10z" />
    <glyph glyph-name="l" unicode="l" horiz-adv-x="271" 
d="M90 111v588.999h10v-574c0 -41.333 6 -71.5 18 -90.5s33 -28.5 63 -28.5c28 0 52.667 8 74 24l6 -9c-23.333 -16.667 -50 -25 -80 -25c-32.667 0 -56 9.33301 -70 28s-21 47.334 -21 86.001z" />
    <glyph glyph-name="m" unicode="m" horiz-adv-x="808" 
d="M728 296l0.000976562 -296.001h-10v293c0 103.333 -46.333 155 -139 155c-73.333 0 -129.333 -30.333 -168 -91c2 -8 3 -18 3 -30v-327h-10v325c0 36.667 -12.333 66.334 -37 89.001s-58.667 34 -102 34c-35.333 0 -67.666 -8.5 -96.999 -25.5s-52 -37.167 -68 -60.5
v-362h-10v450h10v-72c17.333 23.333 41.166 42.5 71.499 57.5s61.5 22.5 93.5 22.5c36 0 66.667 -7.83301 92 -23.5s42.333 -37.834 51 -66.501c16 26.667 40.167 48.334 72.5 65.001s65.166 25 98.499 25c99.333 0 149 -54 149 -162z" />
    <glyph glyph-name="n" unicode="n" horiz-adv-x="554" 
d="M90 0v450h10v-74c19.333 23.333 46.333 42.833 81 58.5s68.667 23.5 102 23.5c65.333 0 113.5 -16.667 144.5 -50s46.5 -85.333 46.5 -156v-252h-10v249c0 68 -14.667 118.167 -44 150.5s-75 48.5 -137 48.5c-36.667 0 -72.5 -9 -107.5 -27s-60.167 -37.667 -75.5 -59
v-362h-10z" />
    <glyph glyph-name="o" unicode="o" horiz-adv-x="570" 
d="M55 225c0 67.333 21.667 123 65 167s98.333 66 165 66s121.667 -22 165 -66s65 -99.667 65 -167s-21.667 -123 -65 -167s-98.333 -66 -165 -66s-121.667 22 -165 66s-65 99.667 -65 167zM65 225c0 -65.333 20.5 -118.833 61.5 -160.5s93.833 -62.5 158.5 -62.5
s117.5 20.833 158.5 62.5s61.5 95.167 61.5 160.5s-20.5 118.833 -61.5 160.5s-93.833 62.5 -158.5 62.5s-117.5 -20.833 -158.5 -62.5s-61.5 -95.167 -61.5 -160.5z" />
    <glyph glyph-name="p" unicode="p" horiz-adv-x="551" 
d="M90 -200l-0.000976562 649.999h10v-71c19.333 23.333 45.833 42.333 79.5 57s67.5 22 101.5 22c66.667 0 119.167 -20.833 157.5 -62.5s57.5 -96.167 57.5 -163.5c0 -69.333 -21 -126.666 -63 -171.999s-96.667 -68 -164 -68c-69.333 0 -125.666 16.667 -168.999 50v-242
h-10zM280.999 447.999c-36.667 0 -72.167 -8.50098 -106.5 -25.501s-59.166 -36.167 -74.499 -57.5v-310c48 -35.333 104.667 -53 170 -53c63.333 0 115.166 21.167 155.499 63.5s60.5 96.833 60.5 163.5s-18.167 119.834 -54.5 159.501s-86.5 59.5 -150.5 59.5z" />
    <glyph glyph-name="q" unicode="q" horiz-adv-x="552" 
d="M452 -200l-0.000976562 272c-18 -22.667 -43 -41.667 -75 -57s-64.333 -23 -97 -23c-68 0 -122.5 21.167 -163.5 63.5s-61.5 98.833 -61.5 169.5c0 65.333 23.333 120.5 70 165.5s104.334 67.5 173.001 67.5c62 0 116.667 -15.333 164 -46v-612h-10zM279.999 2
c34.667 0 68.5 8.83203 101.5 26.499s56.5 36.834 70.5 57.501v320c-45.333 28 -97 42 -155 42c-63.333 0 -117.833 -21.5 -163.5 -64.5s-68.5 -95.833 -68.5 -158.5c0 -68 19.5 -122.167 58.5 -162.5s91.167 -60.5 156.5 -60.5z" />
    <glyph glyph-name="r" unicode="r" horiz-adv-x="313" 
d="M90 0v450h10v-70c32 52 76.333 78 133 78c31.333 0 54.666 -5.66699 69.999 -17l-3 -10c-19.333 11.333 -41.666 17 -66.999 17c-52 0 -96.333 -28.667 -133 -86v-362h-10z" />
    <glyph glyph-name="s" unicode="s" horiz-adv-x="401" 
d="M331 111c0 26.667 -8.83398 48.165 -26.501 64.498s-39.167 28.5 -64.5 36.5l-76 25c-25.333 8.66699 -46.833 22.334 -64.5 41.001s-26.5 43 -26.5 73c0 31.333 11.833 57 35.5 77s55.5 30 95.5 30c23.333 0 46.166 -4.16699 68.499 -12.5s39.5 -19.166 51.5 -32.499
l-7 -8c-28 28.667 -66.333 43 -115 43c-35.333 0 -64 -9.33301 -86 -28s-33 -41.334 -33 -68.001c0 -28.667 8.83301 -51.667 26.5 -69s39.167 -30.166 64.5 -38.499l76 -25c25.333 -8.33301 46.833 -21.166 64.5 -38.499s26.5 -40.333 26.5 -69
c0 -38.667 -13.667 -68.334 -41 -89.001s-61.666 -31 -102.999 -31c-25.333 0 -52 5.66699 -80 17s-47 25 -57 41l9 6c11.333 -16 29.5 -29 54.5 -39s49.167 -15 72.5 -15c36.667 0 68.334 9.5 95.001 28.5s40 45.833 40 80.5z" />
    <glyph glyph-name="t" unicode="t" horiz-adv-x="341" 
d="M80 171l-0.000976562 404.001h10v-125h205v-10h-205v-260c0 -58.667 10.333 -102.334 31 -131.001s54 -43 100 -43c28 0 52.667 8 74 24l6 -9c-23.333 -16.667 -50 -25 -80 -25c-49.333 0 -85.166 14.5 -107.499 43.5s-33.5 72.833 -33.5 131.5z" />
    <glyph glyph-name="u" unicode="u" horiz-adv-x="550" 
d="M460 450v-450h-10v83c-20.667 -24.667 -48.667 -46 -84 -64s-70.333 -27 -105 -27c-62 0 -107.667 16.667 -137 50s-44 85.333 -44 156v252h10v-249c0 -68 13.833 -118.167 41.5 -150.5s71.5 -48.5 131.5 -48.5c38 0 74.667 10 110 30s61 41.667 77 65v353h10z" />
    <glyph glyph-name="v" unicode="v" horiz-adv-x="466" 
d="M446 450l-209 -458h-3l-214 458h11l160 -344l45 -96l45 100l154 340h11z" />
    <glyph glyph-name="w" unicode="w" horiz-adv-x="676" 
d="M656 450l-149 -458h-3l-143 378l-22 59l-23 -63l-139 -374h-3l-154 458h11l122 -362l23 -69l26 69l135 362h4l137 -360l27 -72l25 77l115 355h11z" />
    <glyph glyph-name="x" unicode="x" horiz-adv-x="477" 
d="M427 450l-182 -219l192 -231h-13l-186 223l-185 -223h-13l192 231l-182 219h13l175 -211l176 211h13z" />
    <glyph glyph-name="y" unicode="y" horiz-adv-x="466" 
d="M446 450l-185 -450c-32 -77.333 -60 -130 -84 -158s-51.333 -42 -82 -42c-19.333 0 -40.666 5 -63.999 15l4 9c23.333 -10 42.666 -15 57.999 -15c28 0 53.5 12.833 76.5 38.5s46.833 68.5 71.5 128.5l10 24l-231 450h11l187 -366l38 -74l31 76l148 364h11z" />
    <glyph glyph-name="z" unicode="z" horiz-adv-x="475" 
d="M65 440v10h360v-2l-357 -438h352v-10h-370v2l356 438h-341z" />
    <glyph glyph-name="braceleft" unicode="{" horiz-adv-x="280" 
d="M110 -86l0.00195312 207.999c0 36 -9 61.5 -27 76.5s-39 22.167 -63 21.5v10c23.333 0 44.166 8.33301 62.499 25s27.5 45 27.5 85v193c0 78 33 117 99 117h51v-10h-51c-31.333 0 -54 -8.66699 -68 -26s-21 -44.333 -21 -81v-193c0 -32 -6.83301 -58.167 -20.5 -78.5
s-31.834 -32.166 -54.501 -35.499c50 -6 75 -44 75 -114v-198c0 -69.333 31.667 -104 95 -104h45v-10h-46c-69.333 0 -104 38 -104 114z" />
    <glyph glyph-name="bar" unicode="|" horiz-adv-x="310" 
d="M150 0v700h10v-700h-10z" />
    <glyph glyph-name="braceright" unicode="}" horiz-adv-x="280" 
d="M170 122l0.00195312 -207.999c0 -76 -34.667 -114 -104 -114h-46v10h45c63.333 0 95 34.667 95 104v198c0 70 25 108 75 114c-22.667 3.33301 -40.834 15.166 -54.501 35.499s-20.5 46.5 -20.5 78.5v193c0 36.667 -7 63.667 -21 81s-36.667 26 -68 26h-51v10h51
c66 0 99 -39 99 -117v-193c0 -40 9.16699 -68.333 27.5 -85s39.166 -25 62.499 -25v-10c-24 0.666992 -45 -6.5 -63 -21.5s-27 -40.5 -27 -76.5z" />
    <glyph glyph-name="asciitilde" unicode="~" horiz-adv-x="584" 
d="M76 345l-8 7c38 35.333 76.333 53 115 53c27.333 0 66 -12.667 116 -38s87.667 -38 113 -38c32 0 64.333 15.333 97 46l7 -7c-34.667 -32.667 -69.667 -49 -105 -49c-26.667 0 -65.167 12.667 -115.5 38s-88.5 38 -114.5 38c-36 0 -71 -16.667 -105 -50z" />
    <glyph glyph-name="uni00A0" unicode="&#xa0;" horiz-adv-x="250" 
 />
    <glyph glyph-name="exclamdown" unicode="&#xa1;" horiz-adv-x="310" 
d="M161 298v-540h-10v540h10zM169 445c0 -3.33301 -1.33105 -6.16602 -3.99805 -8.49902s-5.66699 -3.5 -9 -3.5c-2.66699 0 -5.33398 1.16699 -8.00098 3.5s-4 5.16602 -4 8.49902s1.16699 6.33301 3.5 9s5.16602 4 8.49902 4c8.66699 0 13 -4.33301 13 -13z" />
    <glyph glyph-name="cent" unicode="&#xa2;" horiz-adv-x="584" 
d="M486 69l5.99902 -6c-18.667 -22.667 -42.667 -40.167 -72 -52.5s-59.666 -18.5 -90.999 -18.5h-3v-112h-10v112c-65.333 3.33301 -118.5 26 -159.5 68s-61.5 97 -61.5 165c0 65.333 21 120.5 63 165.5s93.667 67.5 155 67.5h3v111h10v-111c68 -2 120.333 -19.667 157 -53
l-6 -9c-39.333 34.667 -93.333 52 -162 52c-58 0 -107.5 -21.5 -148.5 -64.5s-61.5 -95.833 -61.5 -158.5c0 -67.333 20.833 -121.333 62.5 -162s95.5 -61 161.5 -61c31.333 0 61 6.16699 89 18.5s50.667 28.5 68 48.5z" />
    <glyph glyph-name="sterling" unicode="&#xa3;" horiz-adv-x="584" 
d="M89 295l-0.00390625 10.002h76c-3.33301 11.333 -10.666 29.5 -21.999 54.5s-19.833 49.167 -25.5 72.5s-8.5 50.666 -8.5 81.999c0 50.667 17.833 95.667 53.5 135s83.167 59 142.5 59c36.667 0 71.334 -6.33301 104.001 -19s58.334 -29.334 77.001 -50.001l-7 -7
c-42 44 -101 66 -177 66c-54 0 -98 -18.5 -132 -55.5s-51 -79.5 -51 -127.5c0 -30.667 3 -57.667 9 -81s14.5 -47.333 25.5 -72s18.5 -43.667 22.5 -57h187v-10h-184c6 -25.333 9 -50 9 -74c0 -70 -17 -126.667 -51 -170c14.667 4.66699 30.667 7 48 7
c26.667 0 65 -8.66699 115 -26s87.333 -26 112 -26c40 0 77.667 16.667 113 50l7 -7c-37.333 -35.333 -78 -53 -122 -53c-25.333 0 -63.166 8.66699 -113.499 26s-88.5 26 -114.5 26c-42 0 -82.333 -18.333 -121 -55l-8 7c24 22 46.667 37.333 68 46
c38 42.667 57 101.334 57 176.001c0 25.333 -3.33301 49.666 -10 72.999h-79z" />
    <glyph glyph-name="currency" unicode="&#xa4;" horiz-adv-x="584" 
d="M73 350c0 60 19 111.667 57 155l-99 100l7 7l99 -99c41.333 42.667 93.333 64 156 64c62 0 113.667 -21.333 155 -64l107 106l7 -7l-106 -107c38 -44 57 -95.667 57 -155c0 -60 -19 -111.667 -57 -155l101 -102l-7 -7l-101 101c-41.333 -42.667 -93.333 -64 -156 -64
c-63.333 0 -115.333 21 -156 63l-108 -107l-7 7l108 109c-38 42 -57 93.667 -57 155zM83 350c0 -59.333 19.167 -110.333 57.5 -153s89.166 -64 152.499 -64s114.166 21.333 152.499 64s57.5 93.667 57.5 153s-19.167 110.333 -57.5 153s-89.166 64 -152.499 64
s-114.166 -21.333 -152.499 -64s-57.5 -93.667 -57.5 -153z" />
    <glyph glyph-name="yen" unicode="&#xa5;" horiz-adv-x="584" 
d="M74 314v10h206l-245 376h13l243 -375l245 375h13l-247 -376h206v-10h-212v-150h212v-10h-212v-154h-10v154h-212v10h212v150h-212z" />
    <glyph glyph-name="brokenbar" unicode="&#xa6;" horiz-adv-x="310" 
d="M160 440h-10v260h10v-260zM150 260h10v-260h-10v260z" />
    <glyph glyph-name="section" unicode="&#xa7;" horiz-adv-x="524" 
d="M80 249c0 48.667 15.5 89.499 46.5 122.499s70.167 51.5 117.5 55.5c-31.333 12 -58.166 29.5 -80.499 52.5s-33.5 50.833 -33.5 83.5c0 40.667 13.167 73.667 39.5 99s60.166 38 101.499 38c50.667 0 90.667 -18.333 120 -55l-7 -8c-10 11.333 -17.667 19.5 -23 24.5
s-16.5 11 -33.5 18s-36.5 10.5 -58.5 10.5c-36.667 0 -67.334 -12.167 -92.001 -36.5s-37 -54.166 -37 -89.499c0 -36 14.167 -65.667 42.5 -89s60.166 -39.333 95.499 -48c47.333 -3.33301 86.833 -21.666 118.5 -54.999s47.5 -74.333 47.5 -123
c0 -48 -15.5 -88.5 -46.5 -121.5s-70.167 -51.833 -117.5 -56.5c30.667 -11.333 57 -28.5 79 -51.5s33 -50.5 33 -82.5c0 -40.667 -13.167 -73.667 -39.5 -99s-60.166 -38 -101.499 -38c-50.667 0 -90.667 18.333 -120 55l7 8c10 -11.333 17.667 -19.5 23 -24.5
s16.5 -11 33.5 -18s36.5 -10.5 58.5 -10.5c36.667 0 67.334 12.167 92.001 36.5s37 54.166 37 89.499c0 34.667 -13.667 63.5 -41 86.5s-58 39.167 -92 48.5c-48.667 3.33301 -89 21.5 -121 54.5s-48 74.167 -48 123.5zM90 248.999c0 -48 17.333 -88.001 52 -120.001
s74.667 -48 120 -48c46.667 0 87 15.833 121 47.5s51 71.834 51 120.501s-17.167 89 -51.5 121s-74.5 48 -120.5 48s-86.167 -16 -120.5 -48s-51.5 -72.333 -51.5 -121z" />
    <glyph glyph-name="dieresis" unicode="&#xa8;" horiz-adv-x="359" 
d="M60 631c0 3.33301 1.33301 6.16602 4 8.49902s5.66699 3.5 9 3.5s6.16602 -1.16699 8.49902 -3.5s3.5 -5.16602 3.5 -8.49902s-1.16699 -6.33301 -3.5 -9s-5.16602 -4 -8.49902 -4c-8.66699 0 -13 4.33301 -13 13zM274 631c0 3.33301 1.33301 6.16602 4 8.49902
s5.66699 3.5 9 3.5s6.16602 -1.16699 8.49902 -3.5s3.5 -5.16602 3.5 -8.49902s-1.16699 -6.33301 -3.5 -9s-5.16602 -4 -8.49902 -4c-8.66699 0 -13 4.33301 -13 13z" />
    <glyph glyph-name="copyright" unicode="&#xa9;" horiz-adv-x="1018" 
d="M80 221c0 78 18.333 149.833 55 215.5s88 117.667 154 156s139.333 57.5 220 57.5s154 -19.167 220 -57.5s117.333 -90.333 154 -156s55 -137.5 55 -215.5s-18.333 -149.833 -55 -215.5s-88 -117.667 -154 -156s-139.333 -57.5 -220 -57.5s-154 19.167 -220 57.5
s-117.333 90.333 -154 156s-55 137.5 -55 215.5zM90 221c0 -116.667 40 -215.667 120 -297s179.667 -122 299 -122s219 40.667 299 122s120 180.333 120 297s-40 215.667 -120 297s-179.667 122 -299 122s-219 -40.667 -299 -122s-120 -180.333 -120 -297zM675 69
l5.99902 -6c-18.667 -22.667 -42.667 -40.167 -72 -52.5s-59.666 -18.5 -90.999 -18.5c-68.667 0 -124.834 21.333 -168.501 64s-65.5 99 -65.5 169c0 65.333 21 120.5 63 165.5s93.667 67.5 155 67.5c74.667 0 131.334 -17.667 170.001 -53l-6 -9
c-39.333 34.667 -93.333 52 -162 52c-58 0 -107.5 -21.5 -148.5 -64.5s-61.5 -95.833 -61.5 -158.5c0 -67.333 20.833 -121.333 62.5 -162s95.5 -61 161.5 -61c31.333 0 61 6.16699 89 18.5s50.667 28.5 68 48.5z" />
    <glyph glyph-name="ordfeminine" unicode="&#xaa;" horiz-adv-x="385" 
d="M100 615l-8.00098 5.99902c26.667 24.667 59 37 97 37c77.333 0 116 -38 116 -114v-184h-10v57c-28.667 -39.333 -70 -59 -124 -59c-33.333 0 -60.166 8.83301 -80.499 26.5s-30.5 39.167 -30.5 64.5c0 28.667 11 51.334 33 68.001s51.333 25 88 25
c47.333 0 85.333 -10 114 -30v30c0 34.667 -9.16699 61 -27.5 79s-44.833 27 -79.5 27c-28 0 -57.333 -11 -88 -33zM169.999 366.999c53.333 0 94.999 20.333 124.999 61v73c-31.333 20.667 -69.666 31 -114.999 31c-30 0 -55.833 -7.33301 -77.5 -22s-32.5 -35 -32.5 -61
c0 -23.333 10 -42.833 30 -58.5s43.333 -23.5 70 -23.5z" />
    <glyph glyph-name="guillemotleft" unicode="&#xab;" horiz-adv-x="469" 
d="M381 48l-171 200v4l172 198l7 -6l-168 -194l166 -194zM231 48l-171 200v4l172 198l7 -6l-168 -194l166 -194z" />
    <glyph glyph-name="logicalnot" unicode="&#xac;" horiz-adv-x="584" 
d="M75 355v10h434v-141h-10v131h-424z" />
    <glyph glyph-name="uni00AD" unicode="&#xad;" horiz-adv-x="414" 
d="M100 265v10h214v-10h-214z" />
    <glyph glyph-name="registered" unicode="&#xae;" horiz-adv-x="528" 
d="M60 496c0 56.667 19.833 104.834 59.5 144.501s87.834 59.5 144.501 59.5s104.834 -19.833 144.501 -59.5s59.5 -87.834 59.5 -144.501s-19.833 -104.834 -59.5 -144.501s-87.834 -59.5 -144.501 -59.5s-104.834 19.833 -144.501 59.5s-59.5 87.834 -59.5 144.501z
M70 496c0 -53.333 19 -99 57 -137s83.667 -57 137 -57s99 19 137 57s57 83.667 57 137s-19 99 -57 137s-83.667 57 -137 57s-99 -19 -137 -57s-57 -83.667 -57 -137zM201 360l-10 0.000976562v280h61c63.333 0 95 -25.333 95 -76c0 -18 -6.66699 -34.333 -20 -49
s-31.333 -24.334 -54 -29.001l105 -126h-15l-104 126h-58v-126zM252 630.001l-51 -0.000976562v-134h59c18.667 0 36.167 6.33301 52.5 19s24.5 29 24.5 49c0 20.667 -7.33301 36.834 -22 48.501s-35.667 17.5 -63 17.5z" />
    <glyph glyph-name="macron" unicode="&#xaf;" horiz-adv-x="354" 
d="M60 640v10h234v-10h-234z" />
    <glyph glyph-name="degree" unicode="&#xb0;" horiz-adv-x="380" 
d="M60 570c0 36 12.667 66.667 38 92s56 38 92 38s66.667 -12.667 92 -38s38 -56 38 -92s-12.667 -66.667 -38 -92s-56 -38 -92 -38s-66.667 12.667 -92 38s-38 56 -38 92zM70 570c0 -33.333 11.667 -61.666 35 -84.999s51.666 -35 84.999 -35s61.666 11.667 84.999 35
s35 51.666 35 84.999s-11.667 61.666 -35 84.999s-51.666 35 -84.999 35s-61.666 -11.667 -84.999 -35s-35 -51.666 -35 -84.999z" />
    <glyph glyph-name="plusminus" unicode="&#xb1;" horiz-adv-x="584" 
d="M75 425v10h211v211h10v-211h213v-10h-213v-163h-10v163h-211zM75 185v10h434v-10h-434z" />
    <glyph glyph-name="twosuperior" unicode="&#xb2;" horiz-adv-x="323" 
d="M45 350l-0.00195312 8.99902c2 1.33301 14.167 10.5 36.5 27.5l48 37c9.66699 7.66699 24.334 20.667 44.001 39s34.334 34.166 44.001 47.499s18.667 28.833 27 46.5s12.5 34.5 12.5 50.5c0 24.667 -8.16699 45.334 -24.5 62.001s-39.833 25 -70.5 25
c-23.333 0 -45 -6 -65 -18s-32 -30 -36 -54l-10 2c4 25.333 16.833 45 38.5 59s45.167 21 70.5 21c36 0 62.833 -9.5 80.5 -28.5s26.5 -42.833 26.5 -71.5c0 -65.333 -65.667 -144.666 -197 -237.999c-4.66699 -2.66699 -7.66699 -4.66699 -9 -6h227v-10h-243z" />
    <glyph glyph-name="threesuperior" unicode="&#xb3;" horiz-adv-x="329" 
d="M157 346c-58 0 -96.998 20.667 -116.998 62l8 5c18.667 -38 55.667 -57 111 -57c32.667 0 59.167 8.33301 79.5 25s30.5 37.667 30.5 63c0 23.333 -9.5 42.5 -28.5 57.5s-42.167 22.5 -69.5 22.5h-40v10h35c22 0 42 8.16699 60 24.5s27 35.833 27 58.5
c0 24.667 -8.83301 43.667 -26.5 57s-40.834 20 -69.501 20c-50 0 -82.667 -18 -98 -54l-8 5c6.66699 18.667 19.5 33.167 38.5 43.5s41.5 15.5 67.5 15.5c33.333 0 59.333 -7.66699 78 -23s28 -36.666 28 -63.999c0 -18 -6 -35.167 -18 -51.5s-28.667 -27.833 -50 -34.5v-1
c25.333 -2.66699 45.666 -12.334 60.999 -29.001s23 -35.667 23 -57c0 -29.333 -11.5 -53 -34.5 -71s-52.167 -27 -87.5 -27z" />
    <glyph glyph-name="acute" unicode="&#xb4;" horiz-adv-x="237" 
d="M177 700l-109 -141l-8 5l110 142z" />
    <glyph glyph-name="mu" unicode="&#xb5;" horiz-adv-x="550" 
d="M460 450v-450h-10v83c-20.667 -24.667 -48.667 -46 -84 -64s-70.333 -27 -105 -27c-93.333 0 -150.333 39.333 -171 118v-310h-10v650h10v-249c0 -68 13.833 -118.167 41.5 -150.5s71.5 -48.5 131.5 -48.5c38 0 74.667 10 110 30s61 41.667 77 65v353h10z" />
    <glyph glyph-name="mu" unicode="&#x3bc;" horiz-adv-x="550" 
d="M460 450v-450h-10v83c-20.667 -24.667 -48.667 -46 -84 -64s-70.333 -27 -105 -27c-93.333 0 -150.333 39.333 -171 118v-310h-10v650h10v-249c0 -68 13.833 -118.167 41.5 -150.5s71.5 -48.5 131.5 -48.5c38 0 74.667 10 110 30s61 41.667 77 65v353h10z" />
    <glyph glyph-name="paragraph" unicode="&#xb6;" horiz-adv-x="401" 
d="M60 481c0 68.667 17.334 122.333 52.001 161s83.667 58 147 58h102v-10h-94v-743c0 -50.667 -8.66699 -89.167 -26 -115.5s-49 -39.5 -95 -39.5c-30 0 -56.667 8.33301 -80 25l6 9c21.333 -16 46 -24 74 -24c43.333 0 72.666 12.667 87.999 38s23 60.666 23 105.999v317
c-58 0.666992 -105.333 20.334 -142 59.001s-55 91.667 -55 159z" />
    <glyph glyph-name="periodcentered" unicode="&#xb7;" horiz-adv-x="250" 
d="M112 293c0 3.33301 1.33301 6.16602 4 8.49902s5.66699 3.5 9 3.5s6.16602 -1.16699 8.49902 -3.5s3.5 -5.16602 3.5 -8.49902s-1.16699 -6.33301 -3.5 -9s-5.16602 -4 -8.49902 -4c-8.66699 0 -13 4.33301 -13 13z" />
    <glyph glyph-name="cedilla" unicode="&#xb8;" horiz-adv-x="298" 
d="M60 -180l3.99902 9c26 -12.667 50.667 -19 74 -19c26.667 0 48.334 5.5 65.001 16.5s25 25.5 25 43.5c0 40 -30 60 -90 60h-6v70h10v-60c64 -0.666992 96 -24 96 -70c0 -20.667 -9.16699 -37.5 -27.5 -50.5s-42.5 -19.5 -72.5 -19.5c-24 0 -50 6.66699 -78 20z" />
    <glyph glyph-name="onesuperior" unicode="&#xb9;" horiz-adv-x="220" 
d="M35 643l89 61h6v-354h-10v338l-79 -53z" />
    <glyph glyph-name="ordmasculine" unicode="&#xba;" horiz-adv-x="430" 
d="M60 506c0 44 14.833 80.333 44.5 109s66.5 43 110.5 43s80.833 -14.333 110.5 -43s44.5 -65 44.5 -109s-14.833 -80.333 -44.5 -109s-66.5 -43 -110.5 -43s-80.833 14.333 -110.5 43s-44.5 65 -44.5 109zM70 506c0 -40.667 14.667 -74.5 44 -101.5s63 -40.5 101 -40.5
c39.333 0 73.333 13.333 102 40s43 60.667 43 102s-14.5 75.333 -43.5 102s-62.833 40 -101.5 40s-72.5 -13.333 -101.5 -40s-43.5 -60.667 -43.5 -102z" />
    <glyph glyph-name="guillemotright" unicode="&#xbb;" horiz-adv-x="469" 
d="M409 248l-171 -200l-6 8l166 194l-168 194l7 6l172 -198v-4zM259 248l-171 -200l-6 8l166 194l-168 194l7 6l172 -198v-4z" />
    <glyph glyph-name="onequarter" unicode="&#xbc;" horiz-adv-x="633" 
d="M55 643l89 61h6v-354h-10v338l-79 -53zM60 -1l531 709l8 -5l-531 -711zM537 0v98h-197v5l196 247h11l-192 -242h182v117h10v-117h66v-10h-66v-98h-10z" />
    <glyph glyph-name="onehalf" unicode="&#xbd;" horiz-adv-x="648" 
d="M55 643l89 61h6v-354h-10v338l-79 -53zM20 -1l531 709l8 -5l-531 -711zM365 0l-0.00292969 9c2 1.33301 14.167 10.5 36.5 27.5l48 37c9.66699 7.66699 24.334 20.667 44.001 39s34.334 34.166 44.001 47.499s18.667 28.833 27 46.5s12.5 34.5 12.5 50.5
c0 24.667 -8.16699 45.334 -24.5 62.001s-39.833 25 -70.5 25c-23.333 0 -45 -6 -65 -18s-32 -30 -36 -54l-10 2c4 25.333 16.833 45 38.5 59s45.167 21 70.5 21c36 0 62.833 -9.5 80.5 -28.5s26.5 -42.833 26.5 -71.5c0 -65.333 -66.333 -145 -199 -239
c-3.33301 -2 -5.66602 -3.66699 -6.99902 -5h227v-10h-243z" />
    <glyph glyph-name="threequarters" unicode="&#xbe;" horiz-adv-x="663" 
d="M100 -1l531 709l8 -5l-531 -711zM567 0v98h-197v5l196 247h11l-192 -242h182v117h10v-117h66v-10h-66v-98h-10zM157 346c-58 0 -96.998 20.667 -116.998 62l8 5c18.667 -38 55.667 -57 111 -57c32.667 0 59.167 8.33301 79.5 25s30.5 37.667 30.5 63
c0 23.333 -9.5 42.5 -28.5 57.5s-42.167 22.5 -69.5 22.5h-40v10h35c22 0 42 8.16699 60 24.5s27 35.833 27 58.5c0 24.667 -8.83301 43.667 -26.5 57s-40.834 20 -69.501 20c-50 0 -82.667 -18 -98 -54l-8 5c6.66699 18.667 19.5 33.167 38.5 43.5s41.5 15.5 67.5 15.5
c33.333 0 59.333 -7.66699 78 -23s28 -36.666 28 -63.999c0 -18 -6 -35.167 -18 -51.5s-28.667 -27.833 -50 -34.5v-1c25.333 -2.66699 45.666 -12.334 60.999 -29.001s23 -35.667 23 -57c0 -29.333 -11.5 -53 -34.5 -71s-52.167 -27 -87.5 -27z" />
    <glyph glyph-name="questiondown" unicode="&#xbf;" horiz-adv-x="451" 
d="M50 -82c0 -46 16.667 -83.833 50 -113.5s76 -44.5 128 -44.5c34 0 66.333 8.16699 97 24.5s56.667 39.166 78 68.499l8 -4c-18 -29.333 -43.833 -53.166 -77.5 -71.499s-69.5 -27.5 -107.5 -27.5c-58 0 -103.5 16 -136.5 48s-49.5 71.667 -49.5 119
c0 28.667 5.33301 54.5 16 77.5s24 41.167 40 54.5s33.333 27 52 41l52 38.5c16 11.667 29.333 27 40 46s16 40.5 16 64.5c0 11.333 -1.66699 26 -5 44l9 3c4 -18 6 -34 6 -48c0 -24 -5.33301 -45.833 -16 -65.5s-24 -35.5 -40 -47.5l-52 -39.5l-52 -41.5
c-16 -13.333 -29.333 -30.833 -40 -52.5s-16 -46.167 -16 -73.5zM273 445c0 -3.33301 -1.33105 -6.16602 -3.99805 -8.49902s-5.66699 -3.5 -9 -3.5c-2.66699 0 -5.33398 1.16699 -8.00098 3.5s-4 5.16602 -4 8.49902s1.16699 6.33301 3.5 9s5.16602 4 8.49902 4
c8.66699 0 13 -4.33301 13 -13z" />
    <glyph glyph-name="Agrave" unicode="&#xc0;" horiz-adv-x="685" 
d="M30 0l311 708h3l311 -708h-11l-122 277h-360l-121 -277h-11zM342 688l-176 -401h352zM364 742l-154 90l4 8l155 -91z" />
    <glyph glyph-name="Aacute" unicode="&#xc1;" horiz-adv-x="685" 
d="M30 0l311 708h3l311 -708h-11l-122 277h-360l-121 -277h-11zM342 688l-176 -401h352zM479 832l-154 -90l-5 7l155 91z" />
    <glyph glyph-name="Acircumflex" unicode="&#xc2;" horiz-adv-x="685" 
d="M30 0l311 708h3l311 -708h-11l-122 277h-360l-121 -277h-11zM342 688l-176 -401h352zM176 750l165 90h4l164 -90l-8 -7l-158 87l-160 -87z" />
    <glyph glyph-name="Atilde" unicode="&#xc3;" horiz-adv-x="685" 
d="M30 0l311 708h3l311 -708h-11l-122 277h-360l-121 -277h-11zM342 688l-176 -401h352zM189 776l-6.00098 7c24.667 20 49.667 30 75 30c20.667 0 49 -8.33301 85 -25s62.667 -25 80 -25c26.667 0 50.667 11.667 72 35l7 -7c-25.333 -25.333 -51.666 -38 -78.999 -38
c-19.333 0 -47.333 8.33301 -84 25s-64.667 25 -84 25c-22 0 -44 -9 -66 -27z" />
    <glyph glyph-name="Adieresis" unicode="&#xc4;" horiz-adv-x="685" 
d="M30 0l311 708h3l311 -708h-11l-122 277h-360l-121 -277h-11zM342 688l-176 -401h352zM213 790c0 8 4.33301 12 13 12c8 0 12 -4 12 -12c0 -8.66699 -4 -13 -12 -13c-8.66699 0 -13 4.33301 -13 13zM447 790c0 8 4.33301 12 13 12c8 0 12 -4 12 -12
c0 -8.66699 -4 -13 -12 -13c-8.66699 0 -13 4.33301 -13 13z" />
    <glyph glyph-name="Aring" unicode="&#xc5;" horiz-adv-x="685" 
d="M250 775c0 24.667 8.66797 43.334 26.001 56.001s39.333 19 66 19c27.333 0 49.666 -6.33301 66.999 -19s26 -31.334 26 -56.001c0 -23.333 -8 -41.833 -24 -55.5s-36.667 -21.167 -62 -22.5l306 -697h-11l-122 277h-360l-121 -277h-11l306 697
c-25.333 1.33301 -46 8.83301 -62 22.5s-24 32.167 -24 55.5zM342.001 688l-176 -401h352zM260.001 775c0 -22 7.5 -38.834 22.5 -50.501s34.167 -17.5 57.5 -17.5h4c24 0.666992 43.5 6.83398 58.5 18.501s22.5 28.167 22.5 49.5c0 22 -7.66699 38.333 -23 49
s-35.333 16 -60 16s-44.5 -5.33301 -59.5 -16s-22.5 -27 -22.5 -49z" />
    <glyph glyph-name="AE" unicode="&#xc6;" horiz-adv-x="966" 
d="M896 0h-385v285h-286l-202 -285h-13l501 700h375v-10h-365v-328h335v-10h-335v-342h375v-10zM511 686l-279 -391h279v391z" />
    <glyph glyph-name="Ccedilla" unicode="&#xc7;" horiz-adv-x="657" 
d="M319 -180l4.00098 9.00195c26 -12.667 50.667 -19 74 -19c26.667 0 48.334 5.5 65.001 16.5s25 25.5 25 43.5c0 40 -30 60 -90 60h-6v63c-99.333 3.33301 -179.333 37.166 -240 101.499s-91 149.5 -91 255.5c0 102 31 187.167 93 255.5s142 102.5 240 102.5
c87.333 0 157.666 -21 210.999 -63l-7 -7c-49.333 40 -117 60 -203 60c-96 0 -174 -33.333 -234 -100s-90 -149.334 -90 -248.001c0 -104.667 30.833 -188.834 92.5 -252.501s142.167 -95.5 241.5 -95.5c81.333 0 150.333 24.333 207 73l6 -8
c-24.667 -23.333 -56.334 -41.666 -95.001 -54.999s-78 -20 -118 -20h-3v-52c64 -0.666992 96 -24 96 -70c0 -20.667 -9.16699 -37.5 -27.5 -50.5s-42.5 -19.5 -72.5 -19.5c-24 0 -50 6.66699 -78 20z" />
    <glyph glyph-name="Egrave" unicode="&#xc8;" horiz-adv-x="575" 
d="M120 0v700h375v-10h-365v-328h335v-10h-335v-342h375v-10h-385zM354 742l-154 90l4 8l155 -91z" />
    <glyph glyph-name="Eacute" unicode="&#xc9;" horiz-adv-x="575" 
d="M120 0v700h375v-10h-365v-328h335v-10h-335v-342h375v-10h-385zM409 832l-154 -90l-5 7l155 91z" />
    <glyph glyph-name="Ecircumflex" unicode="&#xca;" horiz-adv-x="575" 
d="M120 0v700h375v-10h-365v-328h335v-10h-335v-342h375v-10h-385zM143 750l165 90h4l164 -90l-8 -7l-158 87l-160 -87z" />
    <glyph glyph-name="Edieresis" unicode="&#xcb;" horiz-adv-x="575" 
d="M120 0v700h375v-10h-365v-328h335v-10h-335v-342h375v-10h-385zM180 790c0 8 4.33301 12 13 12c8 0 12 -4 12 -12c0 -8.66699 -4 -13 -12 -13c-8.66699 0 -13 4.33301 -13 13zM414 790c0 8 4.33301 12 13 12c8 0 12 -4 12 -12c0 -8.66699 -4 -13 -12 -13
c-8.66699 0 -13 4.33301 -13 13z" />
    <glyph glyph-name="Igrave" unicode="&#xcc;" horiz-adv-x="310" 
d="M150 0v700h10v-700h-10zM164 742l-154 90l4 8l155 -91z" />
    <glyph glyph-name="Iacute" unicode="&#xcd;" horiz-adv-x="310" 
d="M150 0v700h10v-700h-10zM299 832l-154 -90l-5 7l155 91z" />
    <glyph glyph-name="Icircumflex" unicode="&#xce;" horiz-adv-x="310" 
d="M150 0v700h10v-700h-10zM-11 750l165 90h4l164 -90l-8 -7l-158 87l-160 -87z" />
    <glyph glyph-name="Idieresis" unicode="&#xcf;" horiz-adv-x="310" 
d="M150 0v700h10v-700h-10zM26 790c0 8 4.33301 12 13 12c8 0 12 -4 12 -12c0 -8.66699 -4 -13 -12 -13c-8.66699 0 -13 4.33301 -13 13zM260 790c0 8 4.33301 12 13 12c8 0 12 -4 12 -12c0 -8.66699 -4 -13 -12 -13c-8.66699 0 -13 4.33301 -13 13z" />
    <glyph glyph-name="Eth" unicode="&#xd0;" horiz-adv-x="764" 
d="M10 355l-0.00195312 10h140v335h10c17.333 0 41 0.5 71 1.5s56.667 1.5 80 1.5c67.333 0 126.833 -9.16699 178.5 -27.5s92.834 -43.666 123.501 -75.999s53.5 -68.333 68.5 -108s22.5 -82.834 22.5 -129.501c0 -106 -34.667 -193.167 -104 -261.5
s-168.333 -102.5 -297 -102.5c-19.333 0 -44.666 0.333008 -75.999 1s-55.333 1 -72 1h-5v355h-140zM308.998 693c-23.333 0 -49.999 -0.5 -79.999 -1.5s-53 -1.5 -69 -1.5v-325h213v-10h-213v-345l144 -2c125.333 0 221.666 33.5 288.999 100.5s101 151.5 101 253.5
c0 96 -31.667 175.167 -95 237.5s-160 93.5 -290 93.5z" />
    <glyph glyph-name="Ntilde" unicode="&#xd1;" horiz-adv-x="800" 
d="M680 0h-8l-542 680v-680h-10v700h8l542 -682v682h10v-700zM251 776l-6.00098 7c24.667 20 49.667 30 75 30c20.667 0 49 -8.33301 85 -25s62.667 -25 80 -25c26.667 0 50.667 11.667 72 35l7 -7c-25.333 -25.333 -51.666 -38 -78.999 -38
c-19.333 0 -47.333 8.33301 -84 25s-64.667 25 -84 25c-22 0 -44 -9 -66 -27z" />
    <glyph glyph-name="Ograve" unicode="&#xd2;" horiz-adv-x="804" 
d="M60 350c0 101.333 32.833 186.333 98.5 255s146.834 103 243.501 103s177.834 -34.333 243.501 -103s98.5 -153.667 98.5 -255s-32.833 -186.333 -98.5 -255s-146.834 -103 -243.501 -103s-177.834 34.333 -243.501 103s-98.5 153.667 -98.5 255zM70 350
c0 -98.667 31.833 -181.334 95.5 -248.001s142.5 -100 236.5 -100s172.833 33.333 236.5 100s95.5 149.334 95.5 248.001s-31.833 181.334 -95.5 248.001s-142.5 100 -236.5 100s-172.833 -33.333 -236.5 -100s-95.5 -149.334 -95.5 -248.001zM474 742l-154 90l4 8l155 -91z
" />
    <glyph glyph-name="Oacute" unicode="&#xd3;" horiz-adv-x="804" 
d="M60 350c0 101.333 32.833 186.333 98.5 255s146.834 103 243.501 103s177.834 -34.333 243.501 -103s98.5 -153.667 98.5 -255s-32.833 -186.333 -98.5 -255s-146.834 -103 -243.501 -103s-177.834 34.333 -243.501 103s-98.5 153.667 -98.5 255zM70 350
c0 -98.667 31.833 -181.334 95.5 -248.001s142.5 -100 236.5 -100s172.833 33.333 236.5 100s95.5 149.334 95.5 248.001s-31.833 181.334 -95.5 248.001s-142.5 100 -236.5 100s-172.833 -33.333 -236.5 -100s-95.5 -149.334 -95.5 -248.001zM509 832l-154 -90l-5 7l155 91
z" />
    <glyph glyph-name="Ocircumflex" unicode="&#xd4;" horiz-adv-x="804" 
d="M60 350c0 101.333 32.833 186.333 98.5 255s146.834 103 243.501 103s177.834 -34.333 243.501 -103s98.5 -153.667 98.5 -255s-32.833 -186.333 -98.5 -255s-146.834 -103 -243.501 -103s-177.834 34.333 -243.501 103s-98.5 153.667 -98.5 255zM70 350
c0 -98.667 31.833 -181.334 95.5 -248.001s142.5 -100 236.5 -100s172.833 33.333 236.5 100s95.5 149.334 95.5 248.001s-31.833 181.334 -95.5 248.001s-142.5 100 -236.5 100s-172.833 -33.333 -236.5 -100s-95.5 -149.334 -95.5 -248.001zM240 750l165 90h4l164 -90
l-8 -7l-158 87l-160 -87z" />
    <glyph glyph-name="Otilde" unicode="&#xd5;" horiz-adv-x="804" 
d="M60 350c0 101.333 32.833 186.333 98.5 255s146.834 103 243.501 103s177.834 -34.333 243.501 -103s98.5 -153.667 98.5 -255s-32.833 -186.333 -98.5 -255s-146.834 -103 -243.501 -103s-177.834 34.333 -243.501 103s-98.5 153.667 -98.5 255zM70 350
c0 -98.667 31.833 -181.334 95.5 -248.001s142.5 -100 236.5 -100s172.833 33.333 236.5 100s95.5 149.334 95.5 248.001s-31.833 181.334 -95.5 248.001s-142.5 100 -236.5 100s-172.833 -33.333 -236.5 -100s-95.5 -149.334 -95.5 -248.001zM253 776l-6.00098 7
c24.667 20 49.667 30 75 30c20.667 0 49 -8.33301 85 -25s62.667 -25 80 -25c26.667 0 50.667 11.667 72 35l7 -7c-25.333 -25.333 -51.666 -38 -78.999 -38c-19.333 0 -47.333 8.33301 -84 25s-64.667 25 -84 25c-22 0 -44 -9 -66 -27z" />
    <glyph glyph-name="Odieresis" unicode="&#xd6;" horiz-adv-x="804" 
d="M60 350c0 101.333 32.833 186.333 98.5 255s146.834 103 243.501 103s177.834 -34.333 243.501 -103s98.5 -153.667 98.5 -255s-32.833 -186.333 -98.5 -255s-146.834 -103 -243.501 -103s-177.834 34.333 -243.501 103s-98.5 153.667 -98.5 255zM70 350
c0 -98.667 31.833 -181.334 95.5 -248.001s142.5 -100 236.5 -100s172.833 33.333 236.5 100s95.5 149.334 95.5 248.001s-31.833 181.334 -95.5 248.001s-142.5 100 -236.5 100s-172.833 -33.333 -236.5 -100s-95.5 -149.334 -95.5 -248.001zM275 790c0 8 4.33301 12 13 12
c8 0 12 -4 12 -12c0 -8.66699 -4 -13 -12 -13c-8.66699 0 -13 4.33301 -13 13zM509 790c0 8 4.33301 12 13 12c8 0 12 -4 12 -12c0 -8.66699 -4 -13 -12 -13c-8.66699 0 -13 4.33301 -13 13z" />
    <glyph glyph-name="multiply" unicode="&#xd7;" horiz-adv-x="584" 
d="M136 510l7 7l149 -150l149 150l7 -7l-149 -150l151 -150l-7 -7l-151 150l-151 -150l-7 7l151 150z" />
    <glyph glyph-name="Oslash" unicode="&#xd8;" horiz-adv-x="804" 
d="M60 350c0 101.333 32.833 186.333 98.5 255s146.834 103 243.501 103c98.667 0 181 -35.667 247 -107l55 53l7 -6l-56 -54c59.333 -66.667 89 -148 89 -244c0 -101.333 -32.833 -186.333 -98.5 -255s-146.834 -103 -243.501 -103c-100.667 0 -184 36.667 -250 110
l-52 -51l-8 8l53 51c-56.667 67.333 -85 147.333 -85 240zM734 350c0 92 -28.667 170.999 -86 236.999l-489 -478c64 -71.333 145 -107 243 -107c94 0 172.833 33.333 236.5 100s95.5 149.334 95.5 248.001zM70 349.999c0 -91.333 27.333 -168.999 82 -232.999l490 477
c-64 69.333 -144 104 -240 104c-94 0 -172.833 -33.333 -236.5 -100s-95.5 -149.334 -95.5 -248.001z" />
    <glyph glyph-name="Ugrave" unicode="&#xd9;" horiz-adv-x="751" 
d="M641 700v-404.999c0 -100.667 -24.167 -176 -72.5 -226s-109.5 -75 -183.5 -75c-81.333 0 -147.5 26.667 -198.5 80s-76.5 129.333 -76.5 228v398h10v-399c0 -94.667 24.667 -167.834 74 -219.501s113 -77.5 191 -77.5c72 0 131 24.5 177 73.5s69 122.5 69 220.5v402h10z
M434 742.001l-154 90l4 8l155 -91z" />
    <glyph glyph-name="Uacute" unicode="&#xda;" horiz-adv-x="751" 
d="M641 700v-404.999c0 -100.667 -24.167 -176 -72.5 -226s-109.5 -75 -183.5 -75c-81.333 0 -147.5 26.667 -198.5 80s-76.5 129.333 -76.5 228v398h10v-399c0 -94.667 24.667 -167.834 74 -219.501s113 -77.5 191 -77.5c72 0 131 24.5 177 73.5s69 122.5 69 220.5v402h10z
M479 832.001l-154 -90l-5 7l155 91z" />
    <glyph glyph-name="Ucircumflex" unicode="&#xdb;" horiz-adv-x="751" 
d="M641 700v-404.999c0 -100.667 -24.167 -176 -72.5 -226s-109.5 -75 -183.5 -75c-81.333 0 -147.5 26.667 -198.5 80s-76.5 129.333 -76.5 228v398h10v-399c0 -94.667 24.667 -167.834 74 -219.501s113 -77.5 191 -77.5c72 0 131 24.5 177 73.5s69 122.5 69 220.5v402h10z
M209 750.001l165 90h4l164 -90l-8 -7l-158 87l-160 -87z" />
    <glyph glyph-name="Udieresis" unicode="&#xdc;" horiz-adv-x="751" 
d="M641 700v-404.999c0 -100.667 -24.167 -176 -72.5 -226s-109.5 -75 -183.5 -75c-81.333 0 -147.5 26.667 -198.5 80s-76.5 129.333 -76.5 228v398h10v-399c0 -94.667 24.667 -167.834 74 -219.501s113 -77.5 191 -77.5c72 0 131 24.5 177 73.5s69 122.5 69 220.5v402h10z
M245 790.001c0 8 4.33301 12 13 12c8 0 12 -4 12 -12c0 -8.66699 -4 -13 -12 -13c-8.66699 0 -13 4.33301 -13 13zM479 790.001c0 8 4.33301 12 13 12c8 0 12 -4 12 -12c0 -8.66699 -4 -13 -12 -13c-8.66699 0 -13 4.33301 -13 13z" />
    <glyph glyph-name="Yacute" unicode="&#xdd;" horiz-adv-x="554" 
d="M534 700l-253 -385v-315h-10v315l-251 385h13l243 -375l245 375h13zM389 832l-154 -90l-5 7l155 91z" />
    <glyph glyph-name="Thorn" unicode="&#xde;" horiz-adv-x="567" 
d="M130 0h-9.99902v700h10v-110c14.667 0 39.667 0.333008 75 1s57.666 1 66.999 1c44.667 0 83 -5.83301 115 -17.5s56.333 -27.5 73 -47.5s28.667 -41.167 36 -63.5s11 -46.833 11 -73.5c0 -57.333 -20 -105.833 -60 -145.5s-101.667 -59.5 -185 -59.5
c-36.667 0 -80.667 1.66699 -132 5v-190zM273.001 582c-51.333 0 -99 -0.666992 -143 -2v-380c51.333 -3.33301 95 -5 131 -5c78 0 136.833 18.333 176.5 55s59.5 83.667 59.5 141c0 56.667 -18 102.667 -54 138s-92.667 53 -170 53z" />
    <glyph glyph-name="germandbls" unicode="&#xdf;" horiz-adv-x="536" 
d="M466 141c0 27.333 -7.66699 51.332 -23 71.999s-34 37.834 -56 51.501l-65.5 39.5c-21.667 12.667 -40.167 28 -55.5 46s-23 38.667 -23 62c0 18.667 6.16699 36.334 18.5 53.001s26 30.5 41 41.5s28.667 25 41 42s18.5 35.5 18.5 55.5c0 27.333 -11 49.833 -33 67.5
s-48 26.5 -78 26.5c-47.333 0 -82.666 -14.667 -105.999 -44s-35 -76 -35 -140v-518h-10v527c0 123.333 50.333 185 151 185c34 0 62.667 -9.66699 86 -29s35 -44.333 35 -75c0 -21.333 -6.16699 -41.166 -18.5 -59.499s-26 -32.833 -41 -43.5s-28.667 -23.834 -41 -39.501
s-18.5 -31.834 -18.5 -48.501c0 -22.667 7.66699 -42.667 23 -60s33.833 -32.166 55.5 -44.499l65.5 -38.5c22 -13.333 40.667 -30.833 56 -52.5s23 -46.834 23 -75.501c0 -44.667 -14 -80.834 -42 -108.501s-62 -41.5 -102 -41.5c-32 0 -60 7.83301 -84 23.5
s-41.667 33.834 -53 54.501l9 6c11.333 -18.667 28 -35.667 50 -51s47.667 -23 77 -23c35.333 0 66.666 13 93.999 39s41 59.333 41 100z" />
    <glyph glyph-name="agrave" unicode="&#xe0;" horiz-adv-x="456" 
d="M89 409l-4.99805 8c44 27.333 88.667 41 134 41c57.333 0 98 -14.667 122 -44s36 -73.333 36 -132v-282h-10v85c-42.667 -59.333 -101.334 -89 -176.001 -89c-42.667 0 -76.667 11.5 -102 34.5s-38 53.167 -38 90.5c0 43.333 15.833 76.666 47.5 99.999
s72.834 35 123.501 35c59.333 0 107.666 -13.333 144.999 -40c0 24.667 -0.166992 43.834 -0.5 57.501s-1.5 30 -3.5 49s-5 33.667 -9 44s-9.5 21.5 -16.5 33.5s-15.833 21 -26.5 27s-23.834 11 -39.501 15s-33.834 6 -54.501 6c-41.333 0 -83.666 -13 -126.999 -39z
M189.002 6c44.667 0 80.335 8.83301 107.002 26.5s50 40.5 70 68.5v102c-40.667 28.667 -89.667 43 -147 43c-42.667 0 -79.834 -10.5 -111.501 -31.5s-47.5 -51.833 -47.5 -92.5c0 -36 12.167 -64.333 36.5 -85s55.166 -31 92.499 -31zM259.003 559l-109 141l7 6l110 -142z
" />
    <glyph glyph-name="aacute" unicode="&#xe1;" horiz-adv-x="456" 
d="M89 409l-4.99805 8c44 27.333 88.667 41 134 41c57.333 0 98 -14.667 122 -44s36 -73.333 36 -132v-282h-10v85c-42.667 -59.333 -101.334 -89 -176.001 -89c-42.667 0 -76.667 11.5 -102 34.5s-38 53.167 -38 90.5c0 43.333 15.833 76.666 47.5 99.999
s72.834 35 123.501 35c59.333 0 107.666 -13.333 144.999 -40c0 24.667 -0.166992 43.834 -0.5 57.501s-1.5 30 -3.5 49s-5 33.667 -9 44s-9.5 21.5 -16.5 33.5s-15.833 21 -26.5 27s-23.834 11 -39.501 15s-33.834 6 -54.501 6c-41.333 0 -83.666 -13 -126.999 -39z
M189.002 6c44.667 0 80.335 8.83301 107.002 26.5s50 40.5 70 68.5v102c-40.667 28.667 -89.667 43 -147 43c-42.667 0 -79.834 -10.5 -111.501 -31.5s-47.5 -51.833 -47.5 -92.5c0 -36 12.167 -64.333 36.5 -85s55.166 -31 92.499 -31zM307.003 700l-109 -141l-8 5l110 142
z" />
    <glyph glyph-name="acircumflex" unicode="&#xe2;" horiz-adv-x="456" 
d="M89 409l-4.99805 8c44 27.333 88.667 41 134 41c57.333 0 98 -14.667 122 -44s36 -73.333 36 -132v-282h-10v85c-42.667 -59.333 -101.334 -89 -176.001 -89c-42.667 0 -76.667 11.5 -102 34.5s-38 53.167 -38 90.5c0 43.333 15.833 76.666 47.5 99.999
s72.834 35 123.501 35c59.333 0 107.666 -13.333 144.999 -40c0 24.667 -0.166992 43.834 -0.5 57.501s-1.5 30 -3.5 49s-5 33.667 -9 44s-9.5 21.5 -16.5 33.5s-15.833 21 -26.5 27s-23.834 11 -39.501 15s-33.834 6 -54.501 6c-41.333 0 -83.666 -13 -126.999 -39z
M189.002 6c44.667 0 80.335 8.83301 107.002 26.5s50 40.5 70 68.5v102c-40.667 28.667 -89.667 43 -147 43c-42.667 0 -79.834 -10.5 -111.501 -31.5s-47.5 -51.833 -47.5 -92.5c0 -36 12.167 -64.333 36.5 -85s55.166 -31 92.499 -31zM231.003 708l113 -130l-7 -7
l-108 124l-110 -124l-8 7l116 130h4z" />
    <glyph glyph-name="atilde" unicode="&#xe3;" horiz-adv-x="456" 
d="M89 409l-4.99805 8c44 27.333 88.667 41 134 41c57.333 0 98 -14.667 122 -44s36 -73.333 36 -132v-282h-10v85c-42.667 -59.333 -101.334 -89 -176.001 -89c-42.667 0 -76.667 11.5 -102 34.5s-38 53.167 -38 90.5c0 43.333 15.833 76.666 47.5 99.999
s72.834 35 123.501 35c59.333 0 107.666 -13.333 144.999 -40c0 24.667 -0.166992 43.834 -0.5 57.501s-1.5 30 -3.5 49s-5 33.667 -9 44s-9.5 21.5 -16.5 33.5s-15.833 21 -26.5 27s-23.834 11 -39.501 15s-33.834 6 -54.501 6c-41.333 0 -83.666 -13 -126.999 -39z
M189.002 6c44.667 0 80.335 8.83301 107.002 26.5s50 40.5 70 68.5v102c-40.667 28.667 -89.667 43 -147 43c-42.667 0 -79.834 -10.5 -111.501 -31.5s-47.5 -51.833 -47.5 -92.5c0 -36 12.167 -64.333 36.5 -85s55.166 -31 92.499 -31zM95.0029 596l-6.00098 7
c33.333 27.333 62.333 41 87 41c16 0 34.667 -8.16699 56 -24.5s38.666 -24.5 51.999 -24.5c20.667 0 46.334 14.333 77.001 43l7 -7c-33.333 -30.667 -62 -46 -86 -46c-14.667 0 -32.667 8.16699 -54 24.5s-39.666 24.5 -54.999 24.5c-21.333 0 -47.333 -12.667 -78 -38z
" />
    <glyph glyph-name="adieresis" unicode="&#xe4;" horiz-adv-x="456" 
d="M89 409l-4.99805 8c44 27.333 88.667 41 134 41c57.333 0 98 -14.667 122 -44s36 -73.333 36 -132v-282h-10v85c-42.667 -59.333 -101.334 -89 -176.001 -89c-42.667 0 -76.667 11.5 -102 34.5s-38 53.167 -38 90.5c0 43.333 15.833 76.666 47.5 99.999
s72.834 35 123.501 35c59.333 0 107.666 -13.333 144.999 -40c0 24.667 -0.166992 43.834 -0.5 57.501s-1.5 30 -3.5 49s-5 33.667 -9 44s-9.5 21.5 -16.5 33.5s-15.833 21 -26.5 27s-23.834 11 -39.501 15s-33.834 6 -54.501 6c-41.333 0 -83.666 -13 -126.999 -39z
M189.002 6c44.667 0 80.335 8.83301 107.002 26.5s50 40.5 70 68.5v102c-40.667 28.667 -89.667 43 -147 43c-42.667 0 -79.834 -10.5 -111.501 -31.5s-47.5 -51.833 -47.5 -92.5c0 -36 12.167 -64.333 36.5 -85s55.166 -31 92.499 -31zM99.0029 631
c0 3.33301 1.33105 6.16602 3.99805 8.49902s5.66699 3.5 9 3.5c2.66699 0 5.33398 -1.16699 8.00098 -3.5s4 -5.16602 4 -8.49902s-1.16699 -6.33301 -3.5 -9s-5.16602 -4 -8.49902 -4c-8.66699 0 -13 4.33301 -13 13zM313.001 631
c0 3.33301 1.33105 6.16602 3.99805 8.49902s5.66699 3.5 9 3.5c2.66699 0 5.33398 -1.16699 8.00098 -3.5s4 -5.16602 4 -8.49902s-1.16699 -6.33301 -3.5 -9s-5.16602 -4 -8.49902 -4c-8.66699 0 -13 4.33301 -13 13z" />
    <glyph glyph-name="aring" unicode="&#xe5;" horiz-adv-x="456" 
d="M89 409l-4.99805 8c44 27.333 88.667 41 134 41c57.333 0 98 -14.667 122 -44s36 -73.333 36 -132v-282h-10v85c-42.667 -59.333 -101.334 -89 -176.001 -89c-42.667 0 -76.667 11.5 -102 34.5s-38 53.167 -38 90.5c0 43.333 15.833 76.666 47.5 99.999
s72.834 35 123.501 35c59.333 0 107.666 -13.333 144.999 -40c0 24.667 -0.166992 43.834 -0.5 57.501s-1.5 30 -3.5 49s-5 33.667 -9 44s-9.5 21.5 -16.5 33.5s-15.833 21 -26.5 27s-23.834 11 -39.501 15s-33.834 6 -54.501 6c-41.333 0 -83.666 -13 -126.999 -39z
M189.002 6c44.667 0 80.335 8.83301 107.002 26.5s50 40.5 70 68.5v102c-40.667 28.667 -89.667 43 -147 43c-42.667 0 -79.834 -10.5 -111.501 -31.5s-47.5 -51.833 -47.5 -92.5c0 -36 12.167 -64.333 36.5 -85s55.166 -31 92.499 -31zM126.003 615
c0 25.333 9 47.166 27 65.499s39.667 27.5 65 27.5s47.166 -9.16699 65.499 -27.5s27.5 -40.166 27.5 -65.499s-9.16699 -47 -27.5 -65s-40.166 -27 -65.499 -27s-47 9 -65 27s-27 39.667 -27 65zM136.003 615c0 -23.333 8 -42.833 24 -58.5s35.333 -23.5 58 -23.5
c23.333 0 43 8 59 24s24 35.333 24 58c0 23.333 -8.16699 43 -24.5 59s-35.833 24 -58.5 24s-42 -8 -58 -24s-24 -35.667 -24 -59z" />
    <glyph glyph-name="ae" unicode="&#xe6;" horiz-adv-x="809" 
d="M218 458c81.333 0 130.997 -33.332 148.997 -99.999c38 66.667 100.667 100 188 100c58.667 0 106.5 -18.333 143.5 -55s55.5 -85 55.5 -145c0 -2.66699 -0.166992 -6.5 -0.5 -11.5s-0.5 -8.83301 -0.5 -11.5h-377v-131c38.667 -68 103 -102 193 -102
c31.333 0 61 6.16699 89 18.5s50.667 28.5 68 48.5l6 -6c-18.667 -22.667 -42.667 -40.167 -72 -52.5s-59.666 -18.5 -90.999 -18.5c-89.333 0 -155.333 33 -198 99c-46.667 -63.333 -107 -95 -181 -95c-42.667 0 -76.667 11.5 -102 34.5s-38 53.167 -38 90.5
c0 43.333 15.833 76.666 47.5 99.999s72.834 35 123.501 35c46.667 0 95 -3.33301 145 -10c4 69.333 -5 120.333 -27 153s-63 49 -123 49c-41.333 0 -83.666 -13 -126.999 -39l-5 8c44 27.333 88.667 41 134 41zM375.997 282.001l-0.00195312 -37h368
c0.666992 62 -16.666 111.333 -51.999 148s-82.333 55 -141 55c-85.333 0 -145.666 -34.333 -180.999 -103c4 -19.333 6 -40.333 6 -63zM188.995 6.00098c44.667 0 80.335 8.83301 107.002 26.5s50 40.5 70 68.5v134c-54.667 7.33301 -103.667 11 -147 11
c-42.667 0 -79.834 -10.5 -111.501 -31.5s-47.5 -51.833 -47.5 -92.5c0 -36 12.167 -64.333 36.5 -85s55.166 -31 92.499 -31z" />
    <glyph glyph-name="ccedilla" unicode="&#xe7;" horiz-adv-x="492" 
d="M200 -180l3.99707 9c26 -12.667 50.667 -19 74 -19c26.667 0 48.334 5.5 65.001 16.5s25 25.5 25 43.5c0 40 -30 60 -90 60h-6v63c-64 3.33301 -116.167 26 -156.5 68s-60.5 96.667 -60.5 164c0 65.333 21 120.5 63 165.5s93.667 67.5 155 67.5
c74.667 0 131.334 -17.667 170.001 -53l-6 -9c-39.333 34.667 -93.333 52 -162 52c-58 0 -107.5 -21.5 -148.5 -64.5s-61.5 -95.833 -61.5 -158.5c0 -67.333 20.833 -121.333 62.5 -162s95.5 -61 161.5 -61c31.333 0 61 6.16699 89 18.5s50.667 28.5 68 48.5l6 -6
c-18.667 -22.667 -42.667 -40.167 -72 -52.5s-59.666 -18.5 -90.999 -18.5h-7v-52c64 -0.666992 96 -24 96 -70c0 -20.667 -9.16699 -37.5 -27.5 -50.5s-42.5 -19.5 -72.5 -19.5c-24 0 -50 6.66699 -78 20z" />
    <glyph glyph-name="egrave" unicode="&#xe8;" horiz-adv-x="529" 
d="M446 69l6 -6c-18.667 -22.667 -42.667 -40.167 -72 -52.5s-59.666 -18.5 -90.999 -18.5c-68.667 0 -124.834 21.333 -168.501 64s-65.5 99 -65.5 169c0 68.667 18.833 124.667 56.5 168s92.167 65 163.5 65c58.667 0 106.5 -18.333 143.5 -55s55.5 -85 55.5 -145
c0 -2.66699 -0.166992 -6.5 -0.5 -11.5s-0.5 -8.83301 -0.5 -11.5h-408c0 -71.333 20.167 -128 60.5 -170s94.833 -63 163.5 -63c31.333 0 61 6.16699 89 18.5s50.667 28.5 68 48.5zM271 448c-62 0 -111.001 -18.833 -147.001 -56.5s-55.667 -86.5 -59 -146.5h399
c0.666992 62 -16.666 111.333 -51.999 148s-82.333 55 -141 55zM284.999 559l-109 141l7 6l110 -142z" />
    <glyph glyph-name="eacute" unicode="&#xe9;" horiz-adv-x="529" 
d="M446 69l6 -6c-18.667 -22.667 -42.667 -40.167 -72 -52.5s-59.666 -18.5 -90.999 -18.5c-68.667 0 -124.834 21.333 -168.501 64s-65.5 99 -65.5 169c0 68.667 18.833 124.667 56.5 168s92.167 65 163.5 65c58.667 0 106.5 -18.333 143.5 -55s55.5 -85 55.5 -145
c0 -2.66699 -0.166992 -6.5 -0.5 -11.5s-0.5 -8.83301 -0.5 -11.5h-408c0 -71.333 20.167 -128 60.5 -170s94.833 -63 163.5 -63c31.333 0 61 6.16699 89 18.5s50.667 28.5 68 48.5zM271 448c-62 0 -111.001 -18.833 -147.001 -56.5s-55.667 -86.5 -59 -146.5h399
c0.666992 62 -16.666 111.333 -51.999 148s-82.333 55 -141 55zM372.999 700l-109 -141l-8 5l110 142z" />
    <glyph glyph-name="ecircumflex" unicode="&#xea;" horiz-adv-x="529" 
d="M446 69l6 -6c-18.667 -22.667 -42.667 -40.167 -72 -52.5s-59.666 -18.5 -90.999 -18.5c-68.667 0 -124.834 21.333 -168.501 64s-65.5 99 -65.5 169c0 68.667 18.833 124.667 56.5 168s92.167 65 163.5 65c58.667 0 106.5 -18.333 143.5 -55s55.5 -85 55.5 -145
c0 -2.66699 -0.166992 -6.5 -0.5 -11.5s-0.5 -8.83301 -0.5 -11.5h-408c0 -71.333 20.167 -128 60.5 -170s94.833 -63 163.5 -63c31.333 0 61 6.16699 89 18.5s50.667 28.5 68 48.5zM271 448c-62 0 -111.001 -18.833 -147.001 -56.5s-55.667 -86.5 -59 -146.5h399
c0.666992 62 -16.666 111.333 -51.999 148s-82.333 55 -141 55zM276.999 708l113 -130l-7 -7l-108 124l-110 -124l-8 7l116 130h4z" />
    <glyph glyph-name="edieresis" unicode="&#xeb;" horiz-adv-x="529" 
d="M446 69l6 -6c-18.667 -22.667 -42.667 -40.167 -72 -52.5s-59.666 -18.5 -90.999 -18.5c-68.667 0 -124.834 21.333 -168.501 64s-65.5 99 -65.5 169c0 68.667 18.833 124.667 56.5 168s92.167 65 163.5 65c58.667 0 106.5 -18.333 143.5 -55s55.5 -85 55.5 -145
c0 -2.66699 -0.166992 -6.5 -0.5 -11.5s-0.5 -8.83301 -0.5 -11.5h-408c0 -71.333 20.167 -128 60.5 -170s94.833 -63 163.5 -63c31.333 0 61 6.16699 89 18.5s50.667 28.5 68 48.5zM271 448c-62 0 -111.001 -18.833 -147.001 -56.5s-55.667 -86.5 -59 -146.5h399
c0.666992 62 -16.666 111.333 -51.999 148s-82.333 55 -141 55zM143.999 631c0 3.33301 1.33301 6.16602 4 8.49902s5.66699 3.5 9 3.5s6.16602 -1.16699 8.49902 -3.5s3.5 -5.16602 3.5 -8.49902s-1.16699 -6.33301 -3.5 -9s-5.16602 -4 -8.49902 -4
c-8.66699 0 -13 4.33301 -13 13zM357.999 631c0 3.33301 1.33301 6.16602 4 8.49902s5.66699 3.5 9 3.5s6.16602 -1.16699 8.49902 -3.5s3.5 -5.16602 3.5 -8.49902s-1.16699 -6.33301 -3.5 -9s-5.16602 -4 -8.49902 -4c-8.66699 0 -13 4.33301 -13 13z" />
    <glyph glyph-name="igrave" unicode="&#xec;" horiz-adv-x="250" 
d="M120 0v450h10v-450h-10zM136 559l-109 141l7 6l110 -142z" />
    <glyph glyph-name="iacute" unicode="&#xed;" horiz-adv-x="250" 
d="M120 0v450h10v-450h-10zM224 700l-109 -141l-8 5l110 142z" />
    <glyph glyph-name="icircumflex" unicode="&#xee;" horiz-adv-x="250" 
d="M120 0v450h10v-450h-10zM129 708l113 -130l-7 -7l-108 124l-110 -124l-8 7l116 130h4z" />
    <glyph glyph-name="idieresis" unicode="&#xef;" horiz-adv-x="250" 
d="M120 0v450h10v-450h-10zM6 631c0 3.33301 1.33301 6.16602 4 8.49902s5.66699 3.5 9 3.5s6.16602 -1.16699 8.49902 -3.5s3.5 -5.16602 3.5 -8.49902s-1.16699 -6.33301 -3.5 -9s-5.16602 -4 -8.49902 -4c-8.66699 0 -13 4.33301 -13 13zM220 631
c0 3.33301 1.33301 6.16602 4 8.49902s5.66699 3.5 9 3.5s6.16602 -1.16699 8.49902 -3.5s3.5 -5.16602 3.5 -8.49902s-1.16699 -6.33301 -3.5 -9s-5.16602 -4 -8.49902 -4c-8.66699 0 -13 4.33301 -13 13z" />
    <glyph glyph-name="eth" unicode="&#xf0;" horiz-adv-x="570" 
d="M212 552l-5.00293 7.99902l118 68c-39.333 31.333 -81.666 55.333 -126.999 72l11 8c46.667 -19.333 88.334 -44.333 125.001 -75l103 60l5 -8l-100 -58c54.667 -46.667 97.167 -102.667 127.5 -168s45.5 -133.666 45.5 -204.999c0 -79.333 -21.333 -142.833 -64 -190.5
s-98 -71.5 -166 -71.5c-66.667 0 -121.667 22 -165 66s-65 99.667 -65 167s21.667 123 65 167s98.333 66 165 66c48.667 0 91.834 -12.833 129.501 -38.5s66.5 -61.167 86.5 -106.5c-16 124 -72.333 226.667 -169 308zM64.9971 224.999
c0 -65.333 20.5 -118.832 61.5 -160.499s93.833 -62.5 158.5 -62.5c65.333 0 118.333 23.167 159 69.5s61 108.166 61 185.499c-6 49.333 -29 93.5 -69 132.5s-90.333 58.5 -151 58.5c-64.667 0 -117.5 -20.833 -158.5 -62.5s-61.5 -95.167 -61.5 -160.5z" />
    <glyph glyph-name="ntilde" unicode="&#xf1;" horiz-adv-x="554" 
d="M90 0v450h10v-74c19.333 23.333 46.333 42.833 81 58.5s68.667 23.5 102 23.5c65.333 0 113.5 -16.667 144.5 -50s46.5 -85.333 46.5 -156v-252h-10v249c0 68 -14.667 118.167 -44 150.5s-75 48.5 -137 48.5c-36.667 0 -72.5 -9 -107.5 -27s-60.167 -37.667 -75.5 -59
v-362h-10zM143 596l-6.00098 7c33.333 27.333 62.333 41 87 41c16 0 34.667 -8.16699 56 -24.5s38.666 -24.5 51.999 -24.5c20.667 0 46.334 14.333 77.001 43l7 -7c-33.333 -30.667 -62 -46 -86 -46c-14.667 0 -32.667 8.16699 -54 24.5s-39.666 24.5 -54.999 24.5
c-21.333 0 -47.333 -12.667 -78 -38z" />
    <glyph glyph-name="ograve" unicode="&#xf2;" horiz-adv-x="570" 
d="M55 225c0 67.333 21.667 123 65 167s98.333 66 165 66s121.667 -22 165 -66s65 -99.667 65 -167s-21.667 -123 -65 -167s-98.333 -66 -165 -66s-121.667 22 -165 66s-65 99.667 -65 167zM65 225c0 -65.333 20.5 -118.833 61.5 -160.5s93.833 -62.5 158.5 -62.5
s117.5 20.833 158.5 62.5s61.5 95.167 61.5 160.5s-20.5 118.833 -61.5 160.5s-93.833 62.5 -158.5 62.5s-117.5 -20.833 -158.5 -62.5s-61.5 -95.167 -61.5 -160.5zM306 559l-109 141l7 6l110 -142z" />
    <glyph glyph-name="oacute" unicode="&#xf3;" horiz-adv-x="570" 
d="M55 225c0 67.333 21.667 123 65 167s98.333 66 165 66s121.667 -22 165 -66s65 -99.667 65 -167s-21.667 -123 -65 -167s-98.333 -66 -165 -66s-121.667 22 -165 66s-65 99.667 -65 167zM65 225c0 -65.333 20.5 -118.833 61.5 -160.5s93.833 -62.5 158.5 -62.5
s117.5 20.833 158.5 62.5s61.5 95.167 61.5 160.5s-20.5 118.833 -61.5 160.5s-93.833 62.5 -158.5 62.5s-117.5 -20.833 -158.5 -62.5s-61.5 -95.167 -61.5 -160.5zM374 700l-109 -141l-8 5l110 142z" />
    <glyph glyph-name="ocircumflex" unicode="&#xf4;" horiz-adv-x="570" 
d="M55 225c0 67.333 21.667 123 65 167s98.333 66 165 66s121.667 -22 165 -66s65 -99.667 65 -167s-21.667 -123 -65 -167s-98.333 -66 -165 -66s-121.667 22 -165 66s-65 99.667 -65 167zM65 225c0 -65.333 20.5 -118.833 61.5 -160.5s93.833 -62.5 158.5 -62.5
s117.5 20.833 158.5 62.5s61.5 95.167 61.5 160.5s-20.5 118.833 -61.5 160.5s-93.833 62.5 -158.5 62.5s-117.5 -20.833 -158.5 -62.5s-61.5 -95.167 -61.5 -160.5zM287 708l113 -130l-7 -7l-108 124l-110 -124l-8 7l116 130h4z" />
    <glyph glyph-name="otilde" unicode="&#xf5;" horiz-adv-x="570" 
d="M55 225c0 67.333 21.667 123 65 167s98.333 66 165 66s121.667 -22 165 -66s65 -99.667 65 -167s-21.667 -123 -65 -167s-98.333 -66 -165 -66s-121.667 22 -165 66s-65 99.667 -65 167zM65 225c0 -65.333 20.5 -118.833 61.5 -160.5s93.833 -62.5 158.5 -62.5
s117.5 20.833 158.5 62.5s61.5 95.167 61.5 160.5s-20.5 118.833 -61.5 160.5s-93.833 62.5 -158.5 62.5s-117.5 -20.833 -158.5 -62.5s-61.5 -95.167 -61.5 -160.5zM151 596l-6.00098 7c33.333 27.333 62.333 41 87 41c16 0 34.667 -8.16699 56 -24.5
s38.666 -24.5 51.999 -24.5c20.667 0 46.334 14.333 77.001 43l7 -7c-33.333 -30.667 -62 -46 -86 -46c-14.667 0 -32.667 8.16699 -54 24.5s-39.666 24.5 -54.999 24.5c-21.333 0 -47.333 -12.667 -78 -38z" />
    <glyph glyph-name="odieresis" unicode="&#xf6;" horiz-adv-x="570" 
d="M55 225c0 67.333 21.667 123 65 167s98.333 66 165 66s121.667 -22 165 -66s65 -99.667 65 -167s-21.667 -123 -65 -167s-98.333 -66 -165 -66s-121.667 22 -165 66s-65 99.667 -65 167zM65 225c0 -65.333 20.5 -118.833 61.5 -160.5s93.833 -62.5 158.5 -62.5
s117.5 20.833 158.5 62.5s61.5 95.167 61.5 160.5s-20.5 118.833 -61.5 160.5s-93.833 62.5 -158.5 62.5s-117.5 -20.833 -158.5 -62.5s-61.5 -95.167 -61.5 -160.5zM166 631c0 3.33301 1.33301 6.16602 4 8.49902s5.66699 3.5 9 3.5s6.16602 -1.16699 8.49902 -3.5
s3.5 -5.16602 3.5 -8.49902s-1.16699 -6.33301 -3.5 -9s-5.16602 -4 -8.49902 -4c-8.66699 0 -13 4.33301 -13 13zM380 631c0 3.33301 1.33301 6.16602 4 8.49902s5.66699 3.5 9 3.5s6.16602 -1.16699 8.49902 -3.5s3.5 -5.16602 3.5 -8.49902s-1.16699 -6.33301 -3.5 -9
s-5.16602 -4 -8.49902 -4c-8.66699 0 -13 4.33301 -13 13z" />
    <glyph glyph-name="divide" unicode="&#xf7;" horiz-adv-x="584" 
d="M280 579c0 3.33301 1.33301 6.16602 4 8.49902s5.66699 3.5 9 3.5s6.16602 -1.16699 8.49902 -3.5s3.5 -5.16602 3.5 -8.49902s-1.16699 -6.33301 -3.5 -9s-5.16602 -4 -8.49902 -4c-8.66699 0 -13 4.33301 -13 13zM280 142c0 3.33301 1.33301 6.16797 4 8.50098
s5.66699 3.5 9 3.5s6.16602 -1.33301 8.49902 -4s3.5 -5.33398 3.5 -8.00098c0 -3.33301 -1.16699 -6.33301 -3.5 -9s-5.16602 -4 -8.49902 -4c-8.66699 0 -13 4.33301 -13 13zM75 355.002v10h434v-10h-434z" />
    <glyph glyph-name="oslash" unicode="&#xf8;" horiz-adv-x="570" 
d="M55 225c0 67.333 21.667 123 65 167s98.333 66 165 66s122 -22.667 166 -68l59 60l7 -7l-59 -60c38 -42 57 -94.667 57 -158c0 -67.333 -21.667 -123 -65 -167s-98.333 -66 -165 -66c-62 0 -113.667 18.667 -155 56l-59 -61l-7 8l59 60c-45.333 43.333 -68 100 -68 170z
M65 225c0 -67.333 21.332 -121.667 63.999 -163l316 322c-41.333 42.667 -94.666 64 -159.999 64c-64.667 0 -117.5 -20.833 -158.5 -62.5s-61.5 -95.167 -61.5 -160.5zM504.999 224.999c0 59.333 -17.999 109.667 -53.999 151l-314 -321
c39.333 -35.333 88.666 -53 147.999 -53c64.667 0 117.5 20.833 158.5 62.5s61.5 95.167 61.5 160.5z" />
    <glyph glyph-name="ugrave" unicode="&#xf9;" horiz-adv-x="550" 
d="M460 450v-450h-10v83c-20.667 -24.667 -48.667 -46 -84 -64s-70.333 -27 -105 -27c-62 0 -107.667 16.667 -137 50s-44 85.333 -44 156v252h10v-249c0 -68 13.833 -118.167 41.5 -150.5s71.5 -48.5 131.5 -48.5c38 0 74.667 10 110 30s61 41.667 77 65v353h10zM296 559
l-109 141l7 6l110 -142z" />
    <glyph glyph-name="uacute" unicode="&#xfa;" horiz-adv-x="550" 
d="M460 450v-450h-10v83c-20.667 -24.667 -48.667 -46 -84 -64s-70.333 -27 -105 -27c-62 0 -107.667 16.667 -137 50s-44 85.333 -44 156v252h10v-249c0 -68 13.833 -118.167 41.5 -150.5s71.5 -48.5 131.5 -48.5c38 0 74.667 10 110 30s61 41.667 77 65v353h10zM364 700
l-109 -141l-8 5l110 142z" />
    <glyph glyph-name="ucircumflex" unicode="&#xfb;" horiz-adv-x="550" 
d="M460 450v-450h-10v83c-20.667 -24.667 -48.667 -46 -84 -64s-70.333 -27 -105 -27c-62 0 -107.667 16.667 -137 50s-44 85.333 -44 156v252h10v-249c0 -68 13.833 -118.167 41.5 -150.5s71.5 -48.5 131.5 -48.5c38 0 74.667 10 110 30s61 41.667 77 65v353h10zM272 708
l113 -130l-7 -7l-108 124l-110 -124l-8 7l116 130h4z" />
    <glyph glyph-name="udieresis" unicode="&#xfc;" horiz-adv-x="550" 
d="M460 450v-450h-10v83c-20.667 -24.667 -48.667 -46 -84 -64s-70.333 -27 -105 -27c-62 0 -107.667 16.667 -137 50s-44 85.333 -44 156v252h10v-249c0 -68 13.833 -118.167 41.5 -150.5s71.5 -48.5 131.5 -48.5c38 0 74.667 10 110 30s61 41.667 77 65v353h10zM156 631
c0 3.33301 1.33301 6.16602 4 8.49902s5.66699 3.5 9 3.5s6.16602 -1.16699 8.49902 -3.5s3.5 -5.16602 3.5 -8.49902s-1.16699 -6.33301 -3.5 -9s-5.16602 -4 -8.49902 -4c-8.66699 0 -13 4.33301 -13 13zM370 631c0 3.33301 1.33301 6.16602 4 8.49902s5.66699 3.5 9 3.5
s6.16602 -1.16699 8.49902 -3.5s3.5 -5.16602 3.5 -8.49902s-1.16699 -6.33301 -3.5 -9s-5.16602 -4 -8.49902 -4c-8.66699 0 -13 4.33301 -13 13z" />
    <glyph glyph-name="yacute" unicode="&#xfd;" horiz-adv-x="466" 
d="M446 450l-185 -450c-32 -77.333 -60 -130 -84 -158s-51.333 -42 -82 -42c-19.333 0 -40.666 5 -63.999 15l4 9c23.333 -10 42.666 -15 57.999 -15c28 0 53.5 12.833 76.5 38.5s46.833 68.5 71.5 128.5l10 24l-231 450h11l187 -366l38 -74l31 76l148 364h11zM322 700
l-109 -141l-8 5l110 142z" />
    <glyph glyph-name="thorn" unicode="&#xfe;" horiz-adv-x="551" 
d="M90 -200l-0.000976562 899.999h10v-321c19.333 23.333 45.833 42.333 79.5 57s67.5 22 101.5 22c66.667 0 119.167 -20.833 157.5 -62.5s57.5 -96.167 57.5 -163.5c0 -69.333 -21 -126.666 -63 -171.999s-96.667 -68 -164 -68c-69.333 0 -125.666 16.667 -168.999 50
v-242h-10zM280.999 447.999c-36.667 0 -72.167 -8.50098 -106.5 -25.501s-59.166 -36.167 -74.499 -57.5v-310c48 -35.333 104.667 -53 170 -53c63.333 0 115.166 21.167 155.499 63.5s60.5 96.833 60.5 163.5s-18.167 119.834 -54.5 159.501s-86.5 59.5 -150.5 59.5z" />
    <glyph glyph-name="ydieresis" unicode="&#xff;" horiz-adv-x="466" 
d="M446 450l-185 -450c-32 -77.333 -60 -130 -84 -158s-51.333 -42 -82 -42c-19.333 0 -40.666 5 -63.999 15l4 9c23.333 -10 42.666 -15 57.999 -15c28 0 53.5 12.833 76.5 38.5s46.833 68.5 71.5 128.5l10 24l-231 450h11l187 -366l38 -74l31 76l148 364h11zM114 631
c0 3.33301 1.33301 6.16602 4 8.49902s5.66699 3.5 9 3.5s6.16602 -1.16699 8.49902 -3.5s3.5 -5.16602 3.5 -8.49902s-1.16699 -6.33301 -3.5 -9s-5.16602 -4 -8.49902 -4c-8.66699 0 -13 4.33301 -13 13zM328 631c0 3.33301 1.33301 6.16602 4 8.49902s5.66699 3.5 9 3.5
s6.16602 -1.16699 8.49902 -3.5s3.5 -5.16602 3.5 -8.49902s-1.16699 -6.33301 -3.5 -9s-5.16602 -4 -8.49902 -4c-8.66699 0 -13 4.33301 -13 13z" />
    <glyph glyph-name="Amacron" unicode="&#x100;" horiz-adv-x="685" 
d="M30 0l311 708h3l311 -708h-11l-122 277h-360l-121 -277h-11zM342 688l-176 -401h352zM195 790v10h294v-10h-294z" />
    <glyph glyph-name="amacron" unicode="&#x101;" horiz-adv-x="456" 
d="M89 409l-4.99805 8c44 27.333 88.667 41 134 41c57.333 0 98 -14.667 122 -44s36 -73.333 36 -132v-282h-10v85c-42.667 -59.333 -101.334 -89 -176.001 -89c-42.667 0 -76.667 11.5 -102 34.5s-38 53.167 -38 90.5c0 43.333 15.833 76.666 47.5 99.999
s72.834 35 123.501 35c59.333 0 107.666 -13.333 144.999 -40c0 24.667 -0.166992 43.834 -0.5 57.501s-1.5 30 -3.5 49s-5 33.667 -9 44s-9.5 21.5 -16.5 33.5s-15.833 21 -26.5 27s-23.834 11 -39.501 15s-33.834 6 -54.501 6c-41.333 0 -83.666 -13 -126.999 -39z
M189.002 6c44.667 0 80.335 8.83301 107.002 26.5s50 40.5 70 68.5v102c-40.667 28.667 -89.667 43 -147 43c-42.667 0 -79.834 -10.5 -111.501 -31.5s-47.5 -51.833 -47.5 -92.5c0 -36 12.167 -64.333 36.5 -85s55.166 -31 92.499 -31zM111.003 640v10h234v-10h-234z" />
    <glyph glyph-name="Abreve" unicode="&#x102;" horiz-adv-x="685" 
d="M30 0l311 708h3l311 -708h-11l-122 277h-360l-121 -277h-11zM342 688l-176 -401h352zM194 834l7 6c37.333 -46.667 85 -70 143 -70c56 0 102.667 23.333 140 70l7 -6c-36.667 -49.333 -85.667 -74 -147 -74c-36.667 0 -68 8 -94 24s-44.667 32.667 -56 50z" />
    <glyph glyph-name="abreve" unicode="&#x103;" horiz-adv-x="456" 
d="M89 409l-4.99805 8c44 27.333 88.667 41 134 41c57.333 0 98 -14.667 122 -44s36 -73.333 36 -132v-282h-10v85c-42.667 -59.333 -101.334 -89 -176.001 -89c-42.667 0 -76.667 11.5 -102 34.5s-38 53.167 -38 90.5c0 43.333 15.833 76.666 47.5 99.999
s72.834 35 123.501 35c59.333 0 107.666 -13.333 144.999 -40c0 24.667 -0.166992 43.834 -0.5 57.501s-1.5 30 -3.5 49s-5 33.667 -9 44s-9.5 21.5 -16.5 33.5s-15.833 21 -26.5 27s-23.834 11 -39.501 15s-33.834 6 -54.501 6c-41.333 0 -83.666 -13 -126.999 -39z
M189.002 6c44.667 0 80.335 8.83301 107.002 26.5s50 40.5 70 68.5v102c-40.667 28.667 -89.667 43 -147 43c-42.667 0 -79.834 -10.5 -111.501 -31.5s-47.5 -51.833 -47.5 -92.5c0 -36 12.167 -64.333 36.5 -85s55.166 -31 92.499 -31zM100.003 674l7 6
c37.333 -46.667 78.333 -70 123 -70c42.667 0 82.667 23.333 120 70l7 -6c-36.667 -49.333 -79 -74 -127 -74c-54 0 -97.333 24.667 -130 74z" />
    <glyph glyph-name="Aogonek" unicode="&#x104;" horiz-adv-x="685" 
d="M646 -181l3 -8.99902c-16 -6.66699 -33.333 -10 -52 -10c-24.667 0 -47.5 7 -68.5 21s-31.5 37 -31.5 69c0 33.333 14.333 61.333 43 84s61.667 34.667 99 36l-117 267h-360l-121 -277h-11l311 708h3l311 -708h-11c-35.333 -0.666992 -67 -11.334 -95 -32.001
s-42 -46.667 -42 -78c0 -28.667 9.83301 -49.167 29.5 -61.5s40.167 -18.5 61.5 -18.5c19.333 0 35.333 3 48 9zM342 688.001l-176 -401h352z" />
    <glyph glyph-name="aogonek" unicode="&#x105;" horiz-adv-x="456" 
d="M376 -181l3.00195 -8.99902c-16 -6.66699 -33.333 -10 -52 -10c-24.667 0 -47.5 7 -68.5 21s-31.5 37 -31.5 69c0 32.667 14 60.167 42 82.5s60.333 34.5 97 36.5v76c-42.667 -59.333 -101.334 -89 -176.001 -89c-42.667 0 -76.667 11.5 -102 34.5s-38 53.167 -38 90.5
c0 43.333 15.833 76.666 47.5 99.999s72.834 35 123.501 35c59.333 0 107.666 -13.333 144.999 -40c0 24.667 -0.166992 43.834 -0.5 57.501s-1.5 30 -3.5 49s-5 33.667 -9 44s-9.5 21.5 -16.5 33.5s-15.833 21 -26.5 27s-23.834 11 -39.501 15s-33.834 6 -54.501 6
c-41.333 0 -83.666 -13 -126.999 -39l-5 8c44 27.333 88.667 41 134 41c57.333 0 98 -14.667 122 -44s36 -73.333 36 -132v-282h-5c-34.667 -1.33301 -65.667 -12.333 -93 -33s-41 -46.334 -41 -77.001c0 -28.667 9.83301 -49.167 29.5 -61.5s40.167 -18.5 61.5 -18.5
c19.333 0 35.333 3 48 9zM189.002 6.00098c44.667 0 80.335 8.83301 107.002 26.5s50 40.5 70 68.5v102c-40.667 28.667 -89.667 43 -147 43c-42.667 0 -79.834 -10.5 -111.501 -31.5s-47.5 -51.833 -47.5 -92.5c0 -36 12.167 -64.333 36.5 -85s55.166 -31 92.499 -31z" />
    <glyph glyph-name="Cacute" unicode="&#x106;" horiz-adv-x="657" 
d="M611 75l6.00195 -7.99902c-24.667 -23.333 -56.334 -41.666 -95.001 -54.999s-78 -20 -118 -20c-102.667 0 -185.667 32.667 -249 98s-95 152 -95 260c0 102 31 187.167 93 255.5s142 102.5 240 102.5c87.333 0 157.666 -21 210.999 -63l-7 -7
c-49.333 40 -117 60 -203 60c-96 0 -174 -33.333 -234 -100s-90 -149.334 -90 -248.001c0 -104.667 30.833 -188.834 92.5 -252.501s142.167 -95.5 241.5 -95.5c81.333 0 150.333 24.333 207 73zM499.002 832.001l-154 -90l-5 7l155 91z" />
    <glyph glyph-name="cacute" unicode="&#x107;" horiz-adv-x="492" 
d="M446 69l5.99902 -6c-18.667 -22.667 -42.667 -40.167 -72 -52.5s-59.666 -18.5 -90.999 -18.5c-68.667 0 -124.834 21.333 -168.501 64s-65.5 99 -65.5 169c0 65.333 21 120.5 63 165.5s93.667 67.5 155 67.5c74.667 0 131.334 -17.667 170.001 -53l-6 -9
c-39.333 34.667 -93.333 52 -162 52c-58 0 -107.5 -21.5 -148.5 -64.5s-61.5 -95.833 -61.5 -158.5c0 -67.333 20.833 -121.333 62.5 -162s95.5 -61 161.5 -61c31.333 0 61 6.16699 89 18.5s50.667 28.5 68 48.5zM366.999 700l-109 -141l-8 5l110 142z" />
    <glyph glyph-name="Ccircumflex" unicode="&#x108;" horiz-adv-x="657" 
d="M611 75l6.00195 -7.99902c-24.667 -23.333 -56.334 -41.666 -95.001 -54.999s-78 -20 -118 -20c-102.667 0 -185.667 32.667 -249 98s-95 152 -95 260c0 102 31 187.167 93 255.5s142 102.5 240 102.5c87.333 0 157.666 -21 210.999 -63l-7 -7
c-49.333 40 -117 60 -203 60c-96 0 -174 -33.333 -234 -100s-90 -149.334 -90 -248.001c0 -104.667 30.833 -188.834 92.5 -252.501s142.167 -95.5 241.5 -95.5c81.333 0 150.333 24.333 207 73zM230.002 750.001l165 90h4l164 -90l-8 -7l-158 87l-160 -87z" />
    <glyph glyph-name="ccircumflex" unicode="&#x109;" horiz-adv-x="492" 
d="M446 69l5.99902 -6c-18.667 -22.667 -42.667 -40.167 -72 -52.5s-59.666 -18.5 -90.999 -18.5c-68.667 0 -124.834 21.333 -168.501 64s-65.5 99 -65.5 169c0 65.333 21 120.5 63 165.5s93.667 67.5 155 67.5c74.667 0 131.334 -17.667 170.001 -53l-6 -9
c-39.333 34.667 -93.333 52 -162 52c-58 0 -107.5 -21.5 -148.5 -64.5s-61.5 -95.833 -61.5 -158.5c0 -67.333 20.833 -121.333 62.5 -162s95.5 -61 161.5 -61c31.333 0 61 6.16699 89 18.5s50.667 28.5 68 48.5zM280.999 708l113 -130l-7 -7l-108 124l-110 -124l-8 7
l116 130h4z" />
    <glyph glyph-name="Cdotaccent" unicode="&#x10a;" horiz-adv-x="657" 
d="M611 75l6.00195 -7.99902c-24.667 -23.333 -56.334 -41.666 -95.001 -54.999s-78 -20 -118 -20c-102.667 0 -185.667 32.667 -249 98s-95 152 -95 260c0 102 31 187.167 93 255.5s142 102.5 240 102.5c87.333 0 157.666 -21 210.999 -63l-7 -7
c-49.333 40 -117 60 -203 60c-96 0 -174 -33.333 -234 -100s-90 -149.334 -90 -248.001c0 -104.667 30.833 -188.834 92.5 -252.501s142.167 -95.5 241.5 -95.5c81.333 0 150.333 24.333 207 73zM367.002 790.001c0 8 4.33301 12 13 12c8 0 12 -4 12 -12
c0 -8.66699 -4 -13 -12 -13c-8.66699 0 -13 4.33301 -13 13z" />
    <glyph glyph-name="cdotaccent" unicode="&#x10b;" horiz-adv-x="492" 
d="M446 69l5.99902 -6c-18.667 -22.667 -42.667 -40.167 -72 -52.5s-59.666 -18.5 -90.999 -18.5c-68.667 0 -124.834 21.333 -168.501 64s-65.5 99 -65.5 169c0 65.333 21 120.5 63 165.5s93.667 67.5 155 67.5c74.667 0 131.334 -17.667 170.001 -53l-6 -9
c-39.333 34.667 -93.333 52 -162 52c-58 0 -107.5 -21.5 -148.5 -64.5s-61.5 -95.833 -61.5 -158.5c0 -67.333 20.833 -121.333 62.5 -162s95.5 -61 161.5 -61c31.333 0 61 6.16699 89 18.5s50.667 28.5 68 48.5zM273.999 633c0 3.33301 1.33301 6.16602 4 8.49902
s5.66699 3.5 9 3.5s6.16602 -1.16699 8.49902 -3.5s3.5 -5.16602 3.5 -8.49902s-1.16699 -6.33301 -3.5 -9s-5.16602 -4 -8.49902 -4c-8.66699 0 -13 4.33301 -13 13z" />
    <glyph glyph-name="Ccaron" unicode="&#x10c;" horiz-adv-x="657" 
d="M611 75l6.00195 -7.99902c-24.667 -23.333 -56.334 -41.666 -95.001 -54.999s-78 -20 -118 -20c-102.667 0 -185.667 32.667 -249 98s-95 152 -95 260c0 102 31 187.167 93 255.5s142 102.5 240 102.5c87.333 0 157.666 -21 210.999 -63l-7 -7
c-49.333 40 -117 60 -203 60c-96 0 -174 -33.333 -234 -100s-90 -149.334 -90 -248.001c0 -104.667 30.833 -188.834 92.5 -252.501s142.167 -95.5 241.5 -95.5c81.333 0 150.333 24.333 207 73zM395.002 743.001l-165 90l7 7l160 -87l158 87l8 -7l-164 -90h-4z" />
    <glyph glyph-name="ccaron" unicode="&#x10d;" horiz-adv-x="492" 
d="M446 69l5.99902 -6c-18.667 -22.667 -42.667 -40.167 -72 -52.5s-59.666 -18.5 -90.999 -18.5c-68.667 0 -124.834 21.333 -168.501 64s-65.5 99 -65.5 169c0 65.333 21 120.5 63 165.5s93.667 67.5 155 67.5c74.667 0 131.334 -17.667 170.001 -53l-6 -9
c-39.333 34.667 -93.333 52 -162 52c-58 0 -107.5 -21.5 -148.5 -64.5s-61.5 -95.833 -61.5 -158.5c0 -67.333 20.833 -121.333 62.5 -162s95.5 -61 161.5 -61c31.333 0 61 6.16699 89 18.5s50.667 28.5 68 48.5zM286.999 571l-115 130l7 7l110 -124l108 124l8 -7l-114 -130
h-4z" />
    <glyph glyph-name="Dcaron" unicode="&#x10e;" horiz-adv-x="734" 
d="M120 0l-0.00195312 700h10c17.333 0 40.833 0.5 70.5 1.5s56.5 1.5 80.5 1.5c67.333 0 126.833 -9.16699 178.5 -27.5s92.834 -43.666 123.501 -75.999s53.5 -68.333 68.5 -108s22.5 -82.834 22.5 -129.501c0 -106 -34.667 -193.167 -104 -261.5
s-168.333 -102.5 -297 -102.5c-19.333 0 -44.666 0.333008 -75.999 1s-55.333 1 -72 1h-5zM278.998 693c-23.333 0 -49.999 -0.5 -79.999 -1.5s-53 -1.5 -69 -1.5v-680l144 -2c125.333 0 221.666 33.5 288.999 100.5s101 151.5 101 253.5c0 96 -31.667 175.167 -95 237.5
s-160 93.5 -290 93.5zM334.999 743l-165 90l7 7l160 -87l158 87l8 -7l-164 -90h-4z" />
    <glyph glyph-name="dcaron" unicode="&#x10f;" horiz-adv-x="552" 
d="M452 0l0.00292969 75.999c-18.667 -23.333 -43.834 -43.166 -75.501 -59.499s-63.834 -24.5 -96.501 -24.5c-68 0 -122.5 21.167 -163.5 63.5s-61.5 98.833 -61.5 169.5c0 68 23.167 123.833 69.5 167.5s104.166 65.5 173.499 65.5c60 0 111.333 -16 154 -48v290h10v-700
h-10zM280.003 1.99902c34 0 67.5 9.5 100.5 28.5s56.833 39.167 71.5 60.5v307c-47.333 33.333 -99 50 -155 50c-66 0 -121.167 -21 -165.5 -63s-66.5 -95.333 -66.5 -160c0 -68 19.5 -122.167 58.5 -162.5s91.167 -60.5 156.5 -60.5zM587.003 699.999l10.001 -0.00195312
c6.66699 -11.333 10 -25.666 10 -42.999c0 -27.333 -5.5 -51 -16.5 -71s-24.833 -34 -41.5 -42l-3 8c15.333 8.66699 27.666 22.334 36.999 41.001s14 39.667 14 63c0 18 -3.33301 32.667 -10 44z" />
    <glyph glyph-name="Dcroat" unicode="&#x110;" horiz-adv-x="764" 
d="M10 355l-0.00195312 10h140v335h10c17.333 0 41 0.5 71 1.5s56.667 1.5 80 1.5c67.333 0 126.833 -9.16699 178.5 -27.5s92.834 -43.666 123.501 -75.999s53.5 -68.333 68.5 -108s22.5 -82.834 22.5 -129.501c0 -106 -34.667 -193.167 -104 -261.5
s-168.333 -102.5 -297 -102.5c-19.333 0 -44.666 0.333008 -75.999 1s-55.333 1 -72 1h-5v355h-140zM308.998 693c-23.333 0 -49.999 -0.5 -79.999 -1.5s-53 -1.5 -69 -1.5v-325h213v-10h-213v-345l144 -2c125.333 0 221.666 33.5 288.999 100.5s101 151.5 101 253.5
c0 96 -31.667 175.167 -95 237.5s-160 93.5 -290 93.5z" />
    <glyph glyph-name="dcroat" unicode="&#x111;" horiz-adv-x="552" 
d="M243 561l0.00292969 9.99902h209v129h10v-129h120v-10h-120v-561h-10v76c-18.667 -23.333 -43.834 -43.166 -75.501 -59.499s-63.834 -24.5 -96.501 -24.5c-68 0 -122.5 21.167 -163.5 63.5s-61.5 98.833 -61.5 169.5c0 68 23.167 123.833 69.5 167.5
s104.166 65.5 173.499 65.5c60 0 111.333 -16 154 -48v151h-209zM280.003 1.99902c34 0 67.5 9.5 100.5 28.5s56.833 39.167 71.5 60.5v307c-47.333 33.333 -99 50 -155 50c-66 0 -121.167 -21 -165.5 -63s-66.5 -95.333 -66.5 -160c0 -68 19.5 -122.167 58.5 -162.5
s91.167 -60.5 156.5 -60.5z" />
    <glyph glyph-name="Emacron" unicode="&#x112;" horiz-adv-x="575" 
d="M120 0v700h375v-10h-365v-328h335v-10h-335v-342h375v-10h-385zM160 790v10h294v-10h-294z" />
    <glyph glyph-name="emacron" unicode="&#x113;" horiz-adv-x="529" 
d="M446 69l6 -6c-18.667 -22.667 -42.667 -40.167 -72 -52.5s-59.666 -18.5 -90.999 -18.5c-68.667 0 -124.834 21.333 -168.501 64s-65.5 99 -65.5 169c0 68.667 18.833 124.667 56.5 168s92.167 65 163.5 65c58.667 0 106.5 -18.333 143.5 -55s55.5 -85 55.5 -145
c0 -2.66699 -0.166992 -6.5 -0.5 -11.5s-0.5 -8.83301 -0.5 -11.5h-408c0 -71.333 20.167 -128 60.5 -170s94.833 -63 163.5 -63c31.333 0 61 6.16699 89 18.5s50.667 28.5 68 48.5zM271 448c-62 0 -111.001 -18.833 -147.001 -56.5s-55.667 -86.5 -59 -146.5h399
c0.666992 62 -16.666 111.333 -51.999 148s-82.333 55 -141 55zM147.999 640v10h234v-10h-234z" />
    <glyph glyph-name="Edotaccent" unicode="&#x116;" horiz-adv-x="575" 
d="M120 0v700h375v-10h-365v-328h335v-10h-335v-342h375v-10h-385zM297 790c0 8 4.33301 12 13 12c8 0 12 -4 12 -12c0 -8.66699 -4 -13 -12 -13c-8.66699 0 -13 4.33301 -13 13z" />
    <glyph glyph-name="edotaccent" unicode="&#x117;" horiz-adv-x="529" 
d="M446 69l6 -6c-18.667 -22.667 -42.667 -40.167 -72 -52.5s-59.666 -18.5 -90.999 -18.5c-68.667 0 -124.834 21.333 -168.501 64s-65.5 99 -65.5 169c0 68.667 18.833 124.667 56.5 168s92.167 65 163.5 65c58.667 0 106.5 -18.333 143.5 -55s55.5 -85 55.5 -145
c0 -2.66699 -0.166992 -6.5 -0.5 -11.5s-0.5 -8.83301 -0.5 -11.5h-408c0 -71.333 20.167 -128 60.5 -170s94.833 -63 163.5 -63c31.333 0 61 6.16699 89 18.5s50.667 28.5 68 48.5zM271 448c-62 0 -111.001 -18.833 -147.001 -56.5s-55.667 -86.5 -59 -146.5h399
c0.666992 62 -16.666 111.333 -51.999 148s-82.333 55 -141 55zM250.999 633c0 3.33301 1.33105 6.16602 3.99805 8.49902s5.66699 3.5 9 3.5c2.66699 0 5.33398 -1.16699 8.00098 -3.5s4 -5.16602 4 -8.49902s-1.16699 -6.33301 -3.5 -9s-5.16602 -4 -8.49902 -4
c-8.66699 0 -13 4.33301 -13 13z" />
    <glyph glyph-name="Eogonek" unicode="&#x118;" horiz-adv-x="575" 
d="M120 0v699.999h375v-10h-365v-328h335v-10h-335v-342h375v-10c-35.333 0 -67.333 -10.5 -96 -31.5s-43 -47.167 -43 -78.5c0 -28.667 9.83301 -49.167 29.5 -61.5s40.167 -18.5 61.5 -18.5c19.333 0 35.333 3 48 9l3 -9c-16 -6.66699 -33.333 -10 -52 -10
c-24.667 0 -47.5 7 -68.5 21s-31.5 37 -31.5 69c0 25.333 8.5 47.833 25.5 67.5s38.833 33.834 65.5 42.501h-327z" />
    <glyph glyph-name="eogonek" unicode="&#x119;" horiz-adv-x="529" 
d="M446 69l6.00098 -6c-22.667 -27.333 -52.667 -47 -90 -59c-53.333 -34.667 -80 -72.667 -80 -114c0 -28.667 9.83301 -49.167 29.5 -61.5s40.167 -18.5 61.5 -18.5c19.333 0 35.333 3 48 9l3 -9c-16 -6.66699 -33.333 -10 -52 -10c-24.667 0 -47.5 7 -68.5 21
s-31.5 37 -31.5 69c0 40.667 23.667 77 71 109c-20.667 -4.66699 -38.667 -7 -54 -7c-68.667 0 -124.834 21.333 -168.501 64s-65.5 99 -65.5 169c0 68.667 18.833 124.667 56.5 168s92.167 65 163.5 65c58.667 0 106.5 -18.333 143.5 -55s55.5 -85 55.5 -145
c0 -2.66699 -0.166992 -6.5 -0.5 -11.5s-0.5 -8.83301 -0.5 -11.5h-408c0 -71.333 20.167 -128 60.5 -170s94.833 -63 163.5 -63c31.333 0 61 6.16699 89 18.5s50.667 28.5 68 48.5zM271.001 448c-62 0 -111.001 -18.833 -147.001 -56.5s-55.667 -86.5 -59 -146.5h399
c0.666992 62 -16.666 111.333 -51.999 148s-82.333 55 -141 55z" />
    <glyph glyph-name="Ecaron" unicode="&#x11a;" horiz-adv-x="575" 
d="M120 0v700h375v-10h-365v-328h335v-10h-335v-342h375v-10h-385zM315 743l-165 90l7 7l160 -87l158 87l8 -7l-164 -90h-4z" />
    <glyph glyph-name="ecaron" unicode="&#x11b;" horiz-adv-x="529" 
d="M446 69l6 -6c-18.667 -22.667 -42.667 -40.167 -72 -52.5s-59.666 -18.5 -90.999 -18.5c-68.667 0 -124.834 21.333 -168.501 64s-65.5 99 -65.5 169c0 68.667 18.833 124.667 56.5 168s92.167 65 163.5 65c58.667 0 106.5 -18.333 143.5 -55s55.5 -85 55.5 -145
c0 -2.66699 -0.166992 -6.5 -0.5 -11.5s-0.5 -8.83301 -0.5 -11.5h-408c0 -71.333 20.167 -128 60.5 -170s94.833 -63 163.5 -63c31.333 0 61 6.16699 89 18.5s50.667 28.5 68 48.5zM271 448c-62 0 -111.001 -18.833 -147.001 -56.5s-55.667 -86.5 -59 -146.5h399
c0.666992 62 -16.666 111.333 -51.999 148s-82.333 55 -141 55zM272.999 571l-115 130l7 7l110 -124l108 124l8 -7l-114 -130h-4z" />
    <glyph glyph-name="Gcircumflex" unicode="&#x11c;" horiz-adv-x="727" 
d="M418 303l0.00195312 10.002h239v-226c-29.333 -29.333 -68.833 -52.5 -118.5 -69.5s-97.5 -25.5 -143.5 -25.5c-98.667 0 -179.167 32.667 -241.5 98s-93.5 152 -93.5 260c0 102 31 187.167 93 255.5s142 102.5 240 102.5c87.333 0 157.666 -21 210.999 -63l-7 -7
c-49.333 40 -117 60 -203 60c-96 0 -174 -33.333 -234 -100s-90 -149.334 -90 -248.001c0 -104.667 30.167 -188.834 90.5 -252.501s139.166 -95.5 236.499 -95.5c46 0 92.167 8 138.5 24s83.5 37.667 111.5 65v212h-229zM230.002 750.002l165 90h4l164 -90l-8 -7l-158 87
l-160 -87z" />
    <glyph glyph-name="gcircumflex" unicode="&#x11d;" horiz-adv-x="484" 
d="M20 -71c0 34.667 12.3311 63.167 36.998 85.5s59.334 37.5 104.001 45.5c-12 12 -18 28.333 -18 49c0 19.333 6.66699 36.333 20 51c-29.333 12 -52.333 30.667 -69 56s-25 54 -25 86c0 45.333 15.667 82.666 47 111.999s72 44 122 44c44 0 81.667 -12.333 113 -37
l123 37v-10l-115 -34c32 -30 48 -67.333 48 -112c0 -45.333 -15.667 -82.666 -47 -111.999s-72 -44 -122 -44c-24.667 0 -46.667 3.33301 -66 10c-12.667 -12 -19 -27.667 -19 -47s7 -35 21 -47c22 3.33301 43.667 5 65 5c66.667 0 119.834 -12 159.501 -36
s59.5 -58 59.5 -102c0 -43.333 -19.833 -77 -59.5 -101s-92.834 -36 -159.501 -36c-67.333 0 -120.666 11.833 -159.999 35.5s-59 57.5 -59 101.5zM29.998 -71c0 -40 19.167 -71.167 57.5 -93.5s88.833 -33.5 151.5 -33.5s113.167 11.167 151.5 33.5s57.5 53.5 57.5 93.5
s-19.333 71.333 -58 94s-89 34 -151 34s-112.333 -11.333 -151 -34s-58 -54 -58 -94zM78.998 302c0 -42 15 -76.833 45 -104.5s68 -41.5 114 -41.5s84 13.833 114 41.5s45 62.5 45 104.5s-15 76.833 -45 104.5s-68 41.5 -114 41.5s-84 -13.833 -114 -41.5
s-45 -62.5 -45 -104.5zM243.998 708l113 -130l-7 -7l-108 124l-110 -124l-8 7l116 130h4z" />
    <glyph glyph-name="Gbreve" unicode="&#x11e;" horiz-adv-x="727" 
d="M418 303l0.00195312 10.002h239v-226c-29.333 -29.333 -68.833 -52.5 -118.5 -69.5s-97.5 -25.5 -143.5 -25.5c-98.667 0 -179.167 32.667 -241.5 98s-93.5 152 -93.5 260c0 102 31 187.167 93 255.5s142 102.5 240 102.5c87.333 0 157.666 -21 210.999 -63l-7 -7
c-49.333 40 -117 60 -203 60c-96 0 -174 -33.333 -234 -100s-90 -149.334 -90 -248.001c0 -104.667 30.167 -188.834 90.5 -252.501s139.166 -95.5 236.499 -95.5c46 0 92.167 8 138.5 24s83.5 37.667 111.5 65v212h-229zM250.002 834.002l7 6
c37.333 -46.667 85 -70 143 -70c56 0 102.667 23.333 140 70l7 -6c-37.333 -49.333 -86.333 -74 -147 -74c-36.667 0 -68 8 -94 24s-44.667 32.667 -56 50z" />
    <glyph glyph-name="gbreve" unicode="&#x11f;" horiz-adv-x="484" 
d="M20 -71c0 34.667 12.3311 63.167 36.998 85.5s59.334 37.5 104.001 45.5c-12 12 -18 28.333 -18 49c0 19.333 6.66699 36.333 20 51c-29.333 12 -52.333 30.667 -69 56s-25 54 -25 86c0 45.333 15.667 82.666 47 111.999s72 44 122 44c44 0 81.667 -12.333 113 -37
l123 37v-10l-115 -34c32 -30 48 -67.333 48 -112c0 -45.333 -15.667 -82.666 -47 -111.999s-72 -44 -122 -44c-24.667 0 -46.667 3.33301 -66 10c-12.667 -12 -19 -27.667 -19 -47s7 -35 21 -47c22 3.33301 43.667 5 65 5c66.667 0 119.834 -12 159.501 -36
s59.5 -58 59.5 -102c0 -43.333 -19.833 -77 -59.5 -101s-92.834 -36 -159.501 -36c-67.333 0 -120.666 11.833 -159.999 35.5s-59 57.5 -59 101.5zM29.998 -71c0 -40 19.167 -71.167 57.5 -93.5s88.833 -33.5 151.5 -33.5s113.167 11.167 151.5 33.5s57.5 53.5 57.5 93.5
s-19.333 71.333 -58 94s-89 34 -151 34s-112.333 -11.333 -151 -34s-58 -54 -58 -94zM78.998 302c0 -42 15 -76.833 45 -104.5s68 -41.5 114 -41.5s84 13.833 114 41.5s45 62.5 45 104.5s-15 76.833 -45 104.5s-68 41.5 -114 41.5s-84 -13.833 -114 -41.5
s-45 -62.5 -45 -104.5zM112.998 674l6.99902 6c37.333 -46.667 78.333 -70 123 -70c42.667 0 82.667 23.333 120 70l7 -6c-37.333 -49.333 -79.666 -74 -126.999 -74c-54 0 -97.333 24.667 -130 74z" />
    <glyph glyph-name="Gdotaccent" unicode="&#x120;" horiz-adv-x="727" 
d="M418 303l0.00195312 10.002h239v-226c-29.333 -29.333 -68.833 -52.5 -118.5 -69.5s-97.5 -25.5 -143.5 -25.5c-98.667 0 -179.167 32.667 -241.5 98s-93.5 152 -93.5 260c0 102 31 187.167 93 255.5s142 102.5 240 102.5c87.333 0 157.666 -21 210.999 -63l-7 -7
c-49.333 40 -117 60 -203 60c-96 0 -174 -33.333 -234 -100s-90 -149.334 -90 -248.001c0 -104.667 30.167 -188.834 90.5 -252.501s139.166 -95.5 236.499 -95.5c46 0 92.167 8 138.5 24s83.5 37.667 111.5 65v212h-229zM377.002 790.002c0 8 4.33301 12 13 12
c8 0 12 -4 12 -12c0 -8.66699 -4 -13 -12 -13c-8.66699 0 -13 4.33301 -13 13z" />
    <glyph glyph-name="gdotaccent" unicode="&#x121;" horiz-adv-x="484" 
d="M20 -71c0 34.667 12.3311 63.167 36.998 85.5s59.334 37.5 104.001 45.5c-12 12 -18 28.333 -18 49c0 19.333 6.66699 36.333 20 51c-29.333 12 -52.333 30.667 -69 56s-25 54 -25 86c0 45.333 15.667 82.666 47 111.999s72 44 122 44c44 0 81.667 -12.333 113 -37
l123 37v-10l-115 -34c32 -30 48 -67.333 48 -112c0 -45.333 -15.667 -82.666 -47 -111.999s-72 -44 -122 -44c-24.667 0 -46.667 3.33301 -66 10c-12.667 -12 -19 -27.667 -19 -47s7 -35 21 -47c22 3.33301 43.667 5 65 5c66.667 0 119.834 -12 159.501 -36
s59.5 -58 59.5 -102c0 -43.333 -19.833 -77 -59.5 -101s-92.834 -36 -159.501 -36c-67.333 0 -120.666 11.833 -159.999 35.5s-59 57.5 -59 101.5zM29.998 -71c0 -40 19.167 -71.167 57.5 -93.5s88.833 -33.5 151.5 -33.5s113.167 11.167 151.5 33.5s57.5 53.5 57.5 93.5
s-19.333 71.333 -58 94s-89 34 -151 34s-112.333 -11.333 -151 -34s-58 -54 -58 -94zM78.998 302c0 -42 15 -76.833 45 -104.5s68 -41.5 114 -41.5s84 13.833 114 41.5s45 62.5 45 104.5s-15 76.833 -45 104.5s-68 41.5 -114 41.5s-84 -13.833 -114 -41.5
s-45 -62.5 -45 -104.5zM228.998 633c0 3.33301 1.33105 6.16602 3.99805 8.49902s5.66699 3.5 9 3.5c2.66699 0 5.33398 -1.16699 8.00098 -3.5s4 -5.16602 4 -8.49902s-1.16699 -6.33301 -3.5 -9s-5.16602 -4 -8.49902 -4c-8.66699 0 -13 4.33301 -13 13z" />
    <glyph glyph-name="Gcommaaccent" unicode="&#x122;" horiz-adv-x="727" 
d="M418 303l0.00195312 10.002h239v-226c-29.333 -29.333 -68.833 -52.5 -118.5 -69.5s-97.5 -25.5 -143.5 -25.5c-98.667 0 -179.167 32.667 -241.5 98s-93.5 152 -93.5 260c0 102 31 187.167 93 255.5s142 102.5 240 102.5c87.333 0 157.666 -21 210.999 -63l-7 -7
c-49.333 40 -117 60 -203 60c-96 0 -174 -33.333 -234 -100s-90 -149.334 -90 -248.001c0 -104.667 30.167 -188.834 90.5 -252.501s139.166 -95.5 236.499 -95.5c46 0 92.167 8 138.5 24s83.5 37.667 111.5 65v212h-229zM377.002 -79.998l1 10
c13.333 -1.33301 24 -6.5 32 -15.5s12 -20.833 12 -35.5c0 -22 -4.66699 -38.833 -14 -50.5s-24 -21.167 -44 -28.5l-3 8c34 12.667 51 35 51 67c0 26.667 -11.667 41.667 -35 45z" />
    <glyph glyph-name="gcommaaccent" unicode="&#x123;" horiz-adv-x="484" 
d="M20 -71c0 34.667 12.3311 63.167 36.998 85.5s59.334 37.5 104.001 45.5c-12 12 -18 28.333 -18 49c0 19.333 6.66699 36.333 20 51c-29.333 12 -52.333 30.667 -69 56s-25 54 -25 86c0 45.333 15.667 82.666 47 111.999s72 44 122 44c44 0 81.667 -12.333 113 -37
l123 37v-10l-115 -34c32 -30 48 -67.333 48 -112c0 -45.333 -15.667 -82.666 -47 -111.999s-72 -44 -122 -44c-24.667 0 -46.667 3.33301 -66 10c-12.667 -12 -19 -27.667 -19 -47s7 -35 21 -47c22 3.33301 43.667 5 65 5c66.667 0 119.834 -12 159.501 -36
s59.5 -58 59.5 -102c0 -43.333 -19.833 -77 -59.5 -101s-92.834 -36 -159.501 -36c-67.333 0 -120.666 11.833 -159.999 35.5s-59 57.5 -59 101.5zM29.998 -71c0 -40 19.167 -71.167 57.5 -93.5s88.833 -33.5 151.5 -33.5s113.167 11.167 151.5 33.5s57.5 53.5 57.5 93.5
s-19.333 71.333 -58 94s-89 34 -151 34s-112.333 -11.333 -151 -34s-58 -54 -58 -94zM78.998 302c0 -42 15 -76.833 45 -104.5s68 -41.5 114 -41.5s84 13.833 114 41.5s45 62.5 45 104.5s-15 76.833 -45 104.5s-68 41.5 -114 41.5s-84 -13.833 -114 -41.5
s-45 -62.5 -45 -104.5zM261.998 577l-1 -10c-13.333 1.33301 -24 6.5 -32 15.5s-12 20.833 -12 35.5c0 22 4.66699 38.833 14 50.5s24 21.167 44 28.5l3 -8c-34 -12.667 -51 -35 -51 -67c0 -26.667 11.667 -41.667 35 -45z" />
    <glyph glyph-name="Hcircumflex" unicode="&#x124;" horiz-adv-x="775" 
d="M645 0v352h-515v-352h-10v700h10v-338h515v338h10v-700h-10zM221 750l165 90h4l164 -90l-8 -7l-158 87l-160 -87z" />
    <glyph glyph-name="hcircumflex" unicode="&#x125;" horiz-adv-x="554" 
d="M90 0v700h10v-324c19.333 23.333 46.333 42.833 81 58.5s68.667 23.5 102 23.5c65.333 0 113.5 -16.667 144.5 -50s46.5 -85.333 46.5 -156v-252h-10v249c0 68 -14.667 118.167 -44 150.5s-75 48.5 -137 48.5c-36.667 0 -72.5 -9 -107.5 -27s-60.167 -37.667 -75.5 -59
v-362h-10zM0 750l165 90h4l164 -90l-8 -7l-158 87l-160 -87z" />
    <glyph glyph-name="Hbar" unicode="&#x126;" horiz-adv-x="785" 
d="M30 532v10h95v158h10v-158h515v158h10v-158h95v-10h-95v-532h-10v352h-515v-352h-10v532h-95zM135 362h515v170h-515v-170z" />
    <glyph glyph-name="hbar" unicode="&#x127;" horiz-adv-x="554" 
d="M-50 550v10h140v140h10v-140h189v-10h-189v-174c19.333 23.333 46.333 42.833 81 58.5s68.667 23.5 102 23.5c65.333 0 113.5 -16.667 144.5 -50s46.5 -85.333 46.5 -156v-252h-10v249c0 68 -14.667 118.167 -44 150.5s-75 48.5 -137 48.5c-36.667 0 -72.5 -9 -107.5 -27
s-60.167 -37.667 -75.5 -59v-362h-10v550h-140z" />
    <glyph glyph-name="Imacron" unicode="&#x12a;" horiz-adv-x="310" 
d="M150 0v700h10v-700h-10zM8 790v10h294v-10h-294z" />
    <glyph glyph-name="imacron" unicode="&#x12b;" horiz-adv-x="250" 
d="M120 0v450h10v-450h-10zM8 640v10h234v-10h-234z" />
    <glyph glyph-name="Iogonek" unicode="&#x12e;" horiz-adv-x="310" 
d="M160 -181l3 -8.99902c-16 -6.66699 -33.333 -10 -52 -10c-24.667 0 -47.5 7 -68.5 21s-31.5 37 -31.5 69c0 32.667 14 60.167 42 82.5s60.333 34.5 97 36.5v691h10v-700h-5c-34.667 -1.33301 -65.667 -12.333 -93 -33s-41 -46.334 -41 -77.001
c0 -28.667 9.83301 -49.167 29.5 -61.5s40.167 -18.5 61.5 -18.5c19.333 0 35.333 3 48 9z" />
    <glyph glyph-name="iogonek" unicode="&#x12f;" horiz-adv-x="250" 
d="M129 -181l3 -8.99805c-16 -6.66699 -33.333 -10 -52 -10c-24.667 0 -47.5 7 -68.5 21s-31.5 37 -31.5 69c0 33.333 14.167 61.166 42.5 83.499s60.833 34.166 97.5 35.499v441h10v-450h-1c-35.333 0 -67.333 -10.5 -96 -31.5s-43 -47.167 -43 -78.5
c0 -28.667 9.83301 -49.167 29.5 -61.5s40.167 -18.5 61.5 -18.5c19.333 0 35.333 3 48 9zM112 633.002c0 3.33301 1.33301 6.16602 4 8.49902s5.66699 3.5 9 3.5s6.16602 -1.16699 8.49902 -3.5s3.5 -5.16602 3.5 -8.49902s-1.16699 -6.33301 -3.5 -9
s-5.16602 -4 -8.49902 -4c-8.66699 0 -13 4.33301 -13 13z" />
    <glyph glyph-name="Idotaccent" unicode="&#x130;" horiz-adv-x="310" 
d="M150 0v700h10v-700h-10zM143 790c0 8 4.33301 12 13 12c8 0 12 -4 12 -12c0 -8.66699 -4 -13 -12 -13c-8.66699 0 -13 4.33301 -13 13z" />
    <glyph glyph-name="dotlessi" unicode="&#x131;" horiz-adv-x="250" 
d="M120 0v450h10v-450h-10z" />
    <glyph glyph-name="Jcircumflex" unicode="&#x134;" horiz-adv-x="341" 
d="M221 700l0.000976562 -552.999c0 -50.667 -8.66699 -89.167 -26 -115.5s-49 -39.5 -95 -39.5c-30 0 -56.667 8.33301 -80 25l6 9c21.333 -16 46 -24 74 -24c43.333 0 72.666 12.667 87.999 38s23 60.666 23 105.999v554h10zM40.001 750.001l165 90h4l164 -90l-8 -7
l-158 87l-160 -87z" />
    <glyph glyph-name="jcircumflex" unicode="&#x135;" horiz-adv-x="251" 
d="M131 450v-483c0 -116.667 -47 -175 -141 -175c-30 0 -56.667 8.33301 -80 25l6 9c21.333 -16 46 -24 74 -24c87.333 0 131 54.667 131 164v484h10zM128 708l113 -130l-7 -7l-108 124l-110 -124l-8 7l116 130h4z" />
    <glyph glyph-name="Kcommaaccent" unicode="&#x136;" horiz-adv-x="614" 
d="M563 700l-361 -335l372 -365h-15l-372 365l362 335h14zM120 0v700h10v-700h-10zM277 -80l1 10c13.333 -1.33301 24 -6.5 32 -15.5s12 -20.833 12 -35.5c0 -22 -4.66699 -38.833 -14 -50.5s-24 -21.167 -44 -28.5l-3 8c34 12.667 51 35 51 67
c0 26.667 -11.667 41.667 -35 45z" />
    <glyph glyph-name="kcommaaccent" unicode="&#x137;" horiz-adv-x="445" 
d="M399 450l-237 -215l255 -235h-17l-253 235l236 215h16zM90 0v700h10v-700h-10zM199 -80l1 10c13.333 -1.33301 24 -6.5 32 -15.5s12 -20.833 12 -35.5c0 -22 -4.66699 -38.833 -14 -50.5s-24 -21.167 -44 -28.5l-3 8c34 12.667 51 35 51 67
c0 26.667 -11.667 41.667 -35 45z" />
    <glyph glyph-name="Lacute" unicode="&#x139;" horiz-adv-x="555" 
d="M120 0v700h10v-690h405v-10h-415zM409 832l-154 -90l-5 7l155 91z" />
    <glyph glyph-name="lacute" unicode="&#x13a;" horiz-adv-x="271" 
d="M90 111v588.999h10v-574c0 -41.333 6 -71.5 18 -90.5s33 -28.5 63 -28.5c28 0 52.667 8 74 24l6 -9c-23.333 -16.667 -50 -25 -80 -25c-32.667 0 -56 9.33301 -70 28s-21 47.334 -21 86.001zM229 831.999l-154 -90l-5 7l155 91z" />
    <glyph glyph-name="Lcommaaccent" unicode="&#x13b;" horiz-adv-x="555" 
d="M120 0v700h10v-690h405v-10h-415zM297 -80l1 10c13.333 -1.33301 24 -6.5 32 -15.5s12 -20.833 12 -35.5c0 -22 -4.66699 -38.833 -14 -50.5s-24 -21.167 -44 -28.5l-3 8c34 12.667 51 35 51 67c0 26.667 -11.667 41.667 -35 45z" />
    <glyph glyph-name="lcommaaccent" unicode="&#x13c;" horiz-adv-x="271" 
d="M90 111v588.999h10v-574c0 -41.333 6 -71.5 18 -90.5s33 -28.5 63 -28.5c28 0 52.667 8 74 24l6 -9c-23.333 -16.667 -50 -25 -80 -25c-32.667 0 -56 9.33301 -70 28s-21 47.334 -21 86.001zM137 -80.001l1 10c13.333 -1.33301 24 -6.5 32 -15.5s12 -20.833 12 -35.5
c0 -22 -4.66699 -38.833 -14 -50.5s-24 -21.167 -44 -28.5l-3 8c34 12.667 51 35 51 67c0 26.667 -11.667 41.667 -35 45z" />
    <glyph glyph-name="Lcaron" unicode="&#x13d;" horiz-adv-x="555" 
d="M120 0v700h10v-690h405v-10h-415zM357 700l10.001 -0.00195312c6.66699 -11.333 10 -25.666 10 -42.999c0 -27.333 -5.5 -51 -16.5 -71s-24.833 -34 -41.5 -42l-3 8c15.333 8.66699 27.666 22.334 36.999 41.001s14 39.667 14 63c0 18 -3.33301 32.667 -10 44z" />
    <glyph glyph-name="lcaron" unicode="&#x13e;" horiz-adv-x="271" 
d="M90 111v588.999h10v-574c0 -41.333 6 -71.5 18 -90.5s33 -28.5 63 -28.5c28 0 52.667 8 74 24l6 -9c-23.333 -16.667 -50 -25 -80 -25c-32.667 0 -56 9.33301 -70 28s-21 47.334 -21 86.001zM227 699.999l10.001 -0.00195312c6.66699 -11.333 10 -25.666 10 -42.999
c0 -27.333 -5.5 -51 -16.5 -71s-24.833 -34 -41.5 -42l-3 8c15.333 8.66699 27.666 22.334 36.999 41.001s14 39.667 14 63c0 18 -3.33301 32.667 -10 44z" />
    <glyph glyph-name="Ldot" unicode="&#x13f;" horiz-adv-x="555" 
d="M120 0v700h10v-690h405v-10h-415zM392 373c0 3.33301 1.33301 6.16602 4 8.49902s5.66699 3.5 9 3.5s6.16602 -1.16699 8.49902 -3.5s3.5 -5.16602 3.5 -8.49902s-1.16699 -6.33301 -3.5 -9s-5.16602 -4 -8.49902 -4c-8.66699 0 -13 4.33301 -13 13z" />
    <glyph glyph-name="ldot" unicode="&#x140;" horiz-adv-x="271" 
d="M90 111v588.999h10v-574c0 -41.333 6 -71.5 18 -90.5s33 -28.5 63 -28.5c28 0 52.667 8 74 24l6 -9c-23.333 -16.667 -50 -25 -80 -25c-32.667 0 -56 9.33301 -70 28s-21 47.334 -21 86.001zM222 301.999c0 3.33301 1.33301 6.16797 4 8.50098s5.66699 3.5 9 3.5
s6.16602 -1.33301 8.49902 -4s3.5 -5.33398 3.5 -8.00098c0 -3.33301 -1.16699 -6.33301 -3.5 -9s-5.16602 -4 -8.49902 -4c-8.66699 0 -13 4.33301 -13 13z" />
    <glyph glyph-name="Lslash" unicode="&#x141;" horiz-adv-x="565" 
d="M30 249v12l100 53v386h10v-380l204 109v-11l-204 -110v-298h405v-10h-415v303z" />
    <glyph glyph-name="lslash" unicode="&#x142;" horiz-adv-x="301" 
d="M20 262v11.999l90 48v378h10v-372l125 67v-11l-125 -68v-190c0 -41.333 6 -71.5 18 -90.5s33 -28.5 63 -28.5c28 0 52.667 8 74 24l6 -9c-23.333 -16.667 -50 -25 -80 -25c-32.667 0 -56 9.33301 -70 28s-21 47.334 -21 86.001v200z" />
    <glyph glyph-name="Nacute" unicode="&#x143;" horiz-adv-x="800" 
d="M680 0h-8l-542 680v-680h-10v700h8l542 -682v682h10v-700zM529 832l-154 -90l-5 7l155 91z" />
    <glyph glyph-name="nacute" unicode="&#x144;" horiz-adv-x="554" 
d="M90 0v450h10v-74c19.333 23.333 46.333 42.833 81 58.5s68.667 23.5 102 23.5c65.333 0 113.5 -16.667 144.5 -50s46.5 -85.333 46.5 -156v-252h-10v249c0 68 -14.667 118.167 -44 150.5s-75 48.5 -137 48.5c-36.667 0 -72.5 -9 -107.5 -27s-60.167 -37.667 -75.5 -59
v-362h-10zM366 700l-109 -141l-8 5l110 142z" />
    <glyph glyph-name="Ncommaaccent" unicode="&#x145;" horiz-adv-x="800" 
d="M680 0h-8l-542 680v-680h-10v700h8l542 -682v682h10v-700zM377 -80l1 10c13.333 -1.33301 24 -6.5 32 -15.5s12 -20.833 12 -35.5c0 -22 -4.66699 -38.833 -14 -50.5s-24 -21.167 -44 -28.5l-3 8c34 12.667 51 35 51 67c0 26.667 -11.667 41.667 -35 45z" />
    <glyph glyph-name="ncommaaccent" unicode="&#x146;" horiz-adv-x="554" 
d="M90 0v450h10v-74c19.333 23.333 46.333 42.833 81 58.5s68.667 23.5 102 23.5c65.333 0 113.5 -16.667 144.5 -50s46.5 -85.333 46.5 -156v-252h-10v249c0 68 -14.667 118.167 -44 150.5s-75 48.5 -137 48.5c-36.667 0 -72.5 -9 -107.5 -27s-60.167 -37.667 -75.5 -59
v-362h-10zM263 -80l1 10c13.333 -1.33301 24 -6.5 32 -15.5s12 -20.833 12 -35.5c0 -22 -4.66699 -38.833 -14 -50.5s-24 -21.167 -44 -28.5l-3 8c34 12.667 51 35 51 67c0 26.667 -11.667 41.667 -35 45z" />
    <glyph glyph-name="Ncaron" unicode="&#x147;" horiz-adv-x="800" 
d="M680 0h-8l-542 680v-680h-10v700h8l542 -682v682h10v-700zM397 743l-165 90l7 7l160 -87l158 87l8 -7l-164 -90h-4z" />
    <glyph glyph-name="ncaron" unicode="&#x148;" horiz-adv-x="554" 
d="M90 0v450h10v-74c19.333 23.333 46.333 42.833 81 58.5s68.667 23.5 102 23.5c65.333 0 113.5 -16.667 144.5 -50s46.5 -85.333 46.5 -156v-252h-10v249c0 68 -14.667 118.167 -44 150.5s-75 48.5 -137 48.5c-36.667 0 -72.5 -9 -107.5 -27s-60.167 -37.667 -75.5 -59
v-362h-10zM275 571l-115 130l7 7l110 -124l108 124l8 -7l-114 -130h-4z" />
    <glyph glyph-name="Omacron" unicode="&#x14c;" horiz-adv-x="804" 
d="M60 350c0 101.333 32.833 186.333 98.5 255s146.834 103 243.501 103s177.834 -34.333 243.501 -103s98.5 -153.667 98.5 -255s-32.833 -186.333 -98.5 -255s-146.834 -103 -243.501 -103s-177.834 34.333 -243.501 103s-98.5 153.667 -98.5 255zM70 350
c0 -98.667 31.833 -181.334 95.5 -248.001s142.5 -100 236.5 -100s172.833 33.333 236.5 100s95.5 149.334 95.5 248.001s-31.833 181.334 -95.5 248.001s-142.5 100 -236.5 100s-172.833 -33.333 -236.5 -100s-95.5 -149.334 -95.5 -248.001zM255 790v10h294v-10h-294z" />
    <glyph glyph-name="omacron" unicode="&#x14d;" horiz-adv-x="570" 
d="M55 225c0 67.333 21.667 123 65 167s98.333 66 165 66s121.667 -22 165 -66s65 -99.667 65 -167s-21.667 -123 -65 -167s-98.333 -66 -165 -66s-121.667 22 -165 66s-65 99.667 -65 167zM65 225c0 -65.333 20.5 -118.833 61.5 -160.5s93.833 -62.5 158.5 -62.5
s117.5 20.833 158.5 62.5s61.5 95.167 61.5 160.5s-20.5 118.833 -61.5 160.5s-93.833 62.5 -158.5 62.5s-117.5 -20.833 -158.5 -62.5s-61.5 -95.167 -61.5 -160.5zM168 640v10h234v-10h-234z" />
    <glyph glyph-name="Ohungarumlaut" unicode="&#x150;" horiz-adv-x="804" 
d="M60 350c0 101.333 32.833 186.333 98.5 255s146.834 103 243.501 103s177.834 -34.333 243.501 -103s98.5 -153.667 98.5 -255s-32.833 -186.333 -98.5 -255s-146.834 -103 -243.501 -103s-177.834 34.333 -243.501 103s-98.5 153.667 -98.5 255zM70 350
c0 -98.667 31.833 -181.334 95.5 -248.001s142.5 -100 236.5 -100s172.833 33.333 236.5 100s95.5 149.334 95.5 248.001s-31.833 181.334 -95.5 248.001s-142.5 100 -236.5 100s-172.833 -33.333 -236.5 -100s-95.5 -149.334 -95.5 -248.001zM629 832l-154 -90l-5 7l155 91
zM459 832l-154 -90l-5 7l155 91z" />
    <glyph glyph-name="ohungarumlaut" unicode="&#x151;" horiz-adv-x="570" 
d="M55 225c0 67.333 21.667 123 65 167s98.333 66 165 66s121.667 -22 165 -66s65 -99.667 65 -167s-21.667 -123 -65 -167s-98.333 -66 -165 -66s-121.667 22 -165 66s-65 99.667 -65 167zM65 225c0 -65.333 20.5 -118.833 61.5 -160.5s93.833 -62.5 158.5 -62.5
s117.5 20.833 158.5 62.5s61.5 95.167 61.5 160.5s-20.5 118.833 -61.5 160.5s-93.833 62.5 -158.5 62.5s-117.5 -20.833 -158.5 -62.5s-61.5 -95.167 -61.5 -160.5zM457 700l-109 -141l-8 5l110 142zM317 700l-109 -141l-8 5l110 142z" />
    <glyph glyph-name="OE" unicode="&#x152;" horiz-adv-x="1050" 
d="M595 0l0.000976562 48c-51.333 -37.333 -115 -56 -191 -56c-102.667 0 -185.667 32.667 -249 98s-95 152 -95 260c0 102 31 187.167 93 255.5s142 102.5 240 102.5c83.333 0 150.666 -18.667 201.999 -56v48h375v-10h-365v-328h335v-10h-335v-342h375v-10h-385z
M404.001 2c76 0 139.667 20.335 191 61.002v576c-49.333 39.333 -116.333 59 -201 59c-96 0 -174 -33.333 -234 -100s-90 -149.334 -90 -248.001c0 -104.667 30.833 -188.834 92.5 -252.501s142.167 -95.5 241.5 -95.5z" />
    <glyph glyph-name="oe" unicode="&#x153;" horiz-adv-x="849" 
d="M766 69l5.99707 -6c-18.667 -22.667 -42.667 -40.167 -72 -52.5s-59.666 -18.5 -90.999 -18.5c-67.333 0 -122 20 -164 60c-40.667 -40 -94 -60 -160 -60c-66.667 0 -121.667 22 -165 66s-65 99.667 -65 167s21.667 123 65 167s98.333 66 165 66
c60.667 0 112.334 -18.667 155.001 -56c38.667 37.333 90.334 56 155.001 56c58.667 0 106.5 -18.333 143.5 -55s55.5 -85 55.5 -145c0 -2.66699 -0.166992 -6.5 -0.5 -11.5s-0.5 -8.83301 -0.5 -11.5h-408c0 -71.333 20.167 -128 60.5 -170s94.833 -63 163.5 -63
c31.333 0 61 6.16699 89 18.5s50.667 28.5 68 48.5zM284.997 2c60.667 0 111.667 19.001 153 57.001c-42 42 -63 97.333 -63 166c0 71.333 19.333 127.666 58 168.999c-40 36 -89.333 54 -148 54c-64.667 0 -117.5 -20.833 -158.5 -62.5s-61.5 -95.167 -61.5 -160.5
s20.5 -118.833 61.5 -160.5s93.833 -62.5 158.5 -62.5zM590.997 448.001c-62 0 -111.001 -18.833 -147.001 -56.5s-55.667 -86.5 -59 -146.5h399c0.666992 62 -16.666 111.333 -51.999 148s-82.333 55 -141 55z" />
    <glyph glyph-name="Racute" unicode="&#x154;" horiz-adv-x="613" 
d="M130 0h-9.99902v700c14.667 0 40 0.333008 76 1s56.667 1 62 1c159.333 0 239 -64 239 -192c0 -45.333 -16.833 -86.333 -50.5 -123s-78.834 -60 -135.501 -70l262 -317h-14l-260 315h-169v-315zM257.001 692c-40.667 0 -83 -0.666992 -127 -2v-365h148
c52.667 0 100.667 18 144 54s65 80 65 132c0 120.667 -76.667 181 -230 181zM369.001 832l-154 -90l-5 7l155 91z" />
    <glyph glyph-name="racute" unicode="&#x155;" horiz-adv-x="313" 
d="M90 0v450h10v-70c32 52 76.333 78 133 78c31.333 0 54.666 -5.66699 69.999 -17l-3 -10c-19.333 11.333 -41.666 17 -66.999 17c-52 0 -96.333 -28.667 -133 -86v-362h-10zM285 700l-109 -141l-8 5l110 142z" />
    <glyph glyph-name="Rcommaaccent" unicode="&#x156;" horiz-adv-x="613" 
d="M130 0h-9.99902v700c14.667 0 40 0.333008 76 1s56.667 1 62 1c159.333 0 239 -64 239 -192c0 -45.333 -16.833 -86.333 -50.5 -123s-78.834 -60 -135.501 -70l262 -317h-14l-260 315h-169v-315zM257.001 692c-40.667 0 -83 -0.666992 -127 -2v-365h148
c52.667 0 100.667 18 144 54s65 80 65 132c0 120.667 -76.667 181 -230 181zM277.001 -80l1 10c13.333 -1.33301 24 -6.5 32 -15.5s12 -20.833 12 -35.5c0 -22 -4.66699 -38.833 -14 -50.5s-24 -21.167 -44 -28.5l-3 8c34 12.667 51 35 51 67
c0 26.667 -11.667 41.667 -35 45z" />
    <glyph glyph-name="rcommaaccent" unicode="&#x157;" horiz-adv-x="313" 
d="M90 0v450h10v-70c32 52 76.333 78 133 78c31.333 0 54.666 -5.66699 69.999 -17l-3 -10c-19.333 11.333 -41.666 17 -66.999 17c-52 0 -96.333 -28.667 -133 -86v-362h-10zM123 -80l1 10c13.333 -1.33301 24 -6.5 32 -15.5s12 -20.833 12 -35.5
c0 -22 -4.66699 -38.833 -14 -50.5s-24 -21.167 -44 -28.5l-3 8c34 12.667 51 35 51 67c0 26.667 -11.667 41.667 -35 45z" />
    <glyph glyph-name="Rcaron" unicode="&#x158;" horiz-adv-x="613" 
d="M130 0h-9.99902v700c14.667 0 40 0.333008 76 1s56.667 1 62 1c159.333 0 239 -64 239 -192c0 -45.333 -16.833 -86.333 -50.5 -123s-78.834 -60 -135.501 -70l262 -317h-14l-260 315h-169v-315zM257.001 692c-40.667 0 -83 -0.666992 -127 -2v-365h148
c52.667 0 100.667 18 144 54s65 80 65 132c0 120.667 -76.667 181 -230 181zM265.001 743l-165 90l7 7l160 -87l158 87l8 -7l-164 -90h-4z" />
    <glyph glyph-name="rcaron" unicode="&#x159;" horiz-adv-x="313" 
d="M90 0v450h10v-70c32 52 76.333 78 133 78c31.333 0 54.666 -5.66699 69.999 -17l-3 -10c-19.333 11.333 -41.666 17 -66.999 17c-52 0 -96.333 -28.667 -133 -86v-362h-10zM185 571l-115 130l7 7l110 -124l108 124l8 -7l-114 -130h-4z" />
    <glyph glyph-name="Sacute" unicode="&#x15a;" horiz-adv-x="541" 
d="M471 167c0 43.333 -13.5049 78.668 -40.5049 106.001s-59.667 48 -98 62l-115 41.5c-38.333 13.667 -71 34.167 -98 61.5s-40.5 62.666 -40.5 105.999c0 48.667 17.333 88.167 52 118.5s82.667 45.5 144 45.5c36.667 0 71.334 -6.33301 104.001 -19
s58.334 -29.334 77.001 -50.001l-7 -7c-42 44 -101 66 -177 66c-55.333 0 -99.666 -14 -132.999 -42s-50 -65 -50 -111c0 -31.333 7.16699 -58.166 21.5 -80.499s33 -39.833 56 -52.5s48.5 -24 76.5 -34l84 -31c28 -10.667 53.5 -22.834 76.5 -36.501s41.667 -32.667 56 -57
s21.5 -53.166 21.5 -86.499c0 -52.667 -20.667 -95 -62 -127s-92.666 -48 -153.999 -48c-40 0 -79.833 9 -119.5 27s-68.167 41 -85.5 69l8 7c20.667 -28 49.334 -50.5 86.001 -67.5s73 -25.5 109 -25.5c56.667 0 105.5 14.5 146.5 43.5s61.5 69.5 61.5 121.5z
M388.995 832.002l-154 -90l-5 7l155 91z" />
    <glyph glyph-name="sacute" unicode="&#x15b;" horiz-adv-x="401" 
d="M331 111c0 26.667 -8.83398 48.165 -26.501 64.498s-39.167 28.5 -64.5 36.5l-76 25c-25.333 8.66699 -46.833 22.334 -64.5 41.001s-26.5 43 -26.5 73c0 31.333 11.833 57 35.5 77s55.5 30 95.5 30c23.333 0 46.166 -4.16699 68.499 -12.5s39.5 -19.166 51.5 -32.499
l-7 -8c-28 28.667 -66.333 43 -115 43c-35.333 0 -64 -9.33301 -86 -28s-33 -41.334 -33 -68.001c0 -28.667 8.83301 -51.667 26.5 -69s39.167 -30.166 64.5 -38.499l76 -25c25.333 -8.33301 46.833 -21.166 64.5 -38.499s26.5 -40.333 26.5 -69
c0 -38.667 -13.667 -68.334 -41 -89.001s-61.666 -31 -102.999 -31c-25.333 0 -52 5.66699 -80 17s-47 25 -57 41l9 6c11.333 -16 29.5 -29 54.5 -39s49.167 -15 72.5 -15c36.667 0 68.334 9.5 95.001 28.5s40 45.833 40 80.5zM298.999 699.998l-109 -141l-8 5l110 142z" />
    <glyph glyph-name="Scircumflex" unicode="&#x15c;" horiz-adv-x="541" 
d="M471 167c0 43.333 -13.5049 78.668 -40.5049 106.001s-59.667 48 -98 62l-115 41.5c-38.333 13.667 -71 34.167 -98 61.5s-40.5 62.666 -40.5 105.999c0 48.667 17.333 88.167 52 118.5s82.667 45.5 144 45.5c36.667 0 71.334 -6.33301 104.001 -19
s58.334 -29.334 77.001 -50.001l-7 -7c-42 44 -101 66 -177 66c-55.333 0 -99.666 -14 -132.999 -42s-50 -65 -50 -111c0 -31.333 7.16699 -58.166 21.5 -80.499s33 -39.833 56 -52.5s48.5 -24 76.5 -34l84 -31c28 -10.667 53.5 -22.834 76.5 -36.501s41.667 -32.667 56 -57
s21.5 -53.166 21.5 -86.499c0 -52.667 -20.667 -95 -62 -127s-92.666 -48 -153.999 -48c-40 0 -79.833 9 -119.5 27s-68.167 41 -85.5 69l8 7c20.667 -28 49.334 -50.5 86.001 -67.5s73 -25.5 109 -25.5c56.667 0 105.5 14.5 146.5 43.5s61.5 69.5 61.5 121.5z
M103.995 750.002l165 90h4l164 -90l-8 -7l-158 87l-160 -87z" />
    <glyph glyph-name="scircumflex" unicode="&#x15d;" horiz-adv-x="401" 
d="M331 111c0 26.667 -8.83398 48.165 -26.501 64.498s-39.167 28.5 -64.5 36.5l-76 25c-25.333 8.66699 -46.833 22.334 -64.5 41.001s-26.5 43 -26.5 73c0 31.333 11.833 57 35.5 77s55.5 30 95.5 30c23.333 0 46.166 -4.16699 68.499 -12.5s39.5 -19.166 51.5 -32.499
l-7 -8c-28 28.667 -66.333 43 -115 43c-35.333 0 -64 -9.33301 -86 -28s-33 -41.334 -33 -68.001c0 -28.667 8.83301 -51.667 26.5 -69s39.167 -30.166 64.5 -38.499l76 -25c25.333 -8.33301 46.833 -21.166 64.5 -38.499s26.5 -40.333 26.5 -69
c0 -38.667 -13.667 -68.334 -41 -89.001s-61.666 -31 -102.999 -31c-25.333 0 -52 5.66699 -80 17s-47 25 -57 41l9 6c11.333 -16 29.5 -29 54.5 -39s49.167 -15 72.5 -15c36.667 0 68.334 9.5 95.001 28.5s40 45.833 40 80.5zM206.999 707.998l113 -130l-7 -7l-108 124
l-110 -124l-8 7l116 130h4z" />
    <glyph glyph-name="Scedilla" unicode="&#x15e;" horiz-adv-x="541" 
d="M184 -180l3.99414 9.00391c26 -12.667 50.667 -19 74 -19c26.667 0 48.334 5.5 65.001 16.5s25 25.5 25 43.5c0 40 -30 60 -90 60h-6v62c-39.333 1.33301 -77.666 10.833 -114.999 28.5s-64.333 40.167 -81 67.5l8 7c20.667 -28 49.334 -50.5 86.001 -67.5
s73 -25.5 109 -25.5c56.667 0 105.5 14.5 146.5 43.5s61.5 69.5 61.5 121.5c0 43.333 -13.5 78.666 -40.5 105.999s-59.667 48 -98 62l-115 41.5c-38.333 13.667 -71 34.167 -98 61.5s-40.5 62.666 -40.5 105.999c0 48.667 17.333 88.167 52 118.5s82.667 45.5 144 45.5
c36.667 0 71.334 -6.33301 104.001 -19s58.334 -29.334 77.001 -50.001l-7 -7c-42 44 -101 66 -177 66c-55.333 0 -99.666 -14 -132.999 -42s-50 -65 -50 -111c0 -31.333 7.16699 -58.166 21.5 -80.499s33 -39.833 56 -52.5s48.5 -24 76.5 -34l84 -31
c28 -10.667 53.5 -22.834 76.5 -36.501s41.667 -32.667 56 -57s21.5 -53.166 21.5 -86.499c0 -52.667 -20.5 -94.834 -61.5 -126.501s-92.167 -47.834 -153.5 -48.501v-52c64 -0.666992 96 -24 96 -70c0 -20.667 -9.16699 -37.5 -27.5 -50.5s-42.5 -19.5 -72.5 -19.5
c-24 0 -50 6.66699 -78 20z" />
    <glyph glyph-name="scedilla" unicode="&#x15f;" horiz-adv-x="401" 
d="M115 -180l3.99805 8.99902c26 -12.667 50.667 -19 74 -19c26.667 0 48.334 5.5 65.001 16.5s25 25.5 25 43.5c0 40 -30 60 -90 60h-6v62c-25.333 1.33301 -50.5 7.66602 -75.5 18.999s-42.167 24.333 -51.5 39l9 6c11.333 -16 29.5 -29 54.5 -39s49.167 -15 72.5 -15
c36.667 0 68.334 9.5 95.001 28.5s40 45.833 40 80.5c0 26.667 -8.83301 48.167 -26.5 64.5s-39.167 28.5 -64.5 36.5l-76 25c-25.333 8.66699 -46.833 22.334 -64.5 41.001s-26.5 43 -26.5 73c0 31.333 11.833 57 35.5 77s55.5 30 95.5 30
c23.333 0 46.166 -4.16699 68.499 -12.5s39.5 -19.166 51.5 -32.499l-7 -8c-28 28.667 -66.333 43 -115 43c-35.333 0 -64 -9.33301 -86 -28s-33 -41.334 -33 -68.001c0 -28.667 8.83301 -51.667 26.5 -69s39.167 -30.166 64.5 -38.499l76 -25
c25.333 -8.33301 46.833 -21.166 64.5 -38.499s26.5 -40.333 26.5 -69c0 -38.667 -13.667 -68.334 -41 -89.001s-61.666 -31 -102.999 -31v-52c64 -0.666992 96 -24 96 -70c0 -20.667 -9.16699 -37.5 -27.5 -50.5s-42.5 -19.5 -72.5 -19.5c-24 0 -50 6.66699 -78 20z" />
    <glyph glyph-name="Scaron" unicode="&#x160;" horiz-adv-x="541" 
d="M471 167c0 43.333 -13.5049 78.668 -40.5049 106.001s-59.667 48 -98 62l-115 41.5c-38.333 13.667 -71 34.167 -98 61.5s-40.5 62.666 -40.5 105.999c0 48.667 17.333 88.167 52 118.5s82.667 45.5 144 45.5c36.667 0 71.334 -6.33301 104.001 -19
s58.334 -29.334 77.001 -50.001l-7 -7c-42 44 -101 66 -177 66c-55.333 0 -99.666 -14 -132.999 -42s-50 -65 -50 -111c0 -31.333 7.16699 -58.166 21.5 -80.499s33 -39.833 56 -52.5s48.5 -24 76.5 -34l84 -31c28 -10.667 53.5 -22.834 76.5 -36.501s41.667 -32.667 56 -57
s21.5 -53.166 21.5 -86.499c0 -52.667 -20.667 -95 -62 -127s-92.666 -48 -153.999 -48c-40 0 -79.833 9 -119.5 27s-68.167 41 -85.5 69l8 7c20.667 -28 49.334 -50.5 86.001 -67.5s73 -25.5 109 -25.5c56.667 0 105.5 14.5 146.5 43.5s61.5 69.5 61.5 121.5z
M274.995 743.002l-165 90l7 7l160 -87l158 87l8 -7l-164 -90h-4z" />
    <glyph glyph-name="scaron" unicode="&#x161;" horiz-adv-x="401" 
d="M331 111c0 26.667 -8.83398 48.165 -26.501 64.498s-39.167 28.5 -64.5 36.5l-76 25c-25.333 8.66699 -46.833 22.334 -64.5 41.001s-26.5 43 -26.5 73c0 31.333 11.833 57 35.5 77s55.5 30 95.5 30c23.333 0 46.166 -4.16699 68.499 -12.5s39.5 -19.166 51.5 -32.499
l-7 -8c-28 28.667 -66.333 43 -115 43c-35.333 0 -64 -9.33301 -86 -28s-33 -41.334 -33 -68.001c0 -28.667 8.83301 -51.667 26.5 -69s39.167 -30.166 64.5 -38.499l76 -25c25.333 -8.33301 46.833 -21.166 64.5 -38.499s26.5 -40.333 26.5 -69
c0 -38.667 -13.667 -68.334 -41 -89.001s-61.666 -31 -102.999 -31c-25.333 0 -52 5.66699 -80 17s-47 25 -57 41l9 6c11.333 -16 29.5 -29 54.5 -39s49.167 -15 72.5 -15c36.667 0 68.334 9.5 95.001 28.5s40 45.833 40 80.5zM198.999 570.998l-115 130l7 7l110 -124
l108 124l8 -7l-114 -130h-4z" />
    <glyph glyph-name="Tcedilla" unicode="&#x162;" horiz-adv-x="590" 
d="M218 -180l3.99902 9c26 -12.667 50.667 -19 74 -19c26.667 0 48.334 5.5 65.001 16.5s25 25.5 25 43.5c0 40 -30 60 -90 60h-6v760h-280v10h570v-10h-280v-750c64 -0.666992 96 -24 96 -70c0 -20.667 -9.16699 -37.5 -27.5 -50.5s-42.5 -19.5 -72.5 -19.5
c-24 0 -50 6.66699 -78 20z" />
    <glyph glyph-name="tcedilla" unicode="&#x163;" horiz-adv-x="341" 
d="M104 -180l3.99902 9.00098c26 -12.667 50.667 -19 74 -19c26.667 0 48.334 5.5 65.001 16.5s25 25.5 25 43.5c0 40 -30 60 -90 60h-6v71c-64 15.333 -96 72 -96 170v404h10v-125h205v-10h-205v-260c0 -58.667 10.333 -102.334 31 -131.001s54 -43 100 -43
c28 0 52.667 8 74 24l6 -9c-23.333 -16.667 -50 -25 -80 -25c-13.333 0 -25 1 -35 3v-59c64 -0.666992 96 -24 96 -70c0 -20.667 -9.16699 -37.5 -27.5 -50.5s-42.5 -19.5 -72.5 -19.5c-24 0 -50 6.66699 -78 20z" />
    <glyph glyph-name="Tcaron" unicode="&#x164;" horiz-adv-x="590" 
d="M10 690v10h570v-10h-280v-690h-10v690h-280zM294 743l-165 90l7 7l160 -87l158 87l8 -7l-164 -90h-4z" />
    <glyph glyph-name="tcaron" unicode="&#x165;" horiz-adv-x="341" 
d="M80 171l-0.000976562 404.001h10v-125h205v-10h-205v-260c0 -58.667 10.333 -102.334 31 -131.001s54 -43 100 -43c28 0 52.667 8 74 24l6 -9c-23.333 -16.667 -50 -25 -80 -25c-49.333 0 -85.166 14.5 -107.499 43.5s-33.5 72.833 -33.5 131.5zM236.999 700.001
l10.001 -0.00195312c6.66699 -11.333 10 -25.666 10 -42.999c0 -27.333 -5.5 -51 -16.5 -71s-24.833 -34 -41.5 -42l-3 8c15.333 8.66699 27.666 22.334 36.999 41.001s14 39.667 14 63c0 18 -3.33301 32.667 -10 44z" />
    <glyph glyph-name="Umacron" unicode="&#x16a;" horiz-adv-x="751" 
d="M641 700v-404.999c0 -100.667 -24.167 -176 -72.5 -226s-109.5 -75 -183.5 -75c-81.333 0 -147.5 26.667 -198.5 80s-76.5 129.333 -76.5 228v398h10v-399c0 -94.667 24.667 -167.834 74 -219.501s113 -77.5 191 -77.5c72 0 131 24.5 177 73.5s69 122.5 69 220.5v402h10z
M228 790.001v10h294v-10h-294z" />
    <glyph glyph-name="umacron" unicode="&#x16b;" horiz-adv-x="550" 
d="M460 450v-450h-10v83c-20.667 -24.667 -48.667 -46 -84 -64s-70.333 -27 -105 -27c-62 0 -107.667 16.667 -137 50s-44 85.333 -44 156v252h10v-249c0 -68 13.833 -118.167 41.5 -150.5s71.5 -48.5 131.5 -48.5c38 0 74.667 10 110 30s61 41.667 77 65v353h10zM158 640
v10h234v-10h-234z" />
    <glyph glyph-name="Ubreve" unicode="&#x16c;" horiz-adv-x="751" 
d="M641 700v-404.999c0 -100.667 -24.167 -176 -72.5 -226s-109.5 -75 -183.5 -75c-81.333 0 -147.5 26.667 -198.5 80s-76.5 129.333 -76.5 228v398h10v-399c0 -94.667 24.667 -167.834 74 -219.501s113 -77.5 191 -77.5c72 0 131 24.5 177 73.5s69 122.5 69 220.5v402h10z
M227 834.001l7 6c37.333 -46.667 85 -70 143 -70c56 0 102.667 23.333 140 70l7 -6c-37.333 -49.333 -86.333 -74 -147 -74c-36.667 0 -68 8 -94 24s-44.667 32.667 -56 50z" />
    <glyph glyph-name="ubreve" unicode="&#x16d;" horiz-adv-x="550" 
d="M460 450v-450h-10v83c-20.667 -24.667 -48.667 -46 -84 -64s-70.333 -27 -105 -27c-62 0 -107.667 16.667 -137 50s-44 85.333 -44 156v252h10v-249c0 -68 13.833 -118.167 41.5 -150.5s71.5 -48.5 131.5 -48.5c38 0 74.667 10 110 30s61 41.667 77 65v353h10zM146 674
l6.99902 6c37.333 -46.667 78.333 -70 123 -70c42.667 0 82.667 23.333 120 70l7 -6c-37.333 -49.333 -79.666 -74 -126.999 -74c-54 0 -97.333 24.667 -130 74z" />
    <glyph glyph-name="Uring" unicode="&#x16e;" horiz-adv-x="751" 
d="M641 700v-404.999c0 -100.667 -24.167 -176 -72.5 -226s-109.5 -75 -183.5 -75c-81.333 0 -147.5 26.667 -198.5 80s-76.5 129.333 -76.5 228v398h10v-399c0 -94.667 24.667 -167.834 74 -219.501s113 -77.5 191 -77.5c72 0 131 24.5 177 73.5s69 122.5 69 220.5v402h10z
M283 775.001c0 24.667 8.66895 43.334 26.002 56.001s39.333 19 66 19c27.333 0 49.666 -6.33301 66.999 -19s26 -31.334 26 -56.001s-8.83301 -43.834 -26.5 -57.501s-39.834 -20.5 -66.501 -20.5s-48.667 6.83301 -66 20.5s-26 32.834 -26 57.501zM293.002 775.001
c0 -22 7.66699 -38.833 23 -50.5s35 -17.5 59 -17.5s43.833 5.83301 59.5 17.5s23.5 28.5 23.5 50.5s-7.66699 38.333 -23 49s-35.333 16 -60 16s-44.5 -5.33301 -59.5 -16s-22.5 -27 -22.5 -49z" />
    <glyph glyph-name="uring" unicode="&#x16f;" horiz-adv-x="550" 
d="M460 450v-450h-10v83c-20.667 -24.667 -48.667 -46 -84 -64s-70.333 -27 -105 -27c-62 0 -107.667 16.667 -137 50s-44 85.333 -44 156v252h10v-249c0 -68 13.833 -118.167 41.5 -150.5s71.5 -48.5 131.5 -48.5c38 0 74.667 10 110 30s61 41.667 77 65v353h10zM182 615
c0 25.333 9 47.166 27 65.499s39.667 27.5 65 27.5s47.166 -9.16699 65.499 -27.5s27.5 -40.166 27.5 -65.499s-9.16699 -47 -27.5 -65s-40.166 -27 -65.499 -27s-47 9 -65 27s-27 39.667 -27 65zM192 615c0 -23.333 8 -42.833 24 -58.5s35.333 -23.5 58 -23.5
c23.333 0 43 8 59 24s24 35.333 24 58c0 23.333 -8.16699 43 -24.5 59s-35.833 24 -58.5 24s-42 -8 -58 -24s-24 -35.667 -24 -59z" />
    <glyph glyph-name="Uhungarumlaut" unicode="&#x170;" horiz-adv-x="751" 
d="M641 700v-404.999c0 -100.667 -24.167 -176 -72.5 -226s-109.5 -75 -183.5 -75c-81.333 0 -147.5 26.667 -198.5 80s-76.5 129.333 -76.5 228v398h10v-399c0 -94.667 24.667 -167.834 74 -219.501s113 -77.5 191 -77.5c72 0 131 24.5 177 73.5s69 122.5 69 220.5v402h10z
M589 832.001l-154 -90l-5 7l155 91zM419 832.001l-154 -90l-5 7l155 91z" />
    <glyph glyph-name="uhungarumlaut" unicode="&#x171;" horiz-adv-x="550" 
d="M460 450v-450h-10v83c-20.667 -24.667 -48.667 -46 -84 -64s-70.333 -27 -105 -27c-62 0 -107.667 16.667 -137 50s-44 85.333 -44 156v252h10v-249c0 -68 13.833 -118.167 41.5 -150.5s71.5 -48.5 131.5 -48.5c38 0 74.667 10 110 30s61 41.667 77 65v353h10zM447 700
l-109 -141l-8 5l110 142zM307 700l-109 -141l-8 5l110 142z" />
    <glyph glyph-name="Uogonek" unicode="&#x172;" horiz-adv-x="751" 
d="M641 700v-404.999c0 -88 -18.5 -156.5 -55.5 -205.5s-85.5 -79.167 -145.5 -90.5c-64 -24.667 -96 -61 -96 -109c0 -28.667 9.83301 -49.167 29.5 -61.5s40.167 -18.5 61.5 -18.5c19.333 0 35.333 3 48 9l3 -9c-16 -6.66699 -33.333 -10 -52 -10
c-24.667 0 -47.5 7 -68.5 21s-31.5 37 -31.5 69c0 46 26.667 81.333 80 106c-13.333 -1.33301 -23 -2 -29 -2c-81.333 0 -147.5 26.667 -198.5 80s-76.5 129.333 -76.5 228v398h10v-399c0 -94.667 24.667 -167.834 74 -219.501s113 -77.5 191 -77.5c72 0 131 24.5 177 73.5
s69 122.5 69 220.5v402h10z" />
    <glyph glyph-name="uogonek" unicode="&#x173;" horiz-adv-x="550" 
d="M460 -181l3 -9c-16 -6.66699 -33.333 -10 -52 -10c-24.667 0 -47.5 7 -68.5 21s-31.5 37 -31.5 69c0 32.667 14 60.167 42 82.5s60.333 34.5 97 36.5v74c-20.667 -24.667 -48.667 -46 -84 -64s-70.333 -27 -105 -27c-62 0 -107.667 16.667 -137 50s-44 85.333 -44 156
v252h10v-249c0 -68 13.833 -118.167 41.5 -150.5s71.5 -48.5 131.5 -48.5c38 0 74.667 10 110 30s61 41.667 77 65v353h10v-450c-35.333 0 -67.333 -10.5 -96 -31.5s-43 -47.167 -43 -78.5c0 -28.667 9.83301 -49.167 29.5 -61.5s40.167 -18.5 61.5 -18.5
c19.333 0 35.333 3 48 9z" />
    <glyph glyph-name="Ydieresis" unicode="&#x178;" horiz-adv-x="554" 
d="M534 700l-253 -385v-315h-10v315l-251 385h13l243 -375l245 375h13zM148 790c0 8 4.33301 12 13 12c8 0 12 -4 12 -12c0 -8.66699 -4 -13 -12 -13c-8.66699 0 -13 4.33301 -13 13zM382 790c0 8 4.33301 12 13 12c8 0 12 -4 12 -12c0 -8.66699 -4 -13 -12 -13
c-8.66699 0 -13 4.33301 -13 13z" />
    <glyph glyph-name="Zacute" unicode="&#x179;" horiz-adv-x="620" 
d="M60 690v10h510v-2l-512 -688h522v-10h-540v2l511 688h-491zM429 832l-154 -90l-5 7l155 91z" />
    <glyph glyph-name="zacute" unicode="&#x17a;" horiz-adv-x="475" 
d="M65 440v10h360v-2l-357 -438h352v-10h-370v2l356 438h-341zM336 700l-109 -141l-8 5l110 142z" />
    <glyph glyph-name="Zdotaccent" unicode="&#x17b;" horiz-adv-x="620" 
d="M60 690v10h510v-2l-512 -688h522v-10h-540v2l511 688h-491zM287 790c0 8 4.33301 12 13 12c8 0 12 -4 12 -12c0 -8.66699 -4 -13 -12 -13c-8.66699 0 -13 4.33301 -13 13z" />
    <glyph glyph-name="zdotaccent" unicode="&#x17c;" horiz-adv-x="475" 
d="M65 440v10h360v-2l-357 -438h352v-10h-370v2l356 438h-341zM224 633c0 3.33301 1.33301 6.16602 4 8.49902s5.66699 3.5 9 3.5s6.16602 -1.16699 8.49902 -3.5s3.5 -5.16602 3.5 -8.49902s-1.16699 -6.33301 -3.5 -9s-5.16602 -4 -8.49902 -4
c-8.66699 0 -13 4.33301 -13 13z" />
    <glyph glyph-name="Zcaron" unicode="&#x17d;" horiz-adv-x="620" 
d="M60 690v10h510v-2l-512 -688h522v-10h-540v2l511 688h-491zM305 743l-165 90l7 7l160 -87l158 87l8 -7l-164 -90h-4z" />
    <glyph glyph-name="zcaron" unicode="&#x17e;" horiz-adv-x="475" 
d="M65 440v10h360v-2l-357 -438h352v-10h-370v2l356 438h-341zM236 571l-115 130l7 7l110 -124l108 124l8 -7l-114 -130h-4z" />
    <glyph glyph-name="longs" unicode="&#x17f;" horiz-adv-x="251" 
d="M110 0l-0.000976562 523c0 123.333 50.333 185 151 185c43.333 0 80 -11.667 110 -35l-6 -9c-31.333 22.667 -66 34 -104 34c-47.333 0 -82.666 -14.667 -105.999 -44s-35 -76 -35 -140v-514h-10z" />
    <glyph glyph-name="uni018F" unicode="&#x18f;" horiz-adv-x="776" 
d="M50 362h655.999c-2 102.667 -33.5 184.334 -94.5 245.001s-142.5 91 -244.5 91c-82 0 -149.333 -20.667 -202 -62l-6 7c50 43.333 119.333 65 208 65c107.333 0 192.333 -31.833 255 -95.5s94 -149.834 94 -258.501c0 -103.333 -30.167 -189.5 -90.5 -258.5
s-141.166 -103.5 -242.499 -103.5c-100.667 0 -181.167 35 -241.5 105s-90.833 158.333 -91.5 265zM381.999 2c99.333 0 178 33.333 236 100s87.333 150 88 250h-646c1.33301 -100 31.333 -183.333 90 -250s136 -100 232 -100z" />
    <glyph glyph-name="florin" unicode="&#x192;" horiz-adv-x="584" 
d="M327 514l-11.998 -64h197v-10h-199l-86 -473c-10.667 -58.667 -28.167 -102.5 -52.5 -131.5s-60.5 -43.5 -108.5 -43.5c-30 0 -56.667 8.33301 -80 25l6 9c21.333 -16 46 -24 74 -24c45.333 0 79.166 13.5 101.499 40.5s38.833 69.167 49.5 126.5l85 471h-183v10h185
l13 73c12 64 31.167 110.833 57.5 140.5s64.166 44.5 113.499 44.5c43.333 0 80 -11.667 110 -35l-6 -9c-31.333 22.667 -66 34 -104 34c-46.667 0 -82.167 -14.167 -106.5 -42.5s-42.5 -75.5 -54.5 -141.5z" />
    <glyph glyph-name="uni01DD" unicode="&#x1dd;" horiz-adv-x="529" 
d="M83 381l-6 6c18 22.667 43.333 40.167 76 52.5s65 18.5 97 18.5c68 0 122.333 -21.167 163 -63.5s61 -98.833 61 -169.5c0 -68.667 -18.5 -124.667 -55.5 -168s-89.5 -65 -157.5 -65c-62 0 -111.833 18.333 -149.5 55s-56.5 85 -56.5 145
c0 2.66699 0.166992 8.16699 0.5 16.5s0.5 13.833 0.5 16.5h408c0 63.333 -19.167 116.333 -57.5 159s-90.5 64 -156.5 64c-32 0 -63.5 -6.33301 -94.5 -19s-55.167 -28.667 -72.5 -48zM264 2c60 0 108.334 19.999 145.001 59.999s55 91 55 153h-399
c-2.66699 -67.333 14.166 -119.666 50.499 -156.999s85.833 -56 148.5 -56z" />
    <glyph glyph-name="Scommaaccent" unicode="&#x218;" horiz-adv-x="541" 
d="M471 167c0 43.333 -13.5049 78.668 -40.5049 106.001s-59.667 48 -98 62l-115 41.5c-38.333 13.667 -71 34.167 -98 61.5s-40.5 62.666 -40.5 105.999c0 48.667 17.333 88.167 52 118.5s82.667 45.5 144 45.5c36.667 0 71.334 -6.33301 104.001 -19
s58.334 -29.334 77.001 -50.001l-7 -7c-42 44 -101 66 -177 66c-55.333 0 -99.666 -14 -132.999 -42s-50 -65 -50 -111c0 -31.333 7.16699 -58.166 21.5 -80.499s33 -39.833 56 -52.5s48.5 -24 76.5 -34l84 -31c28 -10.667 53.5 -22.834 76.5 -36.501s41.667 -32.667 56 -57
s21.5 -53.166 21.5 -86.499c0 -52.667 -20.667 -95 -62 -127s-92.666 -48 -153.999 -48c-40 0 -79.833 9 -119.5 27s-68.167 41 -85.5 69l8 7c20.667 -28 49.334 -50.5 86.001 -67.5s73 -25.5 109 -25.5c56.667 0 105.5 14.5 146.5 43.5s61.5 69.5 61.5 121.5z
M246.995 -79.998l1 10c13.333 -1.33301 24 -6.5 32 -15.5s12 -20.833 12 -35.5c0 -22 -4.66699 -38.833 -14 -50.5s-24 -21.167 -44 -28.5l-3 8c34 12.667 51 35 51 67c0 26.667 -11.667 41.667 -35 45z" />
    <glyph glyph-name="scommaaccent" unicode="&#x219;" horiz-adv-x="401" 
d="M331 111c0 26.667 -8.83398 48.165 -26.501 64.498s-39.167 28.5 -64.5 36.5l-76 25c-25.333 8.66699 -46.833 22.334 -64.5 41.001s-26.5 43 -26.5 73c0 31.333 11.833 57 35.5 77s55.5 30 95.5 30c23.333 0 46.166 -4.16699 68.499 -12.5s39.5 -19.166 51.5 -32.499
l-7 -8c-28 28.667 -66.333 43 -115 43c-35.333 0 -64 -9.33301 -86 -28s-33 -41.334 -33 -68.001c0 -28.667 8.83301 -51.667 26.5 -69s39.167 -30.166 64.5 -38.499l76 -25c25.333 -8.33301 46.833 -21.166 64.5 -38.499s26.5 -40.333 26.5 -69
c0 -38.667 -13.667 -68.334 -41 -89.001s-61.666 -31 -102.999 -31c-25.333 0 -52 5.66699 -80 17s-47 25 -57 41l9 6c11.333 -16 29.5 -29 54.5 -39s49.167 -15 72.5 -15c36.667 0 68.334 9.5 95.001 28.5s40 45.833 40 80.5zM186.999 -80.002l1 10
c13.333 -1.33301 24 -6.5 32 -15.5s12 -20.833 12 -35.5c0 -22 -4.66699 -38.833 -14 -50.5s-24 -21.167 -44 -28.5l-3 8c34 12.667 51 35 51 67c0 26.667 -11.667 41.667 -35 45z" />
    <glyph glyph-name="Tcommaaccent" unicode="&#x21a;" horiz-adv-x="590" 
d="M10 690v10h570v-10h-280v-690h-10v690h-280zM282 -80l1 10c13.333 -1.33301 24 -6.5 32 -15.5s12 -20.833 12 -35.5c0 -22 -4.66699 -38.833 -14 -50.5s-24 -21.167 -44 -28.5l-3 8c34 12.667 51 35 51 67c0 26.667 -11.667 41.667 -35 45z" />
    <glyph glyph-name="tcommaaccent" unicode="&#x21b;" horiz-adv-x="341" 
d="M80 171l-0.000976562 404.001h10v-125h205v-10h-205v-260c0 -58.667 10.333 -102.334 31 -131.001s54 -43 100 -43c28 0 52.667 8 74 24l6 -9c-23.333 -16.667 -50 -25 -80 -25c-49.333 0 -85.166 14.5 -107.499 43.5s-33.5 72.833 -33.5 131.5zM181.999 -79.999l1 10
c13.333 -1.33301 24 -6.5 32 -15.5s12 -20.833 12 -35.5c0 -22 -4.66699 -38.833 -14 -50.5s-24 -21.167 -44 -28.5l-3 8c34 12.667 51 35 51 67c0 26.667 -11.667 41.667 -35 45z" />
    <glyph glyph-name="uni0237" unicode="&#x237;" horiz-adv-x="251" 
d="M131 450v-483c0 -116.667 -47 -175 -141 -175c-30 0 -56.667 8.33301 -80 25l6 9c21.333 -16 46 -24 74 -24c87.333 0 131 54.667 131 164v484h10z" />
    <glyph glyph-name="uni0259" unicode="&#x259;" horiz-adv-x="529" 
d="M83 381l-6 6c18 22.667 43.333 40.167 76 52.5s65 18.5 97 18.5c68 0 122.333 -21.167 163 -63.5s61 -98.833 61 -169.5c0 -68.667 -18.5 -124.667 -55.5 -168s-89.5 -65 -157.5 -65c-62 0 -111.833 18.333 -149.5 55s-56.5 85 -56.5 145
c0 2.66699 0.166992 8.16699 0.5 16.5s0.5 13.833 0.5 16.5h408c0 63.333 -19.167 116.333 -57.5 159s-90.5 64 -156.5 64c-32 0 -63.5 -6.33301 -94.5 -19s-55.167 -28.667 -72.5 -48zM264 2c60 0 108.334 19.999 145.001 59.999s55 91 55 153h-399
c-2.66699 -67.333 14.166 -119.666 50.499 -156.999s85.833 -56 148.5 -56z" />
    <glyph glyph-name="afii57929" unicode="&#x2bc;" horiz-adv-x="181" 
d="M92 633l8 7.99902c14 -15.333 21 -35 21 -59c0 -50 -19.333 -85 -58 -105l-3 8c34 17.333 51 49 51 95c0 22.667 -6.33301 40.334 -19 53.001z" />
    <glyph glyph-name="circumflex" unicode="&#x2c6;" horiz-adv-x="353" 
d="M180 708l113 -130l-7 -7l-108 124l-110 -124l-8 7l116 130h4z" />
    <glyph glyph-name="caron" unicode="&#x2c7;" horiz-adv-x="353" 
d="M175 571l-115 130l7 7l110 -124l108 124l8 -7l-114 -130h-4z" />
    <glyph glyph-name="breve" unicode="&#x2d8;" horiz-adv-x="377" 
d="M60 674l7 6c37.333 -46.667 78.333 -70 123 -70c42.667 0 82.667 23.333 120 70l7 -6c-36.667 -49.333 -79 -74 -127 -74c-54 0 -97.333 24.667 -130 74z" />
    <glyph glyph-name="dotaccent" unicode="&#x2d9;" horiz-adv-x="145" 
d="M60 633c0 3.33301 1.33301 6.16602 4 8.49902s5.66699 3.5 9 3.5s6.16602 -1.16699 8.49902 -3.5s3.5 -5.16602 3.5 -8.49902s-1.16699 -6.33301 -3.5 -9s-5.16602 -4 -8.49902 -4c-8.66699 0 -13 4.33301 -13 13z" />
    <glyph glyph-name="ring" unicode="&#x2da;" horiz-adv-x="305" 
d="M60 615c0 25.333 9 47.166 27 65.499s39.667 27.5 65 27.5s47.166 -9.16699 65.499 -27.5s27.5 -40.166 27.5 -65.499s-9.16699 -47 -27.5 -65s-40.166 -27 -65.499 -27s-47 9 -65 27s-27 39.667 -27 65zM70 615c0 -23.333 8 -42.833 24 -58.5s35.333 -23.5 58 -23.5
c23.333 0 43 8 59 24s24 35.333 24 58c0 23.333 -8.16699 43 -24.5 59s-35.833 24 -58.5 24s-42 -8 -58 -24s-24 -35.667 -24 -59z" />
    <glyph glyph-name="ogonek" unicode="&#x2db;" horiz-adv-x="272" 
d="M209 -181l3 -9.00098c-16 -6.66699 -33.333 -10 -52 -10c-24.667 0 -47.5 7 -68.5 21s-31.5 37 -31.5 69c0 34.667 15.333 63.334 46 86.001s65 34 103 34v-10c-35.333 0 -67.333 -10.5 -96 -31.5s-43 -47.167 -43 -78.5c0 -28.667 9.83301 -49.167 29.5 -61.5
s40.167 -18.5 61.5 -18.5c19.333 0 35.333 3 48 9z" />
    <glyph glyph-name="tilde" unicode="&#x2dc;" horiz-adv-x="399" 
d="M66 596l-6.00098 7c33.333 27.333 62.333 41 87 41c16 0 34.667 -8.16699 56 -24.5s38.666 -24.5 51.999 -24.5c20.667 0 46.334 14.333 77.001 43l7 -7c-33.333 -30.667 -62 -46 -86 -46c-14.667 0 -32.667 8.16699 -54 24.5s-39.666 24.5 -54.999 24.5
c-21.333 0 -47.333 -12.667 -78 -38z" />
    <glyph glyph-name="hungarumlaut" unicode="&#x2dd;" horiz-adv-x="377" 
d="M317 700l-109 -141l-8 5l110 142zM177 700l-109 -141l-8 5l110 142z" />
    <glyph glyph-name="gravecomb" unicode="&#x300;" horiz-adv-x="0" 
d="M-251 559l-109 141l7 6l110 -142z" />
    <glyph glyph-name="acutecomb" unicode="&#x301;" horiz-adv-x="0" 
d="M-164 700l-109 -141l-8 5l110 142z" />
    <glyph glyph-name="uni0394" unicode="&#x394;" horiz-adv-x="696" 
d="M40 0l303 708h3l310 -708h-616zM344 688l-289 -678h585z" />
    <glyph glyph-name="uni0394" unicode="&#x2206;" horiz-adv-x="696" 
d="M40 0l303 708h3l310 -708h-616zM344 688l-289 -678h585z" />
    <glyph glyph-name="uni03A9" unicode="&#x3a9;" horiz-adv-x="804" 
d="M97 0l-0.000976562 10h194c-68.667 23.333 -124.334 65.833 -167.001 127.5s-64 132.5 -64 212.5c0 101.333 32.833 186.333 98.5 255s146.834 103 243.501 103s177.834 -34.333 243.501 -103s98.5 -153.667 98.5 -255c0 -80 -21.333 -150.833 -64 -212.5
s-98.667 -104.167 -168 -127.5h194v-10h-231v10c76 16.667 138.167 56.167 186.5 118.5s72.5 136.166 72.5 221.499c0 98.667 -31.833 181.334 -95.5 248.001s-142.5 100 -236.5 100s-172.833 -33.333 -236.5 -100s-95.5 -149.334 -95.5 -248.001
c0 -85.333 24 -159.166 72 -221.499s110 -101.833 186 -118.5v-10h-231z" />
    <glyph glyph-name="uni03A9" unicode="&#x2126;" horiz-adv-x="804" 
d="M97 0l-0.000976562 10h194c-68.667 23.333 -124.334 65.833 -167.001 127.5s-64 132.5 -64 212.5c0 101.333 32.833 186.333 98.5 255s146.834 103 243.501 103s177.834 -34.333 243.501 -103s98.5 -153.667 98.5 -255c0 -80 -21.333 -150.833 -64 -212.5
s-98.667 -104.167 -168 -127.5h194v-10h-231v10c76 16.667 138.167 56.167 186.5 118.5s72.5 136.166 72.5 221.499c0 98.667 -31.833 181.334 -95.5 248.001s-142.5 100 -236.5 100s-172.833 -33.333 -236.5 -100s-95.5 -149.334 -95.5 -248.001
c0 -85.333 24 -159.166 72 -221.499s110 -101.833 186 -118.5v-10h-231z" />
    <glyph glyph-name="pi" unicode="&#x3c0;" horiz-adv-x="651" 
d="M56 440l-0.000976562 10.002h539v-10h-115v-334c0 -36.667 3.83301 -62.334 11.5 -77.001s22.834 -22 45.501 -22c24 0 46.667 8 68 24l6 -9c-23.333 -16.667 -48 -25 -74 -25c-23.333 0 -40.333 7.5 -51 22.5s-16 38.833 -16 71.5v349h-289v-92
c0 -90.667 -6.33301 -162.5 -19 -215.5s-28.667 -88.333 -48 -106s-44 -26.5 -74 -26.5v10c28.667 0 52.167 9.33301 70.5 28s33 52.667 44 102s16.5 115.666 16.5 198.999v101h-115z" />
    <glyph glyph-name="afii10023" unicode="&#x401;" horiz-adv-x="575" 
d="M120 0v700h375v-10h-365v-328h335v-10h-335v-342h375v-10h-385zM178 790c0 8 4.33301 12 13 12c8 0 12 -4 12 -12c0 -8.66699 -4 -13 -12 -13c-8.66699 0 -13 4.33301 -13 13zM412 790c0 8 4.33301 12 13 12c8 0 12 -4 12 -12c0 -8.66699 -4 -13 -12 -13
c-8.66699 0 -13 4.33301 -13 13z" />
    <glyph glyph-name="afii10051" unicode="&#x402;" horiz-adv-x="757" 
d="M697 205c0 -74.667 -14.6719 -128.833 -44.0049 -162.5s-68.666 -50.5 -117.999 -50.5c-15.333 0 -30.666 2.83301 -45.999 8.5s-26.333 11.167 -33 16.5l6 9c21.333 -16 46 -24 74 -24c46.667 0 83.5 16.5 110.5 49.5s40.5 84.167 40.5 153.5
c0 71.333 -16.5 123.833 -49.5 157.5s-82.167 50.5 -147.5 50.5c-15.333 0 -30.5 -1.33301 -45.5 -4s-27.5 -5.33398 -37.5 -8.00098s-21.167 -7.16699 -33.5 -13.5s-21.333 -11.166 -27 -14.499s-14.167 -8.83301 -25.5 -16.5s-18.333 -12.167 -21 -13.5v-343h-10v690h-280
v10h570v-10h-280v-336c18.667 13.333 34.834 24 48.501 32s33.834 16.167 60.501 24.5s54.334 12.5 83.001 12.5c136.667 0 205 -72.667 205 -218z" />
    <glyph glyph-name="afii10052" unicode="&#x403;" horiz-adv-x="500" 
d="M120 0v700h380v-10h-370v-690h-10zM429 832l-154 -90l-5 7l155 91z" />
    <glyph glyph-name="afii10053" unicode="&#x404;" horiz-adv-x="684" 
d="M478 362l0.000976562 -10.001h-408v-2c0 -103.333 31.667 -187.166 95 -251.499s146.333 -96.5 249 -96.5c74.667 0 145.667 23.333 213 70l7 -7c-68 -48.667 -141.667 -73 -221 -73c-104.667 0 -189.667 32.833 -255 98.5s-98 152.167 -98 259.5
c0 104 31.833 189.667 95.5 257s148.167 101 253.5 101c88.667 0 158 -21.667 208 -65l-6 -7c-52.667 41.333 -120 62 -202 62c-100 0 -180.833 -31.5 -242.5 -94.5s-93.834 -143.5 -96.501 -241.5h408z" />
    <glyph glyph-name="afii10054" unicode="&#x405;" horiz-adv-x="541" 
d="M471 167c0 43.333 -13.5049 78.668 -40.5049 106.001s-59.667 48 -98 62l-115 41.5c-38.333 13.667 -71 34.167 -98 61.5s-40.5 62.666 -40.5 105.999c0 48.667 17.333 88.167 52 118.5s82.667 45.5 144 45.5c36.667 0 71.334 -6.33301 104.001 -19
s58.334 -29.334 77.001 -50.001l-7 -7c-42 44 -101 66 -177 66c-55.333 0 -99.666 -14 -132.999 -42s-50 -65 -50 -111c0 -31.333 7.16699 -58.166 21.5 -80.499s33 -39.833 56 -52.5s48.5 -24 76.5 -34l84 -31c28 -10.667 53.5 -22.834 76.5 -36.501s41.667 -32.667 56 -57
s21.5 -53.166 21.5 -86.499c0 -52.667 -20.667 -95 -62 -127s-92.666 -48 -153.999 -48c-40 0 -79.833 9 -119.5 27s-68.167 41 -85.5 69l8 7c20.667 -28 49.334 -50.5 86.001 -67.5s73 -25.5 109 -25.5c56.667 0 105.5 14.5 146.5 43.5s61.5 69.5 61.5 121.5z" />
    <glyph glyph-name="afii10055" unicode="&#x406;" horiz-adv-x="310" 
d="M150 0v700h10v-700h-10z" />
    <glyph glyph-name="afii10056" unicode="&#x407;" horiz-adv-x="310" 
d="M75 790c0 3.33301 1.33105 6.16797 3.99805 8.50098s5.66699 3.5 9 3.5c2.66699 0 5.33398 -1.33301 8.00098 -4s4 -5.33398 4 -8.00098c0 -3.33301 -1.16699 -6.33301 -3.5 -9s-5.16602 -4 -8.49902 -4c-8.66699 0 -13 4.33301 -13 13zM209.998 790.002
c0 3.33301 1.33301 6.16797 4 8.50098s5.66699 3.5 9 3.5s6.16602 -1.33301 8.49902 -4s3.5 -5.33398 3.5 -8.00098c0 -3.33301 -1.16699 -6.33301 -3.5 -9s-5.16602 -4 -8.49902 -4c-8.66699 0 -13 4.33301 -13 13zM149.998 0.00390625v700h10v-700h-10z" />
    <glyph glyph-name="afii10057" unicode="&#x408;" horiz-adv-x="341" 
d="M221 700l0.000976562 -552.999c0 -50.667 -8.66699 -89.167 -26 -115.5s-49 -39.5 -95 -39.5c-30 0 -56.667 8.33301 -80 25l6 9c21.333 -16 46 -24 74 -24c43.333 0 72.666 12.667 87.999 38s23 60.666 23 105.999v554h10z" />
    <glyph glyph-name="afii10058" unicode="&#x409;" horiz-adv-x="1047" 
d="M590 0l-0.000976562 690h-354l-10 -132c-5.33301 -72 -12.166 -137 -20.499 -195s-16.833 -106 -25.5 -144s-18.5 -71 -29.5 -99s-21.5 -49.5 -31.5 -64.5s-20.833 -26.833 -32.5 -35.5s-21.5 -14.167 -29.5 -16.5s-17 -3.5 -27 -3.5v10c98 0 160 183.333 186 550l10 140
h374v-301c50.667 4 92.334 6 125.001 6c87.333 0 152.833 -17.167 196.5 -51.5s65.5 -82.5 65.5 -144.5c0 -70 -23.5 -122.667 -70.5 -158s-112.167 -53 -195.5 -53c-16.667 0 -39.334 0.333008 -68.001 1s-49.667 1 -63 1zM726.999 395c-44 0 -86.334 -2 -127.001 -6v-379
c10.667 0 29.167 -0.333008 55.5 -1s48.5 -1 66.5 -1c82.667 0 145.834 17.167 189.501 51.5s65.5 84.5 65.5 150.5c0 58.667 -21.167 104.167 -63.5 136.5s-104.5 48.5 -186.5 48.5z" />
    <glyph glyph-name="afii10059" unicode="&#x40a;" horiz-adv-x="1092" 
d="M120 0v700h10v-311h505v311h10v-311c50.667 4 92.334 6 125.001 6c174.667 0 262 -63.667 262 -191c0 -69.333 -23.333 -121 -70 -155s-112 -51 -196 -51c-17.333 0 -40.333 0.333008 -69 1s-49.334 1 -62.001 1v379h-505v-379h-10zM645 379v-369
c10.667 0 29.167 -0.333008 55.5 -1s48.5 -1 66.5 -1c170 0 255 65.667 255 197c0 58 -21 102.5 -63 133.5s-104.333 46.5 -187 46.5c-44 0 -86.333 -2 -127 -6z" />
    <glyph glyph-name="afii10060" unicode="&#x40b;" horiz-adv-x="757" 
d="M10 690v10h570v-10h-280v-337c62 46.667 129.667 70 203 70c62 0 109.833 -18.333 143.5 -55s50.5 -93 50.5 -169v-199h-10v202c0 69.333 -16 121.833 -48 157.5s-78 53.5 -138 53.5c-30 0 -59.833 -4.83301 -89.5 -14.5s-49.667 -17.5 -60 -23.5
s-27.5 -16.667 -51.5 -32v-343h-10v690h-280z" />
    <glyph glyph-name="afii10061" unicode="&#x40c;" horiz-adv-x="614" 
d="M563 700l-361 -335l372 -365h-15l-372 365l362 335h14zM120 0v700h10v-700h-10zM429 832l-154 -90l-5 7l155 91z" />
    <glyph glyph-name="afii10062" unicode="&#x40e;" horiz-adv-x="631" 
d="M611 700l-248.001 -546c-24.667 -55.333 -47.667 -94.833 -69 -118.5s-46 -35.5 -74 -35.5c-27.333 -0 -49 6.33301 -65 19l4 9c18.667 -12.667 38.667 -19 60 -19c42.667 0 82.334 38 119.001 114l15 31l-333 546h11l327 -536l242 536h11zM163.999 840
l10.002 -0.000976562c37.333 -53.333 88 -80 152 -80c32.667 0 63.167 7.83301 91.5 23.5s47.166 34.5 56.499 56.5h10c-9.33301 -25.333 -29.5 -46.666 -60.5 -63.999s-63.5 -26 -97.5 -26c-36 0 -68.833 8.5 -98.5 25.5s-50.834 38.5 -63.501 64.5z" />
    <glyph glyph-name="afii10145" unicode="&#x40f;" horiz-adv-x="765" 
d="M120 0v700h10v-690h505v690h10v-700h-258v-160h-10v160h-257z" />
    <glyph glyph-name="afii10017" unicode="&#x410;" horiz-adv-x="685" 
d="M30 0l311 708h3l311 -708h-11l-122 277h-360l-121 -277h-11zM342 688l-176 -401h352z" />
    <glyph glyph-name="afii10018" unicode="&#x411;" horiz-adv-x="607" 
d="M490 700v-10h-360v-291c50.667 4 95.667 6 135 6c87.333 0 152.833 -17.167 196.5 -51.5s65.5 -82.5 65.5 -144.5c0 -70 -23.5 -122.667 -70.5 -158s-112.167 -53 -195.5 -53c-16.667 0 -41 0.333008 -73 1s-54.667 1 -68 1v700h370zM267 395
c-50.667 0 -96.335 -2 -137.002 -6v-379c10.667 0 30.834 -0.333008 60.501 -1s53.5 -1 71.5 -1c82.667 0 145.834 17.167 189.501 51.5s65.5 84.5 65.5 150.5c0 58.667 -21.167 104.167 -63.5 136.5s-104.5 48.5 -186.5 48.5z" />
    <glyph glyph-name="afii10019" unicode="&#x412;" horiz-adv-x="617" 
d="M120 0v700.002c12 0 38.833 0.333008 80.5 1s72.167 1 91.5 1c143.333 0 215 -57.333 215 -172c0 -48 -15.5 -86.667 -46.5 -116s-68.833 -46.333 -113.5 -51v-2c61.333 -4.66699 108.333 -21.834 141 -51.501s49 -69.834 49 -120.501c0 -65.333 -22 -113.5 -66 -144.5
s-102.667 -46.5 -176 -46.5c-20 0 -51 0.333008 -93 1s-69.333 1 -82 1zM294 355.002h-164.001v-345c10.667 0 35.834 -0.333008 75.501 -1s68.5 -1 86.5 -1c74.667 0 132.5 15.167 173.5 45.5s61.5 75.833 61.5 136.5c0 52 -20.167 92.5 -60.5 121.5
s-97.833 43.5 -172.5 43.5zM289.999 692.002c-62.667 0 -116.001 -0.666992 -160.001 -2v-325h172c54.667 0 100.834 15.333 138.501 46s56.5 70.667 56.5 120c0 53.333 -16.5 93.5 -49.5 120.5s-85.5 40.5 -157.5 40.5z" />
    <glyph glyph-name="afii10020" unicode="&#x413;" horiz-adv-x="500" 
d="M120 0v700h380v-10h-370v-690h-10z" />
    <glyph glyph-name="afii10021" unicode="&#x414;" horiz-adv-x="734" 
d="M20 -140v150.004h75c9.33301 11.333 19.5 29.166 30.5 53.499s23.333 57.666 37 99.999s26.167 98.166 37.5 167.499s19.333 145.666 24 228.999l8 140h367v-690h95v-150h-10v140h-654v-140h-10zM234 558.004c-6.66699 -109.333 -18.999 -206.833 -36.999 -292.5
s-34.333 -146 -49 -181s-28.334 -59.833 -41.001 -74.5h482v680h-347z" />
    <glyph glyph-name="afii10022" unicode="&#x415;" horiz-adv-x="575" 
d="M120 0v700h375v-10h-365v-328h335v-10h-335v-342h375v-10h-385z" />
    <glyph glyph-name="afii10024" unicode="&#x416;" horiz-adv-x="894" 
d="M843 700l-323 -334l334 -366h-14l-333 365l322 335h14zM442 0v700h10v-700h-10zM374 365l-323 335h14l322 -335l-333 -365h-14z" />
    <glyph glyph-name="afii10025" unicode="&#x417;" horiz-adv-x="565" 
d="M258 -8c-38 0 -77.667 8.99902 -119 26.999s-71 40.333 -89 67l7 5c23.333 -27.333 54.166 -49 92.499 -65s73.5 -24 105.5 -24c68 0 121.667 17.667 161 53s59 82.333 59 141c0 48 -15.167 86.167 -45.5 114.5s-70.5 42.5 -120.5 42.5h-97v10h90
c36.667 0 70.167 17 100.5 51s45.5 74.667 45.5 122c0 52 -16.5 92 -49.5 120s-75.5 42 -127.5 42c-76.667 0 -141.667 -27.667 -195 -83l-7 4c49.333 59.333 115.333 89 198 89c58.667 0 105.167 -15.5 139.5 -46.5s51.5 -73.833 51.5 -128.5
c0 -35.333 -10.167 -69.333 -30.5 -102s-48.166 -55.667 -83.499 -69v-3c42 -2.66699 76 -20 102 -52s39 -69 39 -111c0 -63.333 -21 -113.166 -63 -149.499s-96.667 -54.5 -164 -54.5z" />
    <glyph glyph-name="afii10026" unicode="&#x418;" horiz-adv-x="800" 
d="M130 0h-10v700h10v-685l540 685h10v-700h-10v685z" />
    <glyph glyph-name="afii10027" unicode="&#x419;" horiz-adv-x="800" 
d="M130 0h-10v700h10v-685l540 685h10v-700h-10v685zM234 840l10.002 -0.000976562c37.333 -53.333 88 -80 152 -80c32.667 0 63.167 7.83301 91.5 23.5s47.166 34.5 56.499 56.5h10c-9.33301 -25.333 -29.5 -46.666 -60.5 -63.999s-63.5 -26 -97.5 -26
c-36 0 -68.833 8.5 -98.5 25.5s-50.834 38.5 -63.501 64.5z" />
    <glyph glyph-name="afii10028" unicode="&#x41a;" horiz-adv-x="614" 
d="M563 700l-361 -335l372 -365h-15l-372 365l362 335h14zM120 0v700h10v-700h-10z" />
    <glyph glyph-name="afii10029" unicode="&#x41b;" horiz-adv-x="720" 
d="M590 0l-0.000976562 690h-354l-10 -132c-5.33301 -72 -12.166 -137 -20.499 -195s-16.833 -106 -25.5 -144s-18.5 -71 -29.5 -99s-21.5 -49.5 -31.5 -64.5s-20.833 -26.833 -32.5 -35.5s-21.5 -14.167 -29.5 -16.5s-17 -3.5 -27 -3.5v10c98 0 160 183.333 186 550l10 140
h374v-700h-10z" />
    <glyph glyph-name="afii10030" unicode="&#x41c;" horiz-adv-x="872" 
d="M120 0v700h11l310 -422l300 422h11v-700h-10v686l-300 -423h-3l-309 420v-683h-10z" />
    <glyph glyph-name="afii10031" unicode="&#x41d;" horiz-adv-x="775" 
d="M645 0v352h-515v-352h-10v700h10v-338h515v338h10v-700h-10z" />
    <glyph glyph-name="afii10032" unicode="&#x41e;" horiz-adv-x="804" 
d="M60 350c0 101.333 32.833 186.333 98.5 255s146.834 103 243.501 103s177.834 -34.333 243.501 -103s98.5 -153.667 98.5 -255s-32.833 -186.333 -98.5 -255s-146.834 -103 -243.501 -103s-177.834 34.333 -243.501 103s-98.5 153.667 -98.5 255zM70 350
c0 -98.667 31.833 -181.334 95.5 -248.001s142.5 -100 236.5 -100s172.833 33.333 236.5 100s95.5 149.334 95.5 248.001s-31.833 181.334 -95.5 248.001s-142.5 100 -236.5 100s-172.833 -33.333 -236.5 -100s-95.5 -149.334 -95.5 -248.001z" />
    <glyph glyph-name="afii10033" unicode="&#x41f;" horiz-adv-x="775" 
d="M645 0v690h-515v-690h-10v700h535v-700h-10z" />
    <glyph glyph-name="afii10034" unicode="&#x420;" horiz-adv-x="567" 
d="M130 0h-10.001v700c13.333 0 39.333 0.333008 78 1s63.334 1 74.001 1c44.667 0 83 -5.83301 115 -17.5s56.333 -27.5 73 -47.5s28.667 -41.167 36 -63.5s11 -46.833 11 -73.5c0 -57.333 -20 -105.833 -60 -145.5s-101.667 -59.5 -185 -59.5
c-36.667 0 -80.667 1.66699 -132 5v-300zM272.999 692c-51.333 0 -99 -0.666992 -143 -2v-380c51.333 -3.33301 95 -5 131 -5c78 0 136.833 18.333 176.5 55s59.5 83.667 59.5 141c0 56.667 -18 102.667 -54 138s-92.667 53 -170 53z" />
    <glyph glyph-name="afii10035" unicode="&#x421;" horiz-adv-x="657" 
d="M611 75l6.00195 -7.99902c-24.667 -23.333 -56.334 -41.666 -95.001 -54.999s-78 -20 -118 -20c-102.667 0 -185.667 32.667 -249 98s-95 152 -95 260c0 102 31 187.167 93 255.5s142 102.5 240 102.5c87.333 0 157.666 -21 210.999 -63l-7 -7
c-49.333 40 -117 60 -203 60c-96 0 -174 -33.333 -234 -100s-90 -149.334 -90 -248.001c0 -104.667 30.833 -188.834 92.5 -252.501s142.167 -95.5 241.5 -95.5c81.333 0 150.333 24.333 207 73z" />
    <glyph glyph-name="afii10036" unicode="&#x422;" horiz-adv-x="590" 
d="M10 690v10h570v-10h-280v-690h-10v690h-280z" />
    <glyph glyph-name="afii10037" unicode="&#x423;" horiz-adv-x="631" 
d="M611 700l-248.001 -546c-24.667 -55.333 -47.667 -94.833 -69 -118.5s-46 -35.5 -74 -35.5c-27.333 -0 -49 6.33301 -65 19l4 9c18.667 -12.667 38.667 -19 60 -19c42.667 0 82.334 38 119.001 114l15 31l-333 546h11l327 -536l242 536h11z" />
    <glyph glyph-name="afii10038" unicode="&#x424;" horiz-adv-x="824" 
d="M406 -8l-0.000976562 90h-11c-103.333 0 -186.666 24.667 -249.999 74s-95 117.333 -95 204c0 87.333 31.333 155.5 94 204.5s147.667 73.5 255 73.5h7v70h10v-70h7c109.333 0 195.166 -24.5 257.499 -73.5s93.5 -117.167 93.5 -204.5
c0 -86.667 -31.667 -154.667 -95 -204s-146.666 -74 -249.999 -74h-13v-90h-10zM423.999 628h-8v-536h13c98 0 178.333 23.167 241 69.5s94 112.5 94 198.5c0 86.667 -31 153 -93 199s-144.333 69 -247 69zM59.999 360c0 -85.333 31.168 -151.333 93.501 -198
s143.166 -70 242.499 -70h10v536h-7c-102 0 -184 -23.333 -246 -70s-93 -112.667 -93 -198z" />
    <glyph glyph-name="afii10039" unicode="&#x425;" horiz-adv-x="654" 
d="M605 700l-271 -344l280 -356h-13l-274 348l-274 -348h-13l281 356l-270 344h13l263 -335l265 335h13z" />
    <glyph glyph-name="afii10040" unicode="&#x426;" horiz-adv-x="785" 
d="M120 0v700h10v-690h510v690h10v-690h95v-150h-10v140h-615z" />
    <glyph glyph-name="afii10041" unicode="&#x427;" horiz-adv-x="615" 
d="M495 700v-700h-10v344c-26 -17.333 -58.833 -32.833 -98.5 -46.5s-80.167 -20.5 -121.5 -20.5c-62.667 0 -112.5 18.5 -149.5 55.5s-55.5 93.167 -55.5 168.5v199h10v-202c0 -68 17.5 -120.167 52.5 -156.5s83.167 -54.5 144.5 -54.5c72 0 144.667 22.667 218 68v345h10z
" />
    <glyph glyph-name="afii10042" unicode="&#x428;" horiz-adv-x="990" 
d="M120 0v700h10v-690h360v690h10v-690h360v690h10v-700h-750z" />
    <glyph glyph-name="afii10043" unicode="&#x429;" horiz-adv-x="1005" 
d="M120 0v700h10v-690h360v690h10v-690h360v690h10v-690h95v-150h-10v140h-835z" />
    <glyph glyph-name="afii10044" unicode="&#x42a;" horiz-adv-x="661" 
d="M0 690v10h204v-301c50.667 4 95.667 6 135 6c87.333 0 152.833 -17.167 196.5 -51.5s65.5 -82.5 65.5 -144.5c0 -70 -23.5 -122.667 -70.5 -158s-112.167 -53 -195.5 -53c-16.667 0 -41.167 0.333008 -73.5 1s-54.833 1 -67.5 1v690h-194zM341 395
c-50.667 0 -96.335 -2 -137.002 -6v-379c10.667 0 30.834 -0.333008 60.501 -1s53.5 -1 71.5 -1c82.667 0 145.834 17.167 189.501 51.5s65.5 84.5 65.5 150.5c0 58.667 -21.167 104.167 -63.5 136.5s-104.5 48.5 -186.5 48.5z" />
    <glyph glyph-name="afii10045" unicode="&#x42b;" horiz-adv-x="805" 
d="M675 0v700h10v-700h-10zM257 395c-44 0 -86.334 -2 -127.001 -6v-379c10.667 0 29.167 -0.333008 55.5 -1s48.5 -1 66.5 -1c82.667 0 145.834 17.167 189.501 51.5s65.5 84.5 65.5 150.5c0 58.667 -21.167 104.167 -63.5 136.5s-104.5 48.5 -186.5 48.5zM129.999 700
v-301c50.667 4 92.334 6 125.001 6c87.333 0 152.833 -17.167 196.5 -51.5s65.5 -82.5 65.5 -144.5c0 -70 -23.5 -122.667 -70.5 -158s-112.167 -53 -195.5 -53c-17.333 0 -40.333 0.333008 -69 1s-49.334 1 -62.001 1v700h10z" />
    <glyph glyph-name="afii10046" unicode="&#x42c;" horiz-adv-x="587" 
d="M267 395c-50.667 0 -96.335 -2 -137.002 -6v-379c10.667 0 30.834 -0.333008 60.501 -1s53.5 -1 71.5 -1c82.667 0 145.834 17.167 189.501 51.5s65.5 84.5 65.5 150.5c0 58.667 -21.167 104.167 -63.5 136.5s-104.5 48.5 -186.5 48.5zM129.999 700v-301
c50.667 4 95.667 6 135 6c87.333 0 152.833 -17.167 196.5 -51.5s65.5 -82.5 65.5 -144.5c0 -70 -23.5 -122.667 -70.5 -158s-112.167 -53 -195.5 -53c-16.667 0 -41 0.333008 -73 1s-54.667 1 -68 1v700h10z" />
    <glyph glyph-name="afii10047" unicode="&#x42d;" horiz-adv-x="684" 
d="M206 352l0.000976562 10h408c-2 102.667 -33.5 184.334 -94.5 245.001s-142.5 91 -244.5 91c-82 0 -149.333 -20.667 -202 -62l-6 7c50 43.333 119.333 65 208 65c107.333 0 192.333 -31.833 255 -95.5s94 -149.834 94 -258.501c0 -102.667 -31.667 -188.667 -95 -258
s-146 -104 -248 -104c-86 0 -163 24.333 -231 73l7 7c67.333 -46.667 141.666 -70 222.999 -70c100 0 180.5 33.5 241.5 100.5s91.833 150.167 92.5 249.5h-408z" />
    <glyph glyph-name="afii10048" unicode="&#x42e;" horiz-adv-x="1072" 
d="M120 0v700h10v-338h218c3.33301 99.333 36 181.833 98 247.5s140 98.5 234 98.5c96 0 175.333 -34.167 238 -102.5s94 -153.5 94 -255.5s-31.333 -187.167 -94 -255.5s-142 -102.5 -238 -102.5s-175.333 34.167 -238 102.5s-94 153.5 -94 255.5v2h-218v-352h-10zM358 350
c0 -99.333 30.333 -182.166 91 -248.499s137.667 -99.5 231 -99.5s170.333 33.167 231 99.5s91 149.166 91 248.499s-30.333 182.166 -91 248.499s-137.667 99.5 -231 99.5s-170.333 -33.167 -231 -99.5s-91 -149.166 -91 -248.499z" />
    <glyph glyph-name="afii10049" unicode="&#x42f;" horiz-adv-x="603" 
d="M473 0l-0.000976562 294.999h-192l-227 -295h-14l230 296c-46 8 -86.5 30.333 -121.5 67s-52.5 79.334 -52.5 128.001c0 62.667 21.333 113.5 64 152.5s103.334 58.5 182.001 58.5c17.333 0 42 -0.333008 74 -1s54.333 -1 67 -1v-700h-10zM275.999 304.999h197.001v385
c-10.667 0 -30.834 0.333008 -60.501 1s-53.5 1 -71.5 1c-78 0 -136.667 -19 -176 -57s-59 -86.333 -59 -145c0 -46 17.167 -86.667 51.5 -122s73.833 -56.333 118.5 -63z" />
    <glyph glyph-name="afii10065" unicode="&#x430;" horiz-adv-x="456" 
d="M89 409l-4.99805 8c44 27.333 88.667 41 134 41c57.333 0 98 -14.667 122 -44s36 -73.333 36 -132v-282h-10v85c-42.667 -59.333 -101.334 -89 -176.001 -89c-42.667 0 -76.667 11.5 -102 34.5s-38 53.167 -38 90.5c0 43.333 15.833 76.666 47.5 99.999
s72.834 35 123.501 35c59.333 0 107.666 -13.333 144.999 -40c0 24.667 -0.166992 43.834 -0.5 57.501s-1.5 30 -3.5 49s-5 33.667 -9 44s-9.5 21.5 -16.5 33.5s-15.833 21 -26.5 27s-23.834 11 -39.501 15s-33.834 6 -54.501 6c-41.333 0 -83.666 -13 -126.999 -39z
M189.002 6c44.667 0 80.335 8.83301 107.002 26.5s50 40.5 70 68.5v102c-40.667 28.667 -89.667 43 -147 43c-42.667 0 -79.834 -10.5 -111.501 -31.5s-47.5 -51.833 -47.5 -92.5c0 -36 12.167 -64.333 36.5 -85s55.166 -31 92.499 -31z" />
    <glyph glyph-name="afii10066" unicode="&#x431;" horiz-adv-x="560" 
d="M458 709l6.99609 -3c-13.333 -23.333 -31.166 -38.333 -53.499 -45s-52.666 -12.167 -90.999 -16.5s-73.166 -13.166 -104.499 -26.499c-93.333 -38.667 -143.666 -143.667 -150.999 -315h2c16 45.333 44.333 81.166 85 107.499s85 39.5 133 39.5
c68.667 0 122.5 -21 161.5 -63s58.5 -97.333 58.5 -166c0 -63.333 -21.5 -117.333 -64.5 -162s-95.5 -67 -157.5 -67c-68.667 0 -123.834 24.333 -165.501 73s-62.5 115 -62.5 199c0 22 0.5 41.667 1.5 59s3 39.333 6 66s8.16699 50.834 15.5 72.501s16.5 43.667 27.5 66
s26 42.166 45 59.499s40.833 31 65.5 41c31.333 12.667 65.333 21.167 102 25.5s65.834 9.5 87.501 15.5s39.167 19.333 52.5 40zM64.9961 265c0 -83.333 20.332 -147.999 60.999 -193.999s92.667 -69 156 -69c60 0 110.5 21.167 151.5 63.5s61.5 94.166 61.5 155.499
c0 66 -18.667 119 -56 159s-88.666 60 -153.999 60c-60 0 -109.833 -17.833 -149.5 -53.5s-63.167 -76.167 -70.5 -121.5z" />
    <glyph glyph-name="afii10067" unicode="&#x432;" horiz-adv-x="477" 
d="M90 0l0.000976562 449.999c12 0 32.167 0.333008 60.5 1s52.166 1 71.499 1c58.667 0 102.5 -9 131.5 -27s43.5 -46.333 43.5 -85c0 -26.667 -8.33301 -50 -25 -70s-41.667 -32.333 -75 -37v-2c42.667 -4.66699 73.334 -16.167 92.001 -34.5s28 -44.166 28 -77.499
c0 -80.667 -64 -121 -192 -121c-20 0 -44.333 0.333008 -73 1s-49.334 1 -62.001 1zM244.001 224.999h-144v-215c10.667 0 29.167 -0.333008 55.5 -1s48.5 -1 66.5 -1c123.333 0 185 37.333 185 112c0 70 -54.333 105 -163 105zM220.001 441.999
c-36 0 -75.999 -0.666992 -119.999 -2v-205h152c41.333 0 74.166 9.66699 98.499 29s36.5 45 36.5 77c0 67.333 -55.667 101 -167 101z" />
    <glyph glyph-name="afii10068" unicode="&#x433;" horiz-adv-x="340" 
d="M90 0v450h250v-10h-240v-440h-10z" />
    <glyph glyph-name="afii10069" unicode="&#x434;" horiz-adv-x="504" 
d="M474 -120v120.001h-454v-120h-10v130h55c16 20 32 56.167 48 108.5s26.333 116.166 31 191.499l8 140h257v-440h75v-130h-10zM154 308.001c-4.66699 -70 -15 -132.833 -31 -188.5s-31.333 -92.167 -46 -109.5h322v430h-237z" />
    <glyph glyph-name="afii10070" unicode="&#x435;" horiz-adv-x="529" 
d="M446 69l6 -6c-18.667 -22.667 -42.667 -40.167 -72 -52.5s-59.666 -18.5 -90.999 -18.5c-68.667 0 -124.834 21.333 -168.501 64s-65.5 99 -65.5 169c0 68.667 18.833 124.667 56.5 168s92.167 65 163.5 65c58.667 0 106.5 -18.333 143.5 -55s55.5 -85 55.5 -145
c0 -2.66699 -0.166992 -6.5 -0.5 -11.5s-0.5 -8.83301 -0.5 -11.5h-408c0 -71.333 20.167 -128 60.5 -170s94.833 -63 163.5 -63c31.333 0 61 6.16699 89 18.5s50.667 28.5 68 48.5zM271 448c-62 0 -111.001 -18.833 -147.001 -56.5s-55.667 -86.5 -59 -146.5h399
c0.666992 62 -16.666 111.333 -51.999 148s-82.333 55 -141 55z" />
    <glyph glyph-name="afii10072" unicode="&#x436;" horiz-adv-x="619" 
d="M577 450l-200 -215l212 -235h-14l-212 235l200 215h14zM303 0v450h10v-450h-10zM240 235l-201 215h14l200 -215l-209 -235h-14z" />
    <glyph glyph-name="afii10073" unicode="&#x437;" horiz-adv-x="452" 
d="M213 -8c-27.333 0 -57.834 5.66602 -91.501 16.999s-57.5 25.333 -71.5 42l6 9c18 -18 42 -32.167 72 -42.5s57.667 -15.5 83 -15.5c52 0 93.5 11 124.5 33s46.5 52 46.5 90c0 31.333 -11.5 55.833 -34.5 73.5s-54.167 26.5 -93.5 26.5h-76v10h71
c30 0 56.333 10.833 79 32.5s34 47.834 34 78.501c0 32 -12.833 57 -38.5 75s-60.167 27 -103.5 27c-58 0 -107.667 -18.333 -149 -55l-6 7c37.333 38.667 89.333 58 156 58c48.667 0 86 -10 112 -30s39 -48 39 -84c0 -52.667 -28.333 -89.667 -85 -111v-2
c32.667 -2 58.334 -13.333 77.001 -34s28 -44.667 28 -72c0 -41.333 -16.5 -73.833 -49.5 -97.5s-76.167 -35.5 -129.5 -35.5z" />
    <glyph glyph-name="afii10074" unicode="&#x438;" horiz-adv-x="560" 
d="M100 0h-10v450h10v-435l360 435h10v-450h-10v435z" />
    <glyph glyph-name="afii10075" unicode="&#x439;" horiz-adv-x="560" 
d="M100 0h-10v450h10v-435l360 435h10v-450h-10v435zM165 690h9.99902c0 -29.333 10.167 -53.333 30.5 -72s47.5 -28 81.5 -28c32.667 0 58.834 9.5 78.501 28.5s29.5 42.833 29.5 71.5h10c0 -32 -11.167 -58.333 -33.5 -79s-50.5 -31 -84.5 -31
c-36.667 0 -66.167 10.333 -88.5 31s-33.5 47 -33.5 79z" />
    <glyph glyph-name="afii10076" unicode="&#x43a;" horiz-adv-x="463" 
d="M417 450l-255 -215l271 -235h-17l-269 235l254 215h16zM90 0v450h10v-450h-10z" />
    <glyph glyph-name="afii10077" unicode="&#x43b;" horiz-adv-x="520" 
d="M420 0l0.000976562 440h-237l-8 -132c-3.33301 -52.667 -9.16602 -98.667 -17.499 -138s-17.333 -69.5 -27 -90.5s-20.5 -37.833 -32.5 -50.5s-22.5 -20.667 -31.5 -24s-17.833 -5 -26.5 -5v10c6.66699 0 13.667 1.33301 21 4s16.833 10 28.5 22s22.167 28 31.5 48
s18.166 49.667 26.499 89s14.166 85 17.499 137l8 140h257v-450h-10z" />
    <glyph glyph-name="afii10078" unicode="&#x43c;" horiz-adv-x="616" 
d="M90 0v450h11l210 -293l204 293h11v-450h-10v436l-204 -294h-3l-209 294v-436h-10z" />
    <glyph glyph-name="afii10079" unicode="&#x43d;" horiz-adv-x="555" 
d="M455 0v225h-355v-225h-10v450h10v-215h355v215h10v-450h-10z" />
    <glyph glyph-name="afii10080" unicode="&#x43e;" horiz-adv-x="570" 
d="M55 225c0 67.333 21.667 123 65 167s98.333 66 165 66s121.667 -22 165 -66s65 -99.667 65 -167s-21.667 -123 -65 -167s-98.333 -66 -165 -66s-121.667 22 -165 66s-65 99.667 -65 167zM65 225c0 -65.333 20.5 -118.833 61.5 -160.5s93.833 -62.5 158.5 -62.5
s117.5 20.833 158.5 62.5s61.5 95.167 61.5 160.5s-20.5 118.833 -61.5 160.5s-93.833 62.5 -158.5 62.5s-117.5 -20.833 -158.5 -62.5s-61.5 -95.167 -61.5 -160.5z" />
    <glyph glyph-name="afii10081" unicode="&#x43f;" horiz-adv-x="550" 
d="M450 0v440h-350v-440h-10v450h370v-450h-10z" />
    <glyph glyph-name="afii10082" unicode="&#x440;" horiz-adv-x="551" 
d="M90 -200l-0.000976562 649.999h10v-71c19.333 23.333 45.833 42.333 79.5 57s67.5 22 101.5 22c66.667 0 119.167 -20.833 157.5 -62.5s57.5 -96.167 57.5 -163.5c0 -69.333 -21 -126.666 -63 -171.999s-96.667 -68 -164 -68c-69.333 0 -125.666 16.667 -168.999 50v-242
h-10zM280.999 447.999c-36.667 0 -72.167 -8.50098 -106.5 -25.501s-59.166 -36.167 -74.499 -57.5v-310c48 -35.333 104.667 -53 170 -53c63.333 0 115.166 21.167 155.499 63.5s60.5 96.833 60.5 163.5s-18.167 119.834 -54.5 159.501s-86.5 59.5 -150.5 59.5z" />
    <glyph glyph-name="afii10083" unicode="&#x441;" horiz-adv-x="492" 
d="M446 69l5.99902 -6c-18.667 -22.667 -42.667 -40.167 -72 -52.5s-59.666 -18.5 -90.999 -18.5c-68.667 0 -124.834 21.333 -168.501 64s-65.5 99 -65.5 169c0 65.333 21 120.5 63 165.5s93.667 67.5 155 67.5c74.667 0 131.334 -17.667 170.001 -53l-6 -9
c-39.333 34.667 -93.333 52 -162 52c-58 0 -107.5 -21.5 -148.5 -64.5s-61.5 -95.833 -61.5 -158.5c0 -67.333 20.833 -121.333 62.5 -162s95.5 -61 161.5 -61c31.333 0 61 6.16699 89 18.5s50.667 28.5 68 48.5z" />
    <glyph glyph-name="afii10084" unicode="&#x442;" horiz-adv-x="430" 
d="M10 440v10h410v-10h-200v-440h-10v440h-200z" />
    <glyph glyph-name="afii10085" unicode="&#x443;" horiz-adv-x="466" 
d="M446 450l-185 -450c-32 -77.333 -60 -130 -84 -158s-51.333 -42 -82 -42c-19.333 0 -40.666 5 -63.999 15l4 9c23.333 -10 42.666 -15 57.999 -15c28 0 53.5 12.833 76.5 38.5s46.833 68.5 71.5 128.5l10 24l-231 450h11l187 -366l38 -74l31 76l148 364h11z" />
    <glyph glyph-name="afii10086" unicode="&#x444;" horiz-adv-x="650" 
d="M320 -200l-0.000976562 192h-21c-74 0 -133.167 21.833 -177.5 65.5s-66.5 99.5 -66.5 167.5c0 63.333 22.333 118 67 164s103.334 69 176.001 69h22v242h10v-242h23c69.333 0 127 -22.333 173 -67s69 -100 69 -166c0 -68 -22.167 -123.833 -66.5 -167.5
s-102.833 -65.5 -175.5 -65.5h-23v-192h-10zM64.999 225c0 -66 21.332 -119.667 63.999 -161s100.334 -62 173.001 -62h18v446h-23c-68.667 0 -124.5 -21.333 -167.5 -64s-64.5 -95.667 -64.5 -159zM352.998 448h-23v-446h19c72 0 129.333 20.667 172 62s64 95 64 161
c0 61.333 -21.333 113.833 -64 157.5s-98.667 65.5 -168 65.5z" />
    <glyph glyph-name="afii10087" unicode="&#x445;" horiz-adv-x="477" 
d="M427 450l-182 -219l192 -231h-13l-186 223l-185 -223h-13l192 231l-182 219h13l175 -211l176 211h13z" />
    <glyph glyph-name="afii10088" unicode="&#x446;" horiz-adv-x="555" 
d="M90 0v450h10v-440h350v440h10v-440h75v-130h-10v120h-435z" />
    <glyph glyph-name="afii10089" unicode="&#x447;" horiz-adv-x="465" 
d="M375 450v-450h-10v213c-39.333 -30.667 -89.333 -46 -150 -46c-103.333 0 -155 54.667 -155 164v119h10v-122c0 -100.667 49 -151 147 -151c58 0 107.333 15.667 148 47v226h10z" />
    <glyph glyph-name="afii10090" unicode="&#x448;" horiz-adv-x="690" 
d="M90 0v450h10v-440h240v440h10v-440h240v440h10v-450h-510z" />
    <glyph glyph-name="afii10091" unicode="&#x449;" horiz-adv-x="695" 
d="M90 0v450h10v-440h240v440h10v-440h240v440h10v-440h75v-130h-10v120h-575z" />
    <glyph glyph-name="afii10092" unicode="&#x44a;" horiz-adv-x="486" 
d="M0 440v10h164v-175h94c64.667 0 110.5 -12 137.5 -36s40.5 -58 40.5 -102c0 -91.333 -60.333 -137 -181 -137h-101v440h-154zM258 265h-94v-255h93c60.667 0 104 11 130 33s39 53.667 39 95c0 84.667 -56 127 -168 127z" />
    <glyph glyph-name="afii10093" unicode="&#x44b;" horiz-adv-x="590" 
d="M90 0v450h10v-175h84c64.667 0 110.5 -12 137.5 -36s40.5 -58 40.5 -102c0 -91.333 -60.333 -137 -181 -137h-91zM184 265h-84v-255h83c60.667 0 104 11 130 33s39 53.667 39 95c0 84.667 -56 127 -168 127zM490 0v450h10v-450h-10z" />
    <glyph glyph-name="afii10094" unicode="&#x44c;" horiz-adv-x="422" 
d="M90 0v450h10v-175h94c64.667 0 110.5 -12 137.5 -36s40.5 -58 40.5 -102c0 -91.333 -60.333 -137 -181 -137h-101zM194 265h-94v-255h93c60.667 0 104 11 130 33s39 53.667 39 95c0 84.667 -56 127 -168 127z" />
    <glyph glyph-name="afii10095" unicode="&#x44d;" horiz-adv-x="492" 
d="M166 225l0.000976562 9.99902h261c-2.66699 64.667 -24.667 116.334 -66 155.001s-94 58 -158 58c-31.333 0 -61 -6.16699 -89 -18.5s-50.667 -28.5 -68 -48.5l-6 6c18.667 22.667 42.667 40.167 72 52.5s59.666 18.5 90.999 18.5c68.667 0 124.834 -21.333 168.501 -64
s65.5 -99 65.5 -169c0 -65.333 -21 -120.5 -63 -165.5s-93.667 -67.5 -155 -67.5c-74.667 0 -131.334 17.667 -170.001 53l6 9c39.333 -34.667 93.333 -52 162 -52c58 0 107.5 21.5 148.5 64.5s61.5 95.833 61.5 158.5h-261z" />
    <glyph glyph-name="afii10096" unicode="&#x44e;" horiz-adv-x="735" 
d="M90 0v450h10v-215h140c2 65.333 23.5 118.833 64.5 160.5s92.833 62.5 155.5 62.5c64 0 116.667 -21.833 158 -65.5s62 -99.5 62 -167.5s-20.667 -123.833 -62 -167.5s-94 -65.5 -158 -65.5s-116.667 21.833 -158 65.5s-62 99.5 -62 167.5h-140v-225h-10zM250 225
c0 -65.333 19.5 -118.833 58.5 -160.5s89.5 -62.5 151.5 -62.5s112.5 20.833 151.5 62.5s58.5 95.167 58.5 160.5s-19.5 118.833 -58.5 160.5s-89.5 62.5 -151.5 62.5s-112.5 -20.833 -151.5 -62.5s-58.5 -95.167 -58.5 -160.5z" />
    <glyph glyph-name="afii10097" unicode="&#x44f;" horiz-adv-x="471" 
d="M256 450h124.999v-450h-10v195h-149l-158 -195h-14l159 195c-33.333 3.33301 -62.333 16.333 -87 39s-37 51 -37 85c0 39.333 13.333 71 40 95s70.334 36 131.001 36zM94.999 320c0 -33.333 13.001 -60.833 39.001 -82.5s52.333 -32.5 79 -32.5h158v235h-117
c-54.667 0 -94.834 -11 -120.501 -33s-38.5 -51 -38.5 -87z" />
    <glyph glyph-name="afii10071" unicode="&#x451;" horiz-adv-x="529" 
d="M446 69l6 -6c-18.667 -22.667 -42.667 -40.167 -72 -52.5s-59.666 -18.5 -90.999 -18.5c-68.667 0 -124.834 21.333 -168.501 64s-65.5 99 -65.5 169c0 68.667 18.833 124.667 56.5 168s92.167 65 163.5 65c58.667 0 106.5 -18.333 143.5 -55s55.5 -85 55.5 -145
c0 -2.66699 -0.166992 -6.5 -0.5 -11.5s-0.5 -8.83301 -0.5 -11.5h-408c0 -71.333 20.167 -128 60.5 -170s94.833 -63 163.5 -63c31.333 0 61 6.16699 89 18.5s50.667 28.5 68 48.5zM271 448c-62 0 -111.001 -18.833 -147.001 -56.5s-55.667 -86.5 -59 -146.5h399
c0.666992 62 -16.666 111.333 -51.999 148s-82.333 55 -141 55zM145.999 631c0 3.33301 1.33301 6.16602 4 8.49902s5.66699 3.5 9 3.5s6.16602 -1.16699 8.49902 -3.5s3.5 -5.16602 3.5 -8.49902s-1.16699 -6.33301 -3.5 -9s-5.16602 -4 -8.49902 -4
c-8.66699 0 -13 4.33301 -13 13zM359.999 631c0 3.33301 1.33301 6.16602 4 8.49902s5.66699 3.5 9 3.5s6.16602 -1.16699 8.49902 -3.5s3.5 -5.16602 3.5 -8.49902s-1.16699 -6.33301 -3.5 -9s-5.16602 -4 -8.49902 -4c-8.66699 0 -13 4.33301 -13 13z" />
    <glyph glyph-name="afii10099" unicode="&#x452;" horiz-adv-x="609" 
d="M0 515v10h155v175h10v-175h225v-10h-225v-219c19.333 23.333 46.333 42.833 81 58.5s68.667 23.5 102 23.5c65.333 0 113.5 -16.667 144.5 -50s46.5 -85.333 46.5 -156c0 -74.667 -15.167 -146.667 -45.5 -216s-77.5 -121.333 -141.5 -156h-16
c36.667 20 68.167 44.833 94.5 74.5s46.333 61.5 60 95.5s23.5 67.167 29.5 99.5s9 65.5 9 99.5c0 68 -14.667 118.167 -44 150.5s-75 48.5 -137 48.5c-36.667 0 -72.5 -9 -107.5 -27s-60.167 -37.667 -75.5 -59v-282h-10v515h-155z" />
    <glyph glyph-name="afii10100" unicode="&#x453;" horiz-adv-x="340" 
d="M90 0v450h250v-10h-240v-440h-10zM314 700l-109 -141l-8 5l110 142z" />
    <glyph glyph-name="afii10101" unicode="&#x454;" horiz-adv-x="492" 
d="M326 235v-9.99902h-261c0 -68 20.833 -122.167 62.5 -162.5s95.167 -60.5 160.5 -60.5c60 0 109.667 17.333 149 52l6 -9c-38.667 -35.333 -91.667 -53 -159 -53c-66.667 0 -121.5 21.5 -164.5 64.5s-64.5 99.167 -64.5 168.5c0 70 21.833 126.333 65.5 169
s99.834 64 168.501 64c31.333 0 61.666 -6.16699 90.999 -18.5s53.333 -29.833 72 -52.5l-6 -6c-17.333 20 -40 36.167 -68 48.5s-57.667 18.5 -89 18.5c-64 0 -116.833 -19.333 -158.5 -58s-63.5 -90.334 -65.5 -155.001h261z" />
    <glyph glyph-name="afii10102" unicode="&#x455;" horiz-adv-x="401" 
d="M331 111c0 26.667 -8.83398 48.165 -26.501 64.498s-39.167 28.5 -64.5 36.5l-76 25c-25.333 8.66699 -46.833 22.334 -64.5 41.001s-26.5 43 -26.5 73c0 31.333 11.833 57 35.5 77s55.5 30 95.5 30c23.333 0 46.166 -4.16699 68.499 -12.5s39.5 -19.166 51.5 -32.499
l-7 -8c-28 28.667 -66.333 43 -115 43c-35.333 0 -64 -9.33301 -86 -28s-33 -41.334 -33 -68.001c0 -28.667 8.83301 -51.667 26.5 -69s39.167 -30.166 64.5 -38.499l76 -25c25.333 -8.33301 46.833 -21.166 64.5 -38.499s26.5 -40.333 26.5 -69
c0 -38.667 -13.667 -68.334 -41 -89.001s-61.666 -31 -102.999 -31c-25.333 0 -52 5.66699 -80 17s-47 25 -57 41l9 6c11.333 -16 29.5 -29 54.5 -39s49.167 -15 72.5 -15c36.667 0 68.334 9.5 95.001 28.5s40 45.833 40 80.5z" />
    <glyph glyph-name="afii10103" unicode="&#x456;" horiz-adv-x="250" 
d="M120 0v450h10v-450h-10zM113 633c0 3.33301 1.33105 6.16602 3.99805 8.49902s5.66699 3.5 9 3.5c2.66699 0 5.33398 -1.16699 8.00098 -3.5s4 -5.16602 4 -8.49902s-1.16699 -6.33301 -3.5 -9s-5.16602 -4 -8.49902 -4c-8.66699 0 -13 4.33301 -13 13z" />
    <glyph glyph-name="afii10104" unicode="&#x457;" horiz-adv-x="250" 
d="M56 631c0 3.33301 1.33301 6.16602 4 8.49902s5.66699 3.5 9 3.5s6.16602 -1.16699 8.49902 -3.5s3.5 -5.16602 3.5 -8.49902s-1.16699 -6.33301 -3.5 -9s-5.16602 -4 -8.49902 -4c-8.66699 0 -13 4.33301 -13 13zM170 631c0 3.33301 1.33301 6.16602 4 8.49902
s5.66699 3.5 9 3.5s6.16602 -1.16699 8.49902 -3.5s3.5 -5.16602 3.5 -8.49902s-1.16699 -6.33301 -3.5 -9s-5.16602 -4 -8.49902 -4c-8.66699 0 -13 4.33301 -13 13zM120 0v450h10v-450h-10z" />
    <glyph glyph-name="afii10105" unicode="&#x458;" horiz-adv-x="251" 
d="M131 450v-483c0 -116.667 -47 -175 -141 -175c-30 0 -56.667 8.33301 -80 25l6 9c21.333 -16 46 -24 74 -24c87.333 0 131 54.667 131 164v484h10zM112 633c0 3.33301 1.33301 6.16602 4 8.49902s5.66699 3.5 9 3.5s6.16602 -1.16699 8.49902 -3.5
s3.5 -5.16602 3.5 -8.49902s-1.16699 -6.33301 -3.5 -9s-5.16602 -4 -8.49902 -4c-8.66699 0 -13 4.33301 -13 13z" />
    <glyph glyph-name="afii10106" unicode="&#x459;" horiz-adv-x="741" 
d="M420 0l0.000976562 440h-237l-8 -132c-3.33301 -52.667 -9.16602 -98.667 -17.499 -138s-17.333 -69.5 -27 -90.5s-20.5 -37.833 -32.5 -50.5s-22.5 -20.667 -31.5 -24s-17.833 -5 -26.5 -5v10c6.66699 0 13.667 1.33301 21 4s16.833 10 28.5 22s22.167 28 31.5 48
s18.166 49.667 26.499 89s14.166 85 17.499 137l8 140h257v-175h83c64.667 0 110.5 -12 137.5 -36s40.5 -58 40.5 -102c0 -91.333 -60.333 -137 -181 -137h-90zM513.001 265h-83v-255h82c60.667 0 104 11 130 33s39 53.667 39 95c0 84.667 -56 127 -168 127z" />
    <glyph glyph-name="afii10107" unicode="&#x45a;" horiz-adv-x="776" 
d="M90 0v450h10v-195h355v195h10v-195h83c66 0 112.167 -10.667 138.5 -32s39.5 -53.333 39.5 -96c0 -42 -13.667 -73.667 -41 -95s-74 -32 -140 -32h-90v245h-355v-245h-10zM548 245h-83v-235h82c61.333 0 104.833 9.5 130.5 28.5s38.5 48.833 38.5 89.5
c0 40 -13 69.5 -39 88.5s-69 28.5 -129 28.5z" />
    <glyph glyph-name="afii10108" unicode="&#x45b;" horiz-adv-x="609" 
d="M0 515v10h155v175h10v-175h225v-10h-225v-219c19.333 23.333 46.333 42.833 81 58.5s68.667 23.5 102 23.5c65.333 0 113.5 -16.667 144.5 -50s46.5 -85.333 46.5 -156v-172h-10v169c0 68 -14.667 118.167 -44 150.5s-75 48.5 -137 48.5c-36.667 0 -72.5 -9 -107.5 -27
s-60.167 -37.667 -75.5 -59v-282h-10v515h-155z" />
    <glyph glyph-name="afii10109" unicode="&#x45c;" horiz-adv-x="463" 
d="M417 450l-255 -215l271 -235h-17l-269 235l254 215h16zM90 0v450h10v-450h-10zM330 700l-109 -141l-8 5l110 142z" />
    <glyph glyph-name="afii10110" unicode="&#x45e;" horiz-adv-x="466" 
d="M446 450l-185 -450c-32 -77.333 -60 -130 -84 -158s-51.333 -42 -82 -42c-19.333 0 -40.666 5 -63.999 15l4 9c23.333 -10 42.666 -15 57.999 -15c28 0 53.5 12.833 76.5 38.5s46.833 68.5 71.5 128.5l10 24l-231 450h11l187 -366l38 -74l31 76l148 364h11zM118 690
h9.99902c0 -29.333 10.167 -53.333 30.5 -72s47.5 -28 81.5 -28c32.667 0 58.834 9.5 78.501 28.5s29.5 42.833 29.5 71.5h10c0 -32 -11.167 -58.333 -33.5 -79s-50.5 -31 -84.5 -31c-36.667 0 -66.167 10.333 -88.5 31s-33.5 47 -33.5 79z" />
    <glyph glyph-name="afii10193" unicode="&#x45f;" horiz-adv-x="540" 
d="M90 0v450h10v-440h340v440h10v-450h-175v-140h-10v140h-175z" />
    <glyph glyph-name="afii10146" unicode="&#x462;" horiz-adv-x="621" 
d="M164 700v-140h178v-10h-178v-151c51.333 4 96.333 6 135 6c87.333 0 152.833 -17.167 196.5 -51.5s65.5 -82.5 65.5 -144.5c0 -70 -23.5 -122.667 -70.5 -158s-112.167 -53 -195.5 -53c-16.667 0 -41 0.333008 -73 1s-54.667 1 -68 1v550h-154v10h154v140h10zM301 395
c-50.667 0 -96.335 -2 -137.002 -6v-379c10.667 0 30.834 -0.333008 60.501 -1s53.5 -1 71.5 -1c82.667 0 145.834 17.167 189.501 51.5s65.5 84.5 65.5 150.5c0 58.667 -21.167 104.167 -63.5 136.5s-104.5 48.5 -186.5 48.5z" />
    <glyph glyph-name="afii10194" unicode="&#x463;" horiz-adv-x="486" 
d="M0 440v10h154v250h10v-250h175v-10h-175v-165h94c64.667 0 110.5 -12 137.5 -36s40.5 -58 40.5 -102c0 -91.333 -60.333 -137 -181 -137h-101v440h-154zM258 265h-94v-255h93c60.667 0 104 11 130 33s39 53.667 39 95c0 84.667 -56 127 -168 127z" />
    <glyph glyph-name="afii10147" unicode="&#x472;" horiz-adv-x="804" 
d="M60 350c0 101.333 32.833 186.333 98.5 255s146.834 103 243.501 103s177.834 -34.333 243.501 -103s98.5 -153.667 98.5 -255s-32.833 -186.333 -98.5 -255s-146.834 -103 -243.501 -103s-177.834 34.333 -243.501 103s-98.5 153.667 -98.5 255zM255 395
c-32.667 0 -66.3311 -8.16797 -100.998 -24.501s-62.334 -34.833 -83.001 -55.5c8 -90 43.167 -164.667 105.5 -224s137.5 -89 225.5 -89c94 0 172.833 33.333 236.5 100s95.5 149.334 95.5 248.001c0 8.66699 -0.333008 15 -1 19
c-22.667 -19.333 -49.834 -35.833 -81.501 -49.5s-62.834 -20.5 -93.501 -20.5c-36 0 -70.5 8 -103.5 24l-98 48c-32.333 16 -66.166 24 -101.499 24zM70.0029 349.999v-20.999c58.667 50.667 121 76 187 76c36 0 70.667 -8 104 -24l98.5 -48c32.333 -16 65.5 -24 99.5 -24
c30.667 0 62 7.33301 94 22s58.333 31.667 79 51c-7.33301 91.333 -42 166.833 -104 226.5s-137.333 89.5 -226 89.5c-94 0 -172.833 -33.333 -236.5 -100s-95.5 -149.334 -95.5 -248.001z" />
    <glyph glyph-name="afii10195" unicode="&#x473;" horiz-adv-x="570" 
d="M55 225c0 67.333 21.667 123 65 167s98.333 66 165 66s121.667 -22 165 -66s65 -99.667 65 -167s-21.667 -123 -65 -167s-98.333 -66 -165 -66s-121.667 22 -165 66s-65 99.667 -65 167zM174 259c-38 0 -74.333 -16.332 -109 -48.999
c3.33301 -61.333 25.333 -111.333 66 -150s92 -58 154 -58c64 0 116.5 20.667 157.5 62s61.833 94.666 62.5 159.999c-32 -27.333 -65.667 -41 -101 -41c-26.667 0 -65.167 12.667 -115.5 38s-88.5 38 -114.5 38zM65 225.001v-1c35.333 30 72.333 45 111 45
c28 0 66.667 -12.667 116 -38s87 -38 113 -38c34.667 0 68 14.667 100 44c-3.33301 62 -25.333 112.667 -66 152s-92 59 -154 59c-64.667 0 -117.5 -20.833 -158.5 -62.5s-61.5 -95.167 -61.5 -160.5z" />
    <glyph glyph-name="afii10148" unicode="&#x474;" horiz-adv-x="654" 
d="M517 513l-183.998 -521h-3l-310 708h11l300 -687l184 524c19.333 55.333 37.666 96 54.999 122s34 40.167 50 42.5s34 0.5 54 -5.5l-4 -9c-34.667 13.333 -61.834 7.5 -81.501 -17.5s-43.5 -77.167 -71.5 -156.5z" />
    <glyph glyph-name="afii10196" unicode="&#x475;" horiz-adv-x="471" 
d="M376 328l-129.002 -335.999h-3l-224 458h11l169 -344l44 -92c5.33301 12 18 44 38 96l87 225c22.667 59.333 42.834 95.666 60.501 108.999s38.167 14.333 61.5 3l-4 -9c-22 13.333 -40.667 11 -56 -7s-33.666 -52.333 -54.999 -103z" />
    <glyph glyph-name="afii10050" unicode="&#x490;" horiz-adv-x="500" 
d="M120 0v700h370v140h10v-150h-370v-690h-10z" />
    <glyph glyph-name="afii10098" unicode="&#x491;" horiz-adv-x="340" 
d="M90 0v450h240v120h10v-130h-240v-440h-10z" />
    <glyph glyph-name="uni1E9E" unicode="&#x1e9e;" horiz-adv-x="584" 
d="M514 151c0 27.333 -5.83594 53.999 -17.5029 79.999s-29.5 52.167 -53.5 78.5s-47.167 49.333 -69.5 69s-51.166 43.167 -86.499 70.5l139 211c-38 25.333 -79.667 38 -125 38c-50 0 -91 -15.333 -123 -46s-48 -76.667 -48 -138v-518h-10v527c0 60 17 105.833 51 137.5
s77.333 47.5 130 47.5c50 0 96.667 -15 140 -45l-141 -212c33.333 -25.333 61.166 -47.833 83.499 -67.5s45.333 -42.5 69 -68.5s41.5 -52.667 53.5 -80s18 -55 18 -83c0 -46 -15.5 -84.167 -46.5 -114.5s-66.833 -45.5 -107.5 -45.5
c-31.333 0 -56.666 4.83301 -75.999 14.5s-39.666 24.167 -60.999 43.5l9 6c14.667 -12.667 25.834 -21.667 33.501 -27s20.167 -11.166 37.5 -17.499s36 -9.5 56 -9.5c36.667 0 70 13.833 100 41.5s45 63.5 45 107.5z" />
    <glyph glyph-name="uni2010" unicode="&#x2010;" horiz-adv-x="414" 
d="M100 265v10h214v-10h-214z" />
    <glyph glyph-name="uni2011" unicode="&#x2011;" horiz-adv-x="414" 
d="M100 265v10h214v-10h-214z" />
    <glyph glyph-name="figuredash" unicode="&#x2012;" horiz-adv-x="584" 
d="M100 349v10h384v-10h-384z" />
    <glyph glyph-name="endash" unicode="&#x2013;" horiz-adv-x="584" 
d="M100 265v10h384v-10h-384z" />
    <glyph glyph-name="emdash" unicode="&#x2014;" horiz-adv-x="784" 
d="M100 265v10h584v-10h-584z" />
    <glyph glyph-name="afii00208" unicode="&#x2015;" horiz-adv-x="784" 
d="M100 265v10h584v-10h-584z" />
    </font>
</defs>
</svg>
